<mxfile host="Electron" modified="2023-06-12T00:39:20.060Z" agent="Mozilla/5.0 (Windows NT 10.0; Win64; x64) AppleWebKit/537.36 (KHTML, like Gecko) draw.io/21.3.7 Chrome/112.0.5615.204 Electron/24.5.0 Safari/537.36" etag="G2JFtDE7QYr1Wafyvf6S" version="21.3.7" type="device">
  <diagram name="Page-1" id="U5HLonqfcT8kqTOilk2E">
    <mxGraphModel dx="482" dy="280" grid="1" gridSize="10" guides="1" tooltips="1" connect="1" arrows="1" fold="1" page="1" pageScale="1" pageWidth="1169" pageHeight="827" math="0" shadow="0">
      <root>
        <mxCell id="0" />
        <mxCell id="1" parent="0" />
        <mxCell id="-YUloIGHrFb9EOFcItWy-1" value="" style="rounded=0;whiteSpace=wrap;html=1;fontFamily=UGent Panno Text;fontSize=22;" vertex="1" parent="1">
          <mxGeometry x="280" y="80" width="320" height="40" as="geometry" />
        </mxCell>
        <mxCell id="-YUloIGHrFb9EOFcItWy-2" value="" style="rounded=0;whiteSpace=wrap;html=1;fontFamily=UGent Panno Text;fontSize=22;" vertex="1" parent="1">
          <mxGeometry x="280" y="120" width="320" height="40" as="geometry" />
        </mxCell>
        <mxCell id="-YUloIGHrFb9EOFcItWy-4" value="" style="shape=image;verticalLabelPosition=bottom;labelBackgroundColor=default;verticalAlign=top;aspect=fixed;imageAspect=0;image=data:image/png,iVBORw0KGgoAAAANSUhEUgAAAeMAAACJCAYAAAAfb1CwAAATKUlEQVR4nO3deXRU9d0G8Gf2SSb7DmQjgGETRERRqUqL4lIVpUprjyhYRZGwtApBpfiKtVXBpbii1AVUXHAp+GpRoW6A7BYDsiVASEL2dSaz3/cPXgqEeychmbm/O5Pncw7nePje3Pslx5Mnc3+bTpIkCURERCSMXnQDRERE3R3DmIiISDCGMRERkWAMYyIiIsEYxkRERIIxjImIiARjGBMREQnGMCYiIhKMYUxERCQYw5iIiEgwhjEREZFgDGMiIiLBGMZERESCMYyJiIgEYxgTEREJxjAmIiISjGFMREQkGMOYiIhIMIYxERGRYAxjIiIiwRjGREREgjGMiYiIBGMYExERCcYwJiIiEoxhTEREJBjDmIiISDCGMRERkWAMYyIiIsEYxkRERIIxjImIiARjGBMREQnGMCYiIhKMYUxERCQYw5iIiEgwhjEREZFgxlA/wNdiR+PqL7p8n+jhQ2DtlxeEjojEkCQJDodDtmY0GmGxWFTuiIi0IvRh3NCIqqdf6vJ90u+7l2FMYa2qqgoZGRmytQkTJmDFihUqd0REWhHyMCYiovDnc7rRUnQEzTsOwnGgEp4GO7wNDngbHdAZDTBEm2HOSEBUbipih+QgfnhvGOOiRbcdNhjGRER0GkmS0LhpP6o+3oyqT7fDvusIJJ+/w1+vM+iRcOFZ6PG7i9HjlothSrCFsNvwxzAmIqL/su8tx+Hn1+DoexvgOtrQ6ftIPj/qv/sZ9d/9jD2zlyN72pXo88A4flpWEPIw1plMMOfldOhav90Bb2V1iDvq3lzFh1D17BLZWtzY0Yi/eozKHRGRFlSt3opDiz9H7Zr/BP3ePrsLJY9/gvI3v8HgpVOQetWwoD8j3IU8jE3pqch75+UOXdv89QaUzf6fEHfUvfmaW2DfuFW2Zh1wlsrdEJFWbB+38IxeQ3eGq6IeW6/+G/otmIA+D90Y0meFG64zJiIiVe2b9y72zF4uug1N4ZgxERF1mM5sROygLET1SYclIx4GmxX+Vjc8dS1o2V2Gpu0lgF9q9z4lT65CVO80ZN9zhQpdax/DmEglMTExePjhh2VrgwcPVrkboo6LGZyF9BvOR8pV5yB+eB70ZuXo8DY5UPHOehQ//glaS6oC3nf3zDeQNHoQYvr3CnbLYYdhTKQSm82G+fPni26DqEMM0Rb0vO0SZE0Zg7ihuR3+OmNcNLKmjEGvSZdh94zXUfqS8g6MktuL3QWvYcQXDwWj5bDGMCYiov8yxkcj94/XIKfgSpgSYzp9H73ZiEEv/gHmlFgcePRDxetqv9yJho37kDCyX6efFQkYxkREBJ3ZiNxpY5H3wA1B3aCj7yM3o3FLMWo+36F4zZFX1zKMRTdARETijSpahOjeaUG/r06nQ/4Tvw8YxlWr5Zdbdidc2kRERCEJ4uNiz85G0mUDFevuykbY9x8N2fPDAcM4hPwuNySvV3QbRETCJV8xNGDdsbdCpU60ia+pg8BdVgH7pm1o/bEI7pJSuMuPwt/cAkj/v9bOaIQpLQXm7F6IGjIItgvORdTg/kF7vuTzwd/q7NC1fker8n3cbvha7J1rQqeDwdY995xtbW2F2+3u0j1MJhOio7vn94+6h7hhgWdkO8vqVOpEmxjGnSR5fWj611rUr1wNZ9GewBd7vfCUH4Wn/CjsG7eiZsmbMGX1RNIt45Fw7RXQmUxd6sW1txgHby/o0j0AoO6tlah7a2Wnvtacl9PhbU8jTUFBAZYuXdqle/A8Y4p05tS4gHWf3aVSJ9rEMO6Elu9+QOXCF+CpqOz0PTyl5ah8fDHq3v4QPR6ahehzuOkDEUUug80SuB5lVqkTbeKY8RnwO10of/hJHPnT/C4F8ck8pWU4fM9s1K34KCj3IyLSIm+T8hAZAJiSQnvecW1tLaxWa7t/du3aFdI+lPCTcQd56xtQOuNBuPYcCP7N/X5UPf0yfI3NSJ0yMfj3JyISzNHObGnbgNBvielytf8qXJLa31c7FBjGHeBtaMThqXPgLj7UoetNWT1hTEqEIS4WfocD3vpGuA+XAe3MrK79x9swpiUj8YZrgtE2EZFmNG7ar1gzxFhhy++pYjfawzBuh+T1omzOgnaD2JLfB0kTxsF24QgYkxJOq/sdrbBv3oH6D/4Jx6btivepWvQSogbmw5rft8M9mntnI3f5Cx261rXnACoWLJKtxV83Fok3X9/h555MZ+7aJLRwNn/+fBQUtD+BrqamBmPGjFGhIyLtqf5U+edeyuVDoDd17zjq3v/6Dqh6/h9o3fGTYl0fY0PGnALEXn4pdDqd8nXRUYi99ELEXnohWtZvRvmfHz+2/KkNyeNBxWPPIPe1v0On79iQvt5qgbVfXoeuDbS0yZic1OH70AlZWVnIyspq97rKyuDMM4h0vsZmza7PNyYnim4hLNV9uzvga+oev7tIxW60iWEcQGvRHtS/ozyxypTZA5lPPQJLTvs/iE8Wc9EI5Ly8EIenFcJX13Ba3fXzfjR99hXir7n8jHsmCnels+bBWfSz6DZOozObkP/tKtFthKXixz5WrJnT45E2boSK3WgTZ1MHULnoxRMbd7Shj4tB1uK/nnEQH2fpk4se8/6kWK99411hEwmIiIKldl1RwH2p8+aO6/avqAGGsaKW7zcF/O2816NzYe6Z0aVnxFw0AnFjR8vW3IeOBHw9TkSkdX6XB0VTXlGsW7NTkH033wACDGNF9e//U7EWc8mFsF0wPCjPSbplvGKt8bOvgvIMIiIR9j64Ao59yntOD3x+MvSW7jv582QMYxmeqhrYNyof6ZV6z+1Be5a1f19Y8vvI1gL1QESkZTVrfsTBRasV6xk3jUTar4PzoSYSMIxltHz3g+JYsXVQPix5OUF9XvRw+dNMvJXVcJd372PFiCj8OMvq8J9bn1esW7NTMGjJXSp2pH0cNZdh37BZsRb7y1FBf17U2QNQr1Bz7Svu8tg0UTjp9bcHIbk9ots4XYCli3SC3+3F9vGL4K5qlK3rjAYMfWc6TAmh3f6yrcTEROzfr7zxyHEdWaYYCgxjGa0BTmGyjRgW9OeZszMVa66Sw4i9lGvwqPswpaWKboG6oGjKK2j8QTn0Br5wBxIvylexo2P0ej369JEfEtQCvqZuw1tbD1+twudUnQ7m3OygP9OYGK/cT1VN0J9HRBQK+/78Hspe/7diPfvesci681cqdhQ++Mm4DXeZ8sw/Y0ryidOaThlTlk7/z5Pqp6wXlhmLDrTbkLe2ex+4TUThofTlL3FggfJ56GnXnYcBzwZv8mukYRi3EeiTqLe6BiUT7lSxG0Bq7d4HbhOR9lV+tAlF97yqWE8Y2Q9DV8yAzsCXsUr4nWnD1yA/6UAUfweO/CIiEqV2XRF2/PZZxRUotv69cO6nhTBEmVXuLLwwjNuQXG7RLZyKW2ISkUY1bivGtuufhOSWH2qzZibjvDUPwJwUo3Jn4Ydh3Ibk0eZpMUREWmLfU44tYx+Dr1n+JDhTUgzOW/MAorJSVO4sPHHMuA0dNywnEsp1sBRSq1N0G6fT6WDt3/FzxiOZ80gtNl/+KDw1zbJ1g82C4Z/NRcwA5WWbdComTxs6s/K4Rvy4q5A2dZKK3QAwGNR9HpFgFY8s4hGKGuauacLmy/8CZ2mtbF1nMmDYx/cj4Xz+4nImGMZtGBLiFGuS2wNDvHKdiCiSeZtbseXKv8L+c5n8BXodhq6YgZQxZ6vbWATgmHEbxjTl8Q1/k/wrGSKiSOdzurHt2ifQtLVY8ZrBr0xBxo0XqNhV5GAYt2EKsA+0V2lnLiKiCOb3+rDj5mdQ9/UuxWv6PzURmZPlz2en9mkqjANNnpJ86sxyNqUmw5Agvz2lc18x/Fpb+kREFEKSJOGnSS+iepXyka595o1H7qxrVOwq8mgqjPUxyqd4+B3y0+dDwTrwLPmC1wvn7r2q9aE6v190B0SkMbsLXkP58m8V6znTr0K/R25WsaPIpKkJXIZY5TD21TWo1odt5HDY18sfo9jyzUZEnzNYtV6CLdDbB79Tg8tJqNvJenpBwP3aST17H1qBw8//S7Hea9Jl6P/MbSp2FLm0FcYKr4eBY0cJqiVm1AWoeuol2VrDx/+L5DtugcEWrVo/waSPsirWfE0tKnZCJM8QHyu6BQJQsnAViv/ykWI946aRGPzqFOjC6JznhoYG2O32gNdER0cjMTFRpY5O0NRramNiAoyp8rOZnbv2wu9WZ7zW3KsHos8dIlvz2x1o+PBTVfoIBUNigmLNfbBUxU6ISKtKl3yJPfcvV6ynXj0MQ94qgE6vqQhpV2FhITIzMwP+KSgoENKb5r6T1kHy47V+hwP2DVtU6yPhpmsVazVL3oRz7wHVegkmY0I89NFRsjXXgRL47A6VOyIiLSl/53sU3a18AlPS6EE4Z+UfoeduhUGluTCOHib/iRQAapYsg6TSJKPY0aNg6dtbtia5PSib+yi8ITrhyd/qRO3y9+EuLQ/J/c15ObJ/L7k9aF6jfDA4EUW2qlVbsfPW5xQPqEkY2Q/nrpoNg5UnMAWb5sI4/qpfQmcyydZc+0tQufAFVfrQ6XRIm3W3Yt1zpAKHbp8OV/GhoD3TW9eA6iXLcOD6iahevDRkE6qihynvjlP94uvwBDjTmYgiU+3an7D9N09B8sl/4IkdmoPhn82F0aY874Q6T3PvGQzxcYj91S/Q9Pla2XrDytXwlFUgdeokWPNDu/ep7byhSBj/azSsXC1b91RU4tAdM5F8xy1IHH9twMlRSiSvF/YftqFx9Rdo/mYDoMIs0tjLLkbdsvdla77GJhyaNB3ps6ch5hcjw25MiIjOXNP2Emy77gnFoxANsVHoO/83aCk6ErIeDNFmxA2TfxvZHWgujAEg5a5b0fzv7yE5XbJ1+8atsG/cCmNqCkw90qCPigIUJvTpY2PQ69G5ne4lbeZdcO7ZD+dP8hvX+x2tqF68FHXLPkD89WNhO384ooYMgF7hwAnJ74f7cBlad+6CY9N2tKzfDH9L4Nl9wRY1uD8sZ/WBS2Hc21tTh7LZj8CYmoKooQNh6Z0NfUzMsV82FL7PhthYxI6+OIRda0tpaSmKi5W3BZRTV1enWKuqqsLXX399xn1ccsklYTWblbSpfv1e+OzyP28BwNfciu03LgppDzGDsjDqp4UhfYaWaTKMzb16IG36nah84rmA13mra+CtDvxK1ZDUtSnqerMZmU8+jMNTZ8MdYHmVr6ERdW+8h7o33oPObIKpRzoM8XHHDp7Q6eFvbYW3qhaeikpILuX/6dWSVvAHlBYE/iXFW12D5i+/QUd25Dbn5XSrMH777bdRWFgYtPutW7cO69atO+OvczqdsFgsQeuDiMTQZBgDQMKN18BVfAgNH4g/ssyYlICclxeidOZDcO5qfwcuye2B+1DoXucEg+38YUi+bQJq33hXdCtERKpwONpfLSJijTGgwQlcx+l0OmTcfy+S7/i96FYAHBvLzlmyCIk3XafeQ0P8+jF16iSk3juZZyYTUbewfv36gHWDwYBZs2ap1M2pNBvGx6XedSty33xOcRMONelMJqTfNxU5rz4N6wCF/au7yJieiuTbf4ve770Cq8LSqmBKnngzer/1AuKuuExxFjsRUbgrLS3FgQOB94eYPHky8vLyVOroVJp9TX0ya35fZL/4BFzFh9CyfhPsP2yHt6oa3roGIWcMR509ALmv/x32LT+i/v1PYN+wBVJnT3PS6WDN74vo84ch5qIRiDpnsOoTciy9c9BzQSF8LXY4Nm2H48ciuA8ehqeiEt76RkhOJyS3R9WeiIiCae1a+RU6x5nNZsybN0+lbk6nkySF1d3UYf5WJ+xbdsC5czece/bDU1EJz9HqUyZq6Sxm6G02GJMSYMnLgblPLix5OYgeOgiG+DiB3RMRRb6JEydi2bJlivVp06Zh8eLFKnZ0KoZxCEl+PySXGzqTETpjWLyEICKKSJmZmSgrK5OtWa1WlJSUICMjQ+WuTmBChJBOr4euExuBEBFR8Ozbt08xiIFjn4pFBjEQBhO4iIiIuuKrr75SrNlsNsyZM0fFbuQxjImIKKIFCuOZM2ciJUX+6F41ccyYiIgiliRJSE1NRW1t7Wm1+Ph4HDx4EAkJyue8q4WfjImIKGLt3LlTNogB4L777tNEEAMMYyIiimBK64uTk5MxY8YMlbtRxjAmIqKIpTReXFhYiNjYWJW7UcYxYyIiikg+nw+JiYlobj51p8b09HSUlJQgKipKUGen4zpjIiKKSPX19Zg+ffppfz9q1ChNBTHAT8ZERETCccyYiIhIMIYxERGRYAxjIiIiwRjGREREgjGMiYiIBGMYExERCcYwJiIiEoxhTEREJBjDmIiISDCGMRERkWAMYyIiIsEYxkRERIIxjImIiARjGBMREQnGMCYiIhKMYUxERCQYw5iIiEgwhjEREZFgDGMiIiLBGMZERESCMYyJiIgEYxgTEREJxjAmIiISjGFMREQkGMOYiIhIMIYxERGRYAxjIiIiwRjGREREgjGMiYiIBGMYExERCcYwJiIiEuz/AAMqjE1NEnFyAAAAAElFTkSuQmCC;" vertex="1" parent="1">
          <mxGeometry x="387.12" y="85" width="105.77" height="30" as="geometry" />
        </mxCell>
        <mxCell id="-YUloIGHrFb9EOFcItWy-5" value="" style="shape=image;verticalLabelPosition=bottom;labelBackgroundColor=default;verticalAlign=top;aspect=fixed;imageAspect=0;image=data:image/png,iVBORw0KGgoAAAANSUhEUgAABHMAAAB9CAYAAAAhkC8UAAAgAElEQVR4nO3dd3hU1do28Hsmk56QhDQggVBCD0oLiCJFmoAFQeR9ORRF4RyqDYMCIiIqr4igeOAAB7AhqAgoTQFpxkgn1NATEpJACul9Zvb3hx/nAJm1M2XPZMr9uy6uS+fZe61F2DN75Zm9nqWSJEkCERERERERERE5BHVtD4CIiIiIiIiIiIzHZA4RERERERERkQNhMoeIiIiIiIiIyIEwmUNERERERERE5ECYzCEiIiIiIiIiciBM5hARERERERERORAmc4iIiIiIiIiIHAiTOUREREREREREDoTJHCIiIiIiIiIiB8JkDhERERERERGRA2Eyh4iIiIiIiIjIgTCZQ0RERERERETkQJjMISIiIiIiIiJyIEzmEBERERERERE5ECZziIiIiIiIiIgcCJM5REREREREREQOhMkcIiIiIiIiIiIHwmQOEREREREREZEDYTKHiIiIiIiIiMiBMJlDRERERERERORAmMwhIiIiIiIiInIgTOYQERERERERETkQJnOIiIiIiIiIiBwIkzlERERERERERA6EyRwiIiIiIiIiIgfCZA4RERERERERkQNhMoeIiIiIiIiIyIEwmUNERERERERE5ECYzCEiIiIiIiIiciAaUw7WFZegYNtuizv16fQAvJo3tbgdotoiSRJKS0sNxjQaDTw9PW08IiIiIiIiMlZJSYnB19VqNby9vW08GiLTmZbMyS9A1uJ/Wdxp+PTJTOaQQ8vKykK9evUMxkaMGIENGzbYeERERERERGSsqKgo5ObmVnu9bdu2OHv2bC2MiMg0JiVziIiIiIgckb6iCnnxF1B46jpKLmSgKq8E+tIKqL3coQnwgU/z+vBv1xB1e7aBxp/fyhMRkX1jMoeIiIiInFbBsatIWbQNWVuPQ1dSUePxKnc3BPdth8YvD0LIgAdtMEIiIiLTMZlDRERERE6nPOM2kqauxa1NR0w6T6rSIWdnInJ2JiKwWwu0XTUB/m0bWmmURERE5jEpmaNyd4dH0yijjtWXlEJ7K9usQZFxKq5dR9anKw3G6gzojYBBfW08IrIn586dw+uvv24wNnLkSIwZM8bGIyKyDK9pIjJW7t6zODnsE2jzDRc4NVb+n5eQ0GEGYlZOQMTzvRQaHRERkeVMSua4h4ei6foVRh1bdOBPpMe9a9agyDi6omKUHDpuMObVuoWNR0P2Jj8/H7/++qvBWOfOnW08GiLL8ZomImPc/PEwTv3Pp5C0OkXak6p0OPPCcpRn5qPZW0MUaZOIiMhS6toeABERERGREm4fOI9TIz9TLJFzt8sz1+PG6r2Kt0tERGQO1swhIiIiIodXmVOIxBFLIFVqZY+r27MN6o3ohjodmkAT6ANdcTmKz93ArS1HkfXzMUAvCc89N2k1AmKbwf8B48oOEBERWQuTOURm8PPzw9y5cw3GYmJibDwaIiIiOjdxNSpvFQjjnvWD0O6ryQjp265aLKBzM0SM7Ymis6k4PepzFJ26brANqVKLU39bikcSP4LKjQ+4ExFR7WEyh8gMvr6+eOedd2p7GERERAQgL/4Cbm08JIx7R4Wia/y78IoMlm3HP6YRuv4xD8cf/xB58RcMHlN8Ng03/r0XDf/OjSaIiKj28CsFIiIiInJol95aL4ypPDTouDWuxkTOHRpfL3T46Q14NggSHnN5zvfQV1SZPE4iIiKlMJlDRERERA6r4MQ14VM0ANBs1jPwb9fIpDY96vqhzbIXhfHKrAJkbkgwqU0iIiIlMZlDRERERA4r9Z+7hDH3YH80fu0Js9oNfzoWAV2ihfHrS38xq10iIiIlMJlDRERERA5JX6XFrU1HhPHIcb2g8fMyu/2olwcKY4XHr6H06k2z2yYiIrIEkzlG0ldUQtLKb3VJRNZVXl6OqirnrFFQXl5e20MA8Nc4tPysszpJklBWVga9Xl/bQ7Eae7mmybnl/nYW2vwSYTzi+V4WtV9vWFe4ySSDbm48bFH75Di0Wi0qKipqexgOTZIki36G9vjzr6iocKh5kzPPpQHXm3twN6v7VKZnouTICZSdOofK5DRUZtyEvqgYkKS/DtBo4B4WAo9GEfB+oC18u3aEd0wrxfqXdDroy4y7CPWlZeJ2KiuhKxZPbmSpVHDz9THvXAdXVlaGyspKi9pwd3eHj491fn46nQ7FxcVGHVtUVCSMlZeXo6BAvH2rHLVaDX9/f7PONda1a9ewe/duxMfHIykpCcnJycjLy4P0/9+H7u7uiIyMRIsWLfDII4+gf//+6Nq1q1XHdL+SkhLhzTsgIEB4nl6vx/79+7Ft2zYcO3YMSUlJyMvLg06ng5ubGwIDA9G8eXPExsaiX79+GDhwIDQa5T6q9Xo9Tpw4gSNHjiApKQkXLlzA1atXkZ+fj8LCQuh0OgCARqNBUFAQGjdujOjoaDz00EN49NFH0aFDB8XGArjGNX3mzBns2rULf/zxBy5duoSUlBSUlPz389nLywsNGzZEdHQ0unXrhsceewwPP/wwVCqV1cZkiKNe0+TacnedFsZ8ouvBr02kRe2rPd0ROrA9bv5geKesnF9PoemMpy3qg6yrqKjIYOJcpVKhTp06Bs/JycnBli1bsGvXLpw+fRqpqakoK/tr3q3RaBAVFYUOHTpgwIABGD58uOxnpDMT3Xfr1Knzn3tYamoqPv30U2zbtg2XL1+GJEnw8vJCu3btMGTIEEycOBFBQYaLjaelpeGf//wndu7ciaSkJFRVVcHHxwcRERHo168fxo0bh06dOlnt73e/vLw8bN68GTt37kRiYiKuX7/+n8SIl5cXmjZtigcffBD9+/fHkCFDEBgYaLOx3c8R5tIA5x6WUkl3/kUVVnTgT6THvWswFj59MoKGP2mNbs0iaXUo/HUv8n7chvJzF00+371hA9QdOQyBT/aHyt3dorGUJ11GyvNTLWrDUh5No9B0/YpaHUNteemll7B69WqL2hgxYgQ2bNig0Ijudfz4cXTu3NkqbRurbdu2OHv2rOLtarVarFu3DsuWLcORI+JH5kWio6Px+uuvY9y4cfDw8FB8fPfr27cvfvvtN4Ox4uJi+Pr63vOaVqvFv/71LyxYsADp6elG9xMaGooJEyZgxowZZiccMjMz8eOPP2LXrl04ePCg2UkPAGjWrBnGjh2LKVOmCCdfpnDWa7qqqgpffvkllixZgnPnzpl8fqNGjfCPf/wDU6ZMsXry9A5HuqaJ7kjo9CYKTyQbjDX8Rz+0Xf6SxX2krdyDc39fZTCm9nJH34IvoPZwvl8SnEWrVq1w8WL1+X1ERARu3Lhxz2vp6emYN28e1q5da/TTC76+vnjttdcwa9YseHp6KjLmtm3bCsd8/fp1i9s/ePAgHnvsMYOxuLg4fPDBB0a1I/rSISUlBVFRUVi+fDleffVV2SdqgoOD8e2336J///73vL506VK88cYbNT6NM3XqVCxatAjuZvwOFhISgtzc3Gqv3z8vKCoqwrvvvovly5ejtLTUqLa9vb0xZswYvPvuuwgPDzd5bOZwtLk0wLmHpVx+mVVx/GFce3YcMuctMiuRAwBVaRm49X9Lce1//4HSROV/ySVydtu2bUPz5s3x/PPPm3XzAYArV65g4sSJiImJQXx8vMIjtMzp06cRExODqVOnmnTjAYDs7Gy8//77iI6OxvHjx40+r7KyEitXrkTv3r0RERGBqVOnYuvWrRYlcgDg6tWrmDNnDqKiorBo0SKnXiZkrgMHDqB169YYP368WYkc4K9vMmfOnIkmTZpg/Xrxlsu1pTauaaL76UorUJiYIowHParMk9NB3cXt6MurUHD8miL9UO1av3492rRpg5UrV5q0DKWkpATvvfceunbtioyMDEXGotPphH+UIEmSsH2l7usLFizApEmTakzG5ObmYvDgwdi7d+9/Xnvvvfcwbdo0o5ZVLV26FKNGjbJ4vCJHjx5FTEwMFi1aZHQiB/jraf8VK1YgOjoa69ats9r47nD2uTTAuYchLpvM0ZdXIGPuQtx4/R1UZd5SpM2qtHSkTozD7Q2bFWmPyNmVlZVhzJgxePLJJ5GSIp6Qm+Ly5cvo2bMnlixZokh7ltq0aRMeeughg9+wmSIrKwtXrlwx+vjMzEz8/e9/x/79+2GNBzCLioowffp09OzZEzk5OYq376g++OAD9OrVC1evXlWkvdzcXIwcORIvvPCC3axxr61rmuh+RWfTAL34861Oh8aK9OPbqgHUXuJv/YtPpyrSD9Wejz76CCNHjkRhYaHZbZw6dQo9e/bE7du3FRyZY/rll1/w1ltvGX28VqvFqFGjUFhYiF9++QVz5swxqb/vv/8eX331lanDrNGBAwfQq1cvpKaa/x4vLi7GqFGj8MYbbyg4sv9yhbk0YN9zj9zcXHh5edX45/z584r2C7hoMkebl4/rE15D4U7Dj3RZRK9H1uIVyF6h/AcKkTPJzs7GI488gq+//lrxtvV6PV599VWTJwNK27VrF0aMGPGfdfbOKD4+Ht26dVPs20hH9sorr2DWrFlWafuLL77A008/XesJHVe4pslxFJ0WLzdRubvBp3l9RfpRqdXwa9tQGC88pcwvUFQ7Vq9ejRkzZijS1pUrVzBmzBhF2nJk5vw8MzMzsXDhQkyePNmsPmfPnq3Yk0vAX08iP/PMMyY9jSPn448/xvTp0xVp6w5XmEsDjjH3qKioqPGPNb5cdbkFvtr8AqROmoHKa8atN3Vv2ACaukFwq+MPfWkptHkFqExNB2qoWp675ltowoIR9MxgJYZN5FRycnLQu3dvo5egREdHo169eggKCkJRURGys7Nx6dKlGn+xfe+99xAREYG///3vSgzbJKmpqRg2bJhD7HAQHh6OkJAQBAcHIzAwEJWVlSgsLERmZiaSkw3XorjblStXMHjwYMTHx1db2+wqFi5ciE8//dSoYyMiIhAZGYnQ0FDk5+cjIyMDycnJNd7kd+7ciZdeeglffvmlEkM2mSNd0+QaSi6Ik8jejcOg1rgp1pdPdD0UCpZTyY2D7NuZM2cwadIkYbxu3boICwtDWVkZbt26ZdROOdu3b8eWLVswZMgQJYfqUO5e0v3ggw8iJiYGOp0Ox44dk30q4v333692L4yNjUWLFi2g0+nw559/CmsGpaWlYf/+/ejTp4/F45ckCS+++CLy8vIMxgMCAtC4cWM0aNAAZWVluHHjBpKTk2tMJi1atAgxMTF4/vnnLR6jK8ylAc49auJSyRxJq0X6jPdqTOR4tmyGuiOGwLdbLDR1q1ch15eWoeRoIvI2/ozSIyeF7WQt+he827SEV8too8fo0aQRGn+zzKhjKy5eReZ7iwzGAp4agKDnzNtdQeVhWRFnR/bOO+9g6tSaC1Dn5OSgb9++NhjRvdq0aYPExESjjj158iReeOEFg7EXX3zRqL+nIV5e4i1ajVFVVYWhQ4fWePPp0KEDXn75ZQwcOBBhYWHV4sXFxfjtt9/w+eefY8+ePcJ2pk2bhi5duii+C5McSZIwfvx44S5NjRo1wsCBA9GpUyeEhYUhNDQUarUaubm5uHXrFg4dOoQDBw7g0qVLio9NpVKhZ8+eeOyxx9ClSxfExsaibt26wuPz8/ORkJCAtWvXYsuWLcKbaWJiImbPno3FixebNB5nuKb//PPPGh8n9/f3x9SpUzF69Gi0alW9/kZGRgY2bNiAJUuWIC0tTdjOV199hd69eysyETSFPV/T5LrKU8VLPL0bhyral1x7cuMg+yVJEiZPnlxtF9NBgwZh7NixGDRoEPz8/P7zul6vx5EjR/DVV19hxYoVsrVl5s6d69LJHOCv+97333+Pxx9//J7X161bJ1w6fHcip2nTpvjxxx/Rvn37e+ILFy4UPvmzfft2RZI5SUlJBpfEDBo0CFOmTEH//v3h5nZvsvjWrVtYt24dFi5ciJs3bwrbnjJlCnr16oXGjc1fBuoKc2mAcw+jSFZSuD9BSuoywOCf29//bK1uZd1cskI4pqQuA6SLjw2VCn7dJ+n1eqPbLPrjiHSxzzBhm9fGTJb0Op1V/j4liWeF/WYt/8IqfdJfbt68KQEw+GfEiBG1PTxJkiQpPj5eOMZZs2bV2rhee+014bgASAEBAdL69etNeh/u2LFDCgwMFLbZsWNHSafw+7BPnz7C/jZt2mTw9UGDBkknTpwwuo+jR49KI0aMkNRqtQRA2rBhg9HnpqSk3NN3hw4dpE8++UTKyMgw568rSZIknTx5UmrTpo3w7+3m5iadO3fO7PZrYo/XtFarlf2ZAJB69OghpaSkGNVeQUGBNGbMmBrfI9nZ2Yr/Xez9mnYE2vxCqSrntl3+cUYJXWdKO/GcwT+nn1+maF8pn+0U9vWLx0iT7llkWy1btpT9TL3zJzw8XNq+fbtRbR4/flwKCQmRbe/IkSOKjzkiIsLsNu+2f/9+4bhnzJhhdDtyf/+1a9cKz3v//fdlz9VoNNKZM2eE5w8dOtTgeV26dDHp5xAcHGzUteHt7S2tXr3aqDazsrKkxx9/XLa9J554wqRx3s9Z5tKS5Bxzj5ycHKOuo7NnzyraryRJkss8mVN27iLy1osLE7tH1kfkJ/PgGSVeE22I38OxiFrxMVKnvAnd7fxq8YoLV1C48zcEDO5n8piJnM2RI0dkn9xo1qwZtm/fjpYtW5rU7sCBA/H777+jT58+yMrKqhY/ceIEvv76a4wdO9bkMZtjwYIF9/x/3bp1sWHDBvTrZ9rnQOfOnbFhwwbExcWZ/STGo48+irlz5wq3IDVF+/btcfDgQXTp0gXXrlVfbqDT6bB48WKsWmV4C19ntHr1atmCdt27d8fu3buN3uKzTp06+PLLL+Ht7Y0VK1YYPKagoADvvvsuli5dataYzWFP17Q9S3v1bZSfu1Dbw6hG5eGOlr9vre1hKK4is/q86w6PUGW3nvUIqyOMSZVaVOWVwKOun/AYsm8hISHYt28fWrdubdTxHTt2xK+//oouXboIl9b8+OOPiI2NVXKYDiMkJASjR48WxidOnIjZs2cLlxcPHjwYMTExsudv2rSp2utnzpyBJEnCLdPN9d133+HJJ5806tjQ0FBs3boVffr0wcGDBw0es23bNiQkJODhhx82eSyuMpcGOPcwhssUQL61aDkg+MBQ1/FDw6UfmpzIucOzWWPUf/t1YTz3y++sUvCIyNFMmzZN+F4ICgrC7t27Tb753BETE4MvvvhCGP/www9t9j68e0vIBg0a4Pfffzf5xnO3jh074tixY+jRo4fR5wQEBGDfvn04ePCgIomcO4KDg/HNN98I4z/99JPLbFcu/f/HvUUiIyOxefNmoxM5d/v888/Rq1cvYXz16tU23THFHq5povtV5ZUIY+4h4uQLAGhLynHrp6NIXbYLNzcdRlWBfJFT92D55JA2z/AyAHIMGzduNDqRc0fHjh1l64js3r3b0mE5rO7du1dbhnS3oKAgg0uO76hpqVTXrl0Nvl5WVia7VNkcs2fPNjqRc4dGo8HGjRtRr1494TGLFhkulVETV5lLA5x7GMMlkjnFfxyR/aYsYv5b8GggfrMZw+/hWNQZ0NtgrPL6DZQlnrWofSJHt2PHDhw+fFgY37BhA5o0aWJRHwMHDsTIkSMNxi5evIjff//dovZN5eHhgV27dqFNmzaKtFW/vvE7swQGBsomAyzRrVs3YdvZ2dk4evSoVfq1N7t375Yt5Dh//nyEhISY1bZGo5EtqFxWVoa1a9ea1bYlavOaJrqbpNNDVyTe2UTjL66FdXPTYRyImoKTQz7G+cmrkTjsE+yPnIjU5bvMag+QTyyRfRs1ahR69uxp1rnTpk0Txk6fPm1UwWRnZExiTC7h0K5dO9lz/f39ER4ebjBmyTbi9wsLC8PMmTPNOjc0NFS2nt5PP/0kW1vHEFecSwOce8hxiWRO3g8/C2N+PbrBt2snRfqpO3KYMFZgjW3QiRyI3JKQp59+Gv3791ekn9dfFz8lZ42tG+XMnTsXbdu2tWmftjJ06FBhzNiCxo7u+++/F8ZatGiBUaNGWdT+Aw88gOHDhwvj3333nUXtm8OZr2lyLNpi+V+S3Xw9Db6e/UsiEp9djKrconte1xWX4/yk1bi+9BeT2vvPeArtd8tckjd79myzz23ZsqXwM1Gr1com/J2ZMcV9GzYUr4iIioqq8fzIyEiDr6enp9d4rrHi4uLg7e1t9vnjx483WHgY+Gtp+pYtW0xqzxXn0gDnHnKcPplTlZWDkkPHhfHQicqtm/NqFQ3Pls0MxuTGQOTs0tPT8euvvwrj77//vmJ9dezYUVhtX24MSouOjsYbb7xhs/5srXv37sKYq0xet24V1yB54YUXZB8xN9b48eOFsaNHj5r8rZ4lnP2aJsciVcpvU6v2rL4zpyRJOD95jXDZPQBcnLEOFVkF1V5Xe8kvl5Sq5LckJvvUqVMns5ek3NGlSxdh7OrVqxa17ahET83cLTRUvEOcMeeLnnzNzc2t8VxjqFQqjBkzxqI2vL29Zb+U+fln8QMH93PFuTTAuUdNnD6ZUxx/WHjT9mrbEp5Na878msKn04MGX9feykZlhu0m3UT2ZOvWrcI1tl26dFE82967t+Elj2lpaUhOTla0L5EJEyZAo3HeGvNy35plZGTYcCS14+LFiwYLBN7x1FNPKdJPz54979ka937x8fGK9GMMZ7+mybHoq+STOSpN9WRq8ZlUlF27Jd9uWSVydlZ/ulCtkZ8y62tILpF9UmL7cLk5jNx9wpkFBQXVeExAQIDB1z09PeHj42P2+Xl5eTWea4zY2FjZhJOxBg0aJIz98ccfRtcZdMW5NMC5R02c/idT8qe4doP/Y+Jvls3l3a41RB8hFZevWVybh8gR7dy5Uxh79tlnFe+vW7duwtipU6csXk9cE41GY9Nq/7UhKCgIarXa4CREqYmUPTt06JAw1qhRI0XWdQN/re3u168fNm82vBtjQkKCVd5D93OFa1oJEQtmQaqsqu1hVKfwzi72QNLK/wKkcquefKm4Kd796m7lGQY+wwy0d7eakktkn0RPH5iiQYMGwphST4k4GrkvIWo6xphzAcDX19fg68XFyhQjHzBggCLt9O7dG+7u7qiqqn5vKCwsxIULF4yaM7jaXBpwnLlHUFCQUU+lyy0tNJfTJ3PKzl0UxnxjLf8Av59HI8PrNwGgIjkV/j1N34KOyNHdXY3+fn379lW8P7lHps+fP6/IN3FyYmNjhWuknYVKpYKXlxdKS6vvAFNUVGTgDOdy7tw5YezBBw0/oWmu9u3bC5M5SUlJivYl4grXtBLcwyz/FpeMo1LLJ6gkA4lmjzDD3+Tfz6t+YPUX9fI7uBhKHpH9U+LzWi75UFbmmrWUjKkz4+VluKi4sTVqPD0N17EyNC8xh1L3cm9vbzRt2hQXLxr+nTQpKcmoZI6rzaUBx5l7qNVqNGtmuNSKtTl1MkebmwddruAbYpUKHo0bKd6nJkg8UdBm5SjeH5G9u3XrlrCuh0qlMnkrUGPIPRZ748YNxfu7X+fOna3eh6Vu3LiBhIQEnD59GpcvX0ZGRgays7NRUlKCiooKox77FU2YXGHyeunSJWFMbrtVc8hNqC5cEO/UqCRHuKbJtajca6hJpav+Geb/QCN4RtRFRfpt4WlqT3eEPN6+2uuSVr4mjtrDqafUTkuJXW3kkjmVlZUWt++I3N2r16wy9hgPD/n6VDUdZ+gJGHO0aNFCkXbutCVK5sjNJ+5wxbk0wLmHMZz6zlOZnimMaUKCUZX5/9dN37P+UKr+n3fF71mraGDdoqQVP2arzRVPHoiclVzxvwYNGiAlJQXAve8tQ/9dU/zu/5a7kduiYGxsbKzV+zBHSkoKVq1ahU2bNlk1CaDTOX8hULm6QLZM5mRmiu9zSrLXa5pcl8pdfgprqIaNSq1G6yVjkTh8sfC85h/8DzzrVX8yR19DgeOaxkP2x8fHR5FC9Wq1+KksUY0TZ2dMjRPRz97Y+iii85Wag0RHRyvSDgA0b95cGDOmzqArzqUBzj2M4dR3HrknYbTZOUgeId4lxBqksgqb9kdkD+Sy9+np6Vb5NkFOSUmJ1fuorUctRa5fv46ZM2di/fr1NplYKvWtmD27dUtcRFWJgonGtldRUYHCwkLUqVNH0T7vZ2/XNJGmhq3CdaWGn4io9+xDaPfVZCRNXQttwX+fLnTz80KLBSMRNdlwnQxdifwczs3HuKcJyH74+/vX9hCclsqIOl2iJJgx58odp0Qyx8fHx6Itye8n2nkLkJ9P3OGKc2mAcw9jOHUyR5dffWvJ2qSvYDKHXE9Ojn0tL7TFEqDAQAP1FmrJF198gSlTptjsxusqCgsLhTFRUUZz1VQM0hbJHHu6pomAv5ZDqT3doa8wnDzWFZcLz40Y3QPhQ2Jx+8B5VGTmwzM8AHV7tYGmjngHHbn2AMA9SNn3PVkfd8ipXcYmbax1vhyl7+Ny7RlTZ9AV59IA5x7GcOpPManCztapuuijluTa7K1+irFbQFpCtF2mrc2ePRvvv/9+bQ/DKVXIJOeN3YnDWDVNKuXGohR7uaaJ7uYe5CvcoarqtvyONhp/b4Q90cnovqry5RPi7kHKvu+JqPbYMpljzD3cFefSAOcexnDuZA63iSSqda5Y/M8eHt3+7LPPjE7kREdHIyYmBq1atUJoaCj8/Pzg7e0tWwcAAMaNG+eS/76A/FIy0Q4d5tJoNNBoNNAKarLZ4t/AHq5povu5h9YRJnMqs8VPz5mjMku+Pfe6TOYQOQul7+NyS7ZE9/a7uepci3OPmjl1MofF6Ihqn7G7EjgTJQoqWuLMmTOYPn267DH16tXDa6+9hmHDhqFp06Zm9TNhwgSXnWC4u7sLJ2Dl5fLLMUyl1WplJ3u2eI/V9jXtKCpS0iCVKfvvrwiVCl6tlCvmaS+8G4Wg+EyqwZgoyWMuufY86wdxNysiJwECdOMAABf8SURBVKL0fVzuyRpj7uGuOJcGOPcwhlPfeVQyF37AkIEIm/SCDUcDgBckuSC5bzfGjx+PDz/80IajcY018nFxcbJPjrz++uuYN28efHzE9SFqotfr7e6xX1vy9PQU/v2Li+WXd5iqpnpHnp7yhWDJdjLnLUL5OdtsF28KlYc7Wv6+tbaHoTivRsHCWNl1ZWtMlKVkmzUOInI8StcZlGvPmHs459Ik4tT/Em6B4oKQUmUV3AKsWzCSiOQr+FdUVCA4mJNgJSUlJeGXX34RxpcsWYKXX37Z4n4KCgpcdstVAKhTpw7y8w1/U6/0JLCm5JC1ix8T2SufZvWEsbJrNe8QYwq59uTGQWSPXGHXSUsofR8vLS0VxurWrVvj+ZxLk4h8QQQHpwkTX/j6wporhxOR5SIjI4Wx27dv23AkrmH9+vXC2ODBgxVJ5ABAXl6eIu04qvDwcGEsKytL0b6ys8VPBHh4eDCZQy7L/4FGwpi2sAzlGcrdY4rPibcG9n8wSrF+iGzBmB2UXFlpaalsAsZUcvfxsLCwGs/nXJpEnDqZ495A/E2JNte1fxEhspUmTZoIYzdv3rThSFzDvn37hLG5c+cq1k9ycrJibTmi+vXrC2MXLii7zObixYvCWIMGDRTti8iR+LcTJ3MAoOjUdUX6qbiZL1tQ2b9dQ0X6IaqJUrsIFRYqWyDcGV25ckWxti5fviyMySVq7uBcmkSslsyRKz4s6Wyzy5R7aDDcAg1vaVZ++Rr09rZ1OZETatCggfDx0FOnTileZM7VnTlzxuDrDRs2ROfOnRXr5/Dhw4q15YhatmwpjMklX8whlxySGweRs/OsFwivhuLlBfkJlxTpJy9B/j0dENtMkX6I7hAVvFXqaZGMjAxF2nFmcgkYJdtq1apVjedzLk0iVkvmqP18hTF9qe2KZnq1aWE4oNWiPEmZm7xdUihzT85JqW92jBUbG2vw9aqqKhw9etSmY3FmRUVFKCgoMBhT+pf+Q4cOKdqepWx9Tbdp00YYS0xMVLQvufaMmQQSObO6PcXvxdv7zyvSh1w7fjEN4RHCpY6kLFFRXKWWR506dUqRdpyZUvfysrIyXL16VRiXm0/cjXNpMsRqBZDd/MXJHN1tZbeLlOP7UCeUJBi+wIsPHoJP+xibjUVpck8/6ZmhdXly2xgqXditJo8//jh27txpMPbzzz/j0Ucftel4nJXcJC80NFSxfgoLC/Hbb78p1p6x7Oma7tq1qzCWlpaGs2fPIibG8vtLZWUl9uzZI4x369bN4j5IOQ0XvwdJZht5Ul7dx9oi45vfDcbyEi6iMrcIHsH+FvWR/fNxYSz4McedR5L9EhXF1ev1yMrKMqrOihylv3RwRr/++ivee+89i9vZv3+/sOB0vXr1EBVlXM0tzqXJEOslcwTLmwCgIjnVWt1W49e9K7I++ZfBWP6WHQh+cSTcfM3fnrc2qb3F29TpCpXdGpccj6+vOKFq6+K1TzzxhLDw7sqVKzFnzhz4+1s22Sb5rSKVTHZ88803ihYGNJY9XdOtW7dGSEgIcnIMb3/8888/K5LM2bdvn+xuVt27d7e4D1KOWwA/x2wt7KnOULmpIekMPJ2nl3Dzh0No9I9+Zreff+gyyq6Li5eGDxMndpUg6XSouFZz7R+PRpFQe4oT3rbkiGO2N3JF9s+fP29RMufSpUuKLwd2RkePHlUkcbZ9+3ZhzJQEDOfS9i0/P7/GubaPjw+CgoIU7ddqyRxNUCA0oSHQZlef6JafvwR9ZSXUMt+yKsUjoj58Oj6A0hOnq8X0JaXI37QdwaOHW30c1uAWFCiMVaak2XAkZI/kbj5JSUk2HAnQtGlT9OzZEwcOHKgWKywsxPLlyxEXF2fTMTkjua0pU1JSFOmjqqoKn332mSJtmcqermngr4nVF198YTC2Zs0axMXFySbYjLFy5UphrEOHDoiIiLCofSJH5xHsj7q92iD3t7MG42nLd1uUzEldtkvcd3gAgrpbt26VvrgEKaMm1Xhck/Ur4NnUPnbVcsQx2xu5grdHjhxBr169zG77m2++MftcV/PVV19h+vTpZp9fVlaGH374QRh/5plnjG6Lc2n79uabb2LFihWyx/ztb39T/P1n1d2svNoarlejLy1FyZ/HrNn1PQKHPymM5az8CuWXxOsY7ZkmMABqH2+DsYqrydCV2P6bc7IfISEh8PPzMxg7c+aMzbelnDJlijA2Z84cPvKrADc3N+Gj2adPn5bdGtNYH3zwQa19o2dv1/Rzzz0njF29ehVff/21Re0nJiZi06ZNwviIESMsap/IWURO6CuMFZ2+jls/mVdPouRyJjK/jRf3+9JjUKmdemNYqiVt27YVxjZu3Gh2u3l5eVi2bJnZ57uahQsXoqzM/Fqvq1atQlZWlsGYt7c3Bg8ebFJ7nEvT/ax6B/Lp8IAwlrPya0g2Kljp37s7PKMNZ7ilyiqkvzUf2nzDRUMtpS8rR+43P6AyzTpV4z0E32hIlVUo2rXfKn2S4xAt86ioqMD69ettOpZhw4bhgQcMfyZUVFTg2WefFS5ZsVRJSQkWLlyo6DaT9kpUIA8Ali9fblHbhw8fxvz58y1qw1L2dE0PGDBA9tvTt99+2+wEmlarxbRp04RxDw8PjBs3zqy2iZxN+NAu8IwwnMgGgAuvfAltsWm1BCVJwvmJ/za8fAuASuOGRpP6m9QmkbG6dOkijB09etTsHSVnzZqF3Nxcc4flcrKysvDBBx+YdW52djY+/PBDYXzkyJGoU8e04umcS9P9rJrMCRj4GFTu7gZjFVeScetj22SGVSoVwl79hzBedSMT15+fZtT6XmNpb+cje+XXuPr0GGQvXW21gsQ+HdoJY9nLv0BVlnXe0OQYevToIYzNnDkT6enpNhuLSqXCkiVLhPGrV68iNjYW586dU6zPrKwsvPPOO4iKikJcXJzNi+TWhscff1wY++ijj3D2rOGlCDVJSEhAv379oK3l4q72dE2r1WrZx6/T09MxZMgQVFRUmNz2pEmT8Pvvhou6AsDYsWMVLWpN5MjUGjc0mylerlCWko0zY/8JSZKMbvPqvB+FS7cAIHL8Y/BqIE4gEVmicePGaNq0qTA+ZcoUk+8ty5cvt/hLHVc0f/58bN261aRztFothg8fjps3bxqMq1QqvPbaayaPhXNpup9VkzluAXXg30dc2Cn/x21Ie3kWyi9aP8Pn2/lBBA57QhivyryF6y++gtxvfoC+zLzEi6TVoviPI0h/631ceXIUclevg66g0NwhG8W/1yPCmK6gENdfmIaiAwk2ewqK7MvQoUOFsdzcXMTGxmLLli0229a5d+/emDhxojCekpKChx56CAsXLjT7ZlFVVYUdO3Zg+PDhiIyMxLx581zqW6inn34abm5uBmMlJSUYOHAgTpw4YXR7Op0O//znP9G/f3+bL2MyxN6u6QkTJshu+56QkIC+ffvi+nXjviwoLCzE6NGjsWrVKuExfn5+mDdvnsljJXJmkRP6wKdFfWH81qYjSHxuCbQl8nM8SafHpVkbcGWuuM6Fm58Xouc6Zr1Fchxy9VSOHTuGoUOHyhbIv6OyshLvvPMOJk2quY4RGTZixAisXbvWqGNzcnLw1FNPGaxtc8eYMWOM3pL8fpxL092sVgD5jpAJo1G0/w9I5YazxyWHjqPk0HFoQkPgXj8Mam9vQGW4LbW/HyLmv2X2WMJemYDyi1dQfvaCwbi+tAzZS1fj9tcbEfD0APh26QTvB1oLCzVLej0qU9NRduY8So+cRHHCUeiLbZut9I5pBc8WzVAhqPujzbmN9Lh50ISGwPvBNvBs0ghqP7+/dsIS/Jzd/P3h31ucJHI2aWlpuHbtmknn3L59WxjLysqS/QAX6dGjB1QqwT+Kmbp27Yr27dsL19BmZmbimWeeQUREBB555BG0adMGgYGB8PX1FY4lKChI9hfqmixevBgnT57EoUOHDMaLi4sRFxeHjz76CC+99BL69++Phx9+GJ6engaP1+v1uHTpEhISErBnzx7s2LEDBQXWWTbpCJo0aYIXXngB//73vw3Gb9y4gYceeghTpkzB1KlThcuEsrOzsXXrVnz66ac4fbp6AfkRI0Zg27ZttbIluD1d0xqNBqtWrUKvXr2ECaT4+Hi0a9cOL7/8MkaPHo0WLarXk8vMzMSGDRuwZMkSpKbK7/j40UcfoV69emaNl8hZqTVuaLd2Ig4/+g6gN/wEzq2Nh1Bw+DKavjUE9Z7rds+W5dricmRvP4FrH25B0Sn55GvrT5+HZ5h411YiJYwfPx6LFi0Sxnfs2IHmzZtj1qxZGDJkCCIjI++Jp6amYvPmzVi2bBkuXbp0T2zcuHFYs2aNVcbtDFQq1T1P8pWVlWHcuHHYvHkzJk+ejH79+kF9X72s7OxsrFu3DgsXLkRGhri8RkhICD7++GOLxse5NN1h9WSOR0R9hE0bj1sffS57nDY7x+DOV3dzq2vZVl5qDw9ELpyL1ElxqJTZHl2XX4DbX36P219+D5WHO9zrh8MtoA7cAusAKjX0ZWXQZuWiKvMWJDMen1da2NSXkDZVPsmlzc5B0Z6DMOZ7dY+mUS6VzPn222/x5ptvKtbevn37sG/fPpPPKy8vF37IWmLhwoXo109+J4/09HR8//33RrXXtm1bi5I5np6e+Omnn9C7d2+cP39eeFxOTg4WLFiABQsWwNPTE40bN0ZwcDBCQkKgVqtRXFyM9PR0pKSkWFSczhm98847+O6774RP0lRVVWHx4sVYvHgxmjRpgnbt2iE4OBiSJOHmzZvIyMjAmTNnhEsSIiIisGzZMmzbts2afw0he7umH330UcybNw+zZ88WHlNUVIT58+dj/vz5aNiwISIjIxEWFobbt28jIyMD165dM2oJyLPPPiv7jRyRKwt6uCWi5w7HlTni9355Wi7OT1qN85NWwysyGO51/aAtKvtr+3FBEuhu9Z7rhshxvZUcNpFBLVu2xPDhw2V3Q7p58yamTp2KqVOnIjg4GGFhYdBqtcjMzBQ+tdOrVy+MHj2ayRwZrVu3RlhYGPbvv7f+6NatW7F161YEBQWhSZMmiIiIQGlpKW7cuIGrV68atRR9zZo1CAkJsWh8nEvTHVZP5gBA4NDBqLh2HfkbTVtvaA2auoGIWvEx0l6ZjfLzl2o8XqqsQuX1GzYYmfl8u3RA8NgRyP3yu9oeCtmhvn374q233pItwmZrYWFhOHjwIAYOHIijR2veZaSioqLWdlByRJGRkdi4cSMGDRoEnU4ne2xycjKSk5ONbtvf3x87d+4U7pplC/Z4Tc+aNQvp6elG1SNIS0tDWlqayX307t2bW8oS1SD67WEoS85C+tqaN4Eov5GL8hvGLx0I6tEaD3w12ZLhEZnkk08+wS+//GLUMufc3Nwal8LUr18fGzZswIULhlcp0F9UKhXWrFmDzp07G3waPy8vD3l5eSYtWweA//u//8OTT4p3WTYF59L2pbS05l2kg4IsezDFEJvsp6hSqVDvjckIfvFvtuiuRm4BdRC1chGChj9lu04VXj5zv9BJLyB08jhAUCuDXNsHH3yABQsWQKOxSf7WKMHBwYiPj5fdZlFp9z8S68z69++P1atXK/pvHhYWhj179qBdO3HhdVuxx2t62bJlePfdd63S9ogRI7Bz506rPL1H5GxiVv0djaaKi8GbI/SJjui0/U2oPQ1v7EFkDZGRkfj2228VWYbfoEED7N27F+Hh4QqMzPk1adIEmzdvhq+vryLtLViwAHFxcYq0dQfn0vYjISFBNu7m5oZXX31V8X5t+q8ROmE0Gn/1OXw6ircstxWVuzvCp09C1L8Xw6t19foFStCEhyL4+f9Bk+9XwUuwNbqSgsc8hybrlqFO/17CXcTIdc2YMQOnTp3C//7v/8JDUAfK1jw8PLB06VIkJCSgc+fOVumjYcOGmDlzJi5cuGAXSQhbGjt2LOLj49GwYUOL2+rduzeOHDkiu12qrdnjNT1nzhzs2bMHjRs3VqS9gIAArFmzBhs2bGAih8hIKjc12nz2Atp9OQnuQZb9Iqby0KD5+/+Djj+9AY2fl0IjJDLeE088gY0bN8Lb29vsNnr06IFDhw6hVatWCo7M+fXo0QP79++3aB5Vt25d/Pzzz5gxY4aCI/svzqVrX1paGq5eNVy/9o5x48bJ7lBnLpt/penVMhqNln+EimvXUZxwBCWHT0KblQ3t7XzoC22/U4p3u9Zo/MVnKDl2Cnk//ISSP49Bqqg0rzGVCl4to+HTpQP8Ho6Fd/sYxQva1sSzSRQavPcmdMUlKD1yEqWnzqEyJRVVmbegzSuAVF4OqbLKpmMi+9GmTRt8++23KCgowJ49exAfH4+kpCSkpKQgOzsbJSUlZm2jbKlu3brh6NGj2LdvH5YuXYqdO3eivNy8XeVUKhU6duyIvn37YtCgQXj00Udt/j60J127dsXZs2exbNkyfPLJJ8jOzjbp/E6dOiEuLg7PPfeclUZoGXu8pvv06YOLFy9izZo1WLJkiVmPNdevXx/jx4/Hq6++isDAQCuMksj5RYzpiZDH2yN54VakrdgDXZHxNSFU7m5oMOpRNJ35DHyjWXCcatfQoUORmJiIV155BTt37jT6vMaNG+Ptt9/G888/zycqzNS5c2ecO3cOc+bMwYoVK4yuLePn54eXXnoJc+bMscrymvtxLl179u7dKxv38PDA22+/bZW+VZIxFRddiL6sHCXHElF+JgnlF6+gKvMWqm5m31PoWOXpAbWvLzR1A+HZNAoezRrDs2kUfB5sC7eAOrU4eiLnUFJSgr179+LPP//EiRMnkJKSgtTU1HtuoF5eXggICEB4eDjatm2LmJgYxMTE4JFHHkFwcHAtjt5+lZeXY8+ePdi3bx8OHjyIGzduIDc3F1VVfyV4PTw80KhRI7Rq1Qrdu3fHwIED8cADtf8kpaM7efIkdu/ejT/++AOXL1+uVmjQ3d0djRo1QrNmzfDQQw+hd+/e6NGjByfeRArSlpQjd9dpZO84iaLTqSi5kA5t4X/fh24+nvBpXg9+MQ0RMuBBhA7qcM9uV0T24ty5c1i/fj0OHDiACxcuICfnvxvI+Pv7o02bNujUqROGDh2KXr16wY0lGBSTk5ODTZs2YceOHUhMTERaWtp/drL08vJCdHQ02rdvjwEDBuDpp5+Gv3/tfYZwLm07Y8aMwddffy2MT5kyBUuXLrVK30zmGEnS6yFVVELlroHKjmo0ELkSvV6PsrIyeHh4wJ1LCRVTUlLCn6mN6XQ6lJWVwdPTkz93oloi6fXQlVbCzdsDKjcmT8kx3bmfeHt7M3FTC0pLS6HRaOxmuXdNOJdWXmRkJNLT0w3GvLy8kJycjHr1rPOEJ7MSRlKp1VB5c600UW1Sq9WKFaKj/+LP1Pbc3Nzg5+dX28MgcmkqtZp1cMjh8X5Su3x8fGp7CCbhXFpZly9fFiZygL+eyrFWIgewcQFkIiIiIiIiIiJH99tvvwljvr6+Vit8fQeTOUREREREREREJpBL5rzyyisICQmxav+smUNEREREREREZCRJkhAaGorc3NxqsYCAAKSkpFh9R1I+mUNEREREREREZKQzZ84YTOQAwPTp062eyAGYzCEiIiIiIiIiMtrevXsNvh4cHIyXX37ZJmNgMoeIiIiIiIiIyEiiejlvvvkm/P39bTIG1swhIiIiIiIiIjKCTqdDUFAQioqK7nk9PDwcycnJ8Pb2tsk4NDbphYiIiIiIiIjIweXl5WHatGnVXu/evbvNEjkAn8whIiIiIiIiInIorJlDRERERERERORAmMwhIiIiIiIiInIgTOYQERERERERETkQJnOIiIiIiIiIiBwIkzlERERERERERA6EyRwiIiIiIiIiIgfCZA4RERERERERkQNhMoeIiIiIiIiIyIEwmUNERERERERE5ECYzCEiIiIiIiIiciBM5hARERERERERORAmc4iIiIiIiIiIHAiTOUREREREREREDoTJHCIiIiIiIiIiB8JkDhERERERERGRA2Eyh4iIiIiIiIjIgTCZQ0RERERERETkQJjMISIiIiIiIiJyIEzmEBERERERERE5ECZziIiIiIiIiIgcCJM5REREREREREQOhMkcIiIiIiIiIiIHwmQOEREREREREZEDYTKHiIiIiIiIiMiBMJlDRERERERERORA/h+dAzMvuP8EzAAAAABJRU5ErkJggg==;" vertex="1" parent="1">
          <mxGeometry x="308.32" y="125.55" width="263.36" height="28.9" as="geometry" />
        </mxCell>
        <mxCell id="-YUloIGHrFb9EOFcItWy-6" value="" style="rounded=0;whiteSpace=wrap;html=1;fontFamily=UGent Panno Text;fontSize=22;" vertex="1" parent="1">
          <mxGeometry x="280" y="160" width="320" height="40" as="geometry" />
        </mxCell>
        <mxCell id="-YUloIGHrFb9EOFcItWy-7" value="" style="shape=image;verticalLabelPosition=bottom;labelBackgroundColor=default;verticalAlign=top;aspect=fixed;imageAspect=0;image=data:image/png,iVBORw0KGgoAAAANSUhEUgAAAlMAAABJCAYAAAAZk6M8AAAgAElEQVR4nO3deVhU5R4H8O/MAMO+DLKGsouIYqZimQaUC7llapbLvbiUpqao1z2uilevVwsz08xcStO6amHXfQlFKUtNwVTQkN0NFHHYYbb7x8iZOcy+wJD+Ps/j88yZOec9L+OZmd95l9/LkclkMhBCCCGEEKNwLV0BQgghhJC/MgqmCCGEEEJMQMEUIYQQQogJKJgihBBCCDEBBVOEEEIIISagYIoQQgghxAQUTBFCCCGEmICCKUIIIYQQE1AwRQghhBBiAgqmCCGEEEJMQMEUIYQQQogJKJgihBBCCDEBBVOEEEIIISagYIoQQgghxAQUTBFCCCGEmICCKUIIIYQQE1AwRQghhBBiAgqmCCGEEEJMQMEUIYQQQogJKJgihBBCCDEBBVOEEEIIISaw0men8v2HUZV2Tus+Xv+YBpt2z5mlUoQQwxw7dgw///wzAMDLywszZsywcI0IIUTh6tWrOHDgAACgW7duiIuLM+j49PR0nD17FgDw2muv4cUXXzR7HU2hVzDVkF+M6t8uad1HWl1jlgoRQgz3008/ITk5GQAQERFBwRQhpNWQSqWIj49HRkYGOBwOMjIyDC7D398fy5cvR0NDA7Zu3Yrs7GzY2to2Q22No1cwxbWzBc/FmfWcTCKBtKq6WSrVXGqvZqPhzj0AgJXADQ5RXS1cI92qq6vx448/Mtv9+vWDp6enBWtEngV03bWcX3/9FXl5eQDkrYp9+/a1cI3IsyA7rxL3HtYDANycrNE13KXZzrV582YmgBo7diy6dOlicBnt2rXD9OnT8cknn6CgoACrV6/G0qVLzV1Vo3FkMpnMmAPrC4uRP+o9Zjvg689gGx5qtoo1h3vLkyE8fBIAYP9CJNptWmPhGulWWFiIgIAAZjstLQ3R0dEWrBFpjebOnctqmbp27ZpJ5dF113LGjx+PHTt2AACio6ORlpZm4RqRZ0Hyjlyc/O0hACAy1Alr5nRslvNUV1cjKCgIpaWlAIDs7Gx06NDBqLLu378Pf39/NDQ0wN7eHvn5+a3mJo8GoBPyFAgJCUF0dDSio6PRo0cPS1eHEEIAAOvXr2cCqWHDhhkdSAGAt7c34uPjAQA1NTVYuXKlWepoDhRMEfIUeP/995GWloa0tDR89dVXlq4OIYSgrq4Oa9euZbY/+OADk8tULmPLli0oKyszuUxzoGCKEEIIIWa3c+dOPHwo70oMDg7Gq6++anKZkZGRiIqKAgDU1tZi8+bNJpdpDhRMEUKeGUYOESWEGEE50HnnnXfA4XDMUu6YMWOYx19++WWr+FzrNZuvJYkfC1FxNBVVv1xAQ0ExxOVCcLgcWLkLYNclAs79Y+D4cpTWMqQ1tXj41Xcqz9fdyGEeN9y5h9KN2zWW4RTdC3adjO/bNcaPP/6I3377jfWcUChkbW/evBlHjx5Ve7yTkxM+/PBDledTU1Nx8qR84H3v3r0RFRWFuXPn4uDBg6itrUVkZCSSkpLw+uuvAwC+/fZbrFmzBtnZ2eDz+YiNjUVycjJCQkLUnvfEiRM4deoUAEAgEGD+/PmQSCTYvXs3tm/fjmvXrqG8vByenp7o1q0b/va3v2HUqFFm+2A9a9avX4+7d+9qfN3b2xuzZs3Su7zmuu40SU1Nxffff4+0tDTcu3cPFRUVcHNzQ2hoKAYPHozJkycbPKg0MzMT//3vf5ntFStWwMrKCjKZDCkpKfj6669x/vx5PHjwAHw+H8HBwYiLi8P06dMRFBSksdz8/HwcO3YMaWlpyMrKQmFhISorK2Fra4s2bdogNDQUcXFxGD16NNq2bau1jlVVVVixYoXK85cuKdLO5OXlYeHChRrLePPNN9GzZ0+t52l07Ngx7N27F2fPnkVJSQlqamrg7u6O4OBgDBw4EBMmTICfn59eZSn7+OOPmdaGmJgYJl/QnTt3sH79ehw5cgQ5OTmor69HmzZt0KNHD4wbNw7vvPMOuNyWu3/PzqvEr1fKAQBWVlz8fYj8by2+X4tDZ0twOVuI0kcNkEhk8HCzQY9Ornh7gC/cXW0MPlfGDSF+vvwIf+RU4JFQhJo6CRztrfCcpy2iOrliYB9PuDpZay3jp98eoOheLQCAx+PgnbjnwLfR/X5dzhYi84bi89q/lwf8vOyY7do6Cb47ekfluJwixWz8ew/rsX1/kcZz9HpegA6BjjrroiwrKwuXL19mtkeOHGnQ8dqMGDGC+Y4rLCxEeno6XnnlFbOVb4xWM5tPJpPh0e4fULbtW0hrtOessu/+PHz/tRBWAle1r4vLynFr4Gij6wIAXgtnwO3NQSaVYaj333/fpCZLLy8v3L9/X+X5pKQkLFu2DIB85tDPP/+MW7dusfbhcrk4cuQIcnNzMX36dJUyPD09cfXqVbU/comJicxAQH9/f2RmZmLkyJFITU3VWNeYmBjs3bsXHh4eBv2NBHj++edx5coVja8bOpuvua67pm7evInJkyczifc0cXJywrp16zBx4kS967B7926MGzeO2a6rq4NEIsGIESNw7NgxjcdZW1vjxo0bKgFVbW0toqOjcfHiRb3Oz+fzMW/ePCQlJWkMGEpKSuDt7a1XeZp88cUXmDJlitZ97t69i3HjxuH06dNa97Ozs0NSUhLmzZtnUB1CQkKQm5sLAFiwYAH+85//4NChQxg1ahRqa2s1Hjdp0iRs3brVoHOZ4mBaCTbuKQAA2PK5+HFdDxz9uRQbviuARKr+Z8/eloeVM8IQHuSk1zmK79di/bf5uJpTqXU/e1seprzVDgN6ab5JKLpXixmrrqFeJAUADOztiZljA7WWW1JWj6krrqKmTgIA6BHhguXTw1g3quUVIoxecFlTEXqZMSYAg/p4GXTM8uXLmdQFnp6eKCkpMakOTXXq1AnXr1+X12/GDKxfv97kMk+fPo1z59gJyufMmQM7OzsNRyi0im4+mViCe8s+woPPtrICKQ7fBtY+XuC5u7H2r/k9E0VT5kL86HFLV/Uv75tvvsGtW7cQFBSEdu3aMc9LpVJMmzaN+WINDg5m3WmXlpZiw4YNOsuXyWSIj49nAikejwc/Pz+VICwtLQ0DBgxAZaX2LyHydDh37hxeeukllUDKw8MDgYGBsLe3Z56rrKzEpEmTsG7dOqPPJxKJ0L9/f62BVON+6gKAhoYGtYGUs7MzAgIC0K5dO9jYKFow6uvrsWLFCsTHx0MqlRpdb1PduXMHffr0UQmkBAIB/P39wefzmedqa2sxf/58g4Oppg4ePIhhw4ZpDaQA4PFjy35fn71Uhk935zOBlL0tD3xr9k9gTZ0Eyzb9iepasc7ysnIrMfuj6yqBlIujFbzb8FmtSjV1EnzyTT72p97TWF47Hzt8MFqRjuTIz6VIv6x5cLVEIsOqbbeYQKqNqw3mjQ9uNS3+R44cYR7HxMSYvXzlMpXPZYrjx48jMTGR9a9GR+NOo1bRzffg869QcewUs80PCYTH1PFw6PkCONbyplFx2SOUf38QZTv2ABIpGopu4/6/18Hv42Uq5fHcXBByRLWbr2TtJlT+JP8yt+scjudWL9FYJ66DvcbXmsuaNWuQlJTEeq64uJg11T0lJQW9evVSe7w+TegSiQSbN2/G5MmTmXMuWLAAAJjEgQcOHMCQIUMAAAsXLsTq1auZ55cvX661/KKiIhQVFYHL5eLDDz/ErFmzIBAIAMhbJubMmcNc+BkZGUhMTMSnn36qs97mIhNLIBOJzFYe167lM/CmpqZCLGZ/2S9btgxffPGFUeU193VXXFyMwYMHo7xc3uXC4/Ewe/ZszJgxgwnoJRIJTp8+jblz5zKtbnPnzkWvXr2YwaaG2Lx5M3755RcAQP/+/TFu3Dh07doVrq6uEAqFyMzMxK5du3QGWw4ODhg+fDhGjhyJnj17wstLcXcuFovxyy+/IDExkVnKZ9euXejZs6faWUseHh5qW/BmzpyJvXv3AgBeeukl7N+/X2N9nJ2dNb4GyFt/Gj/HADBo0CCsXr0aERERAORB3w8//IDZs2cz09U//vhjxMTEYNAgw1via2pqMG3aNEgkEggEAkydOhX9+/eHn58fuFwuioqKcPLkSYsPEhaLZfjsuwJY8Th453VfDOztCYGLPBjOKazGxj0FuJFfBQAQVolxIK0Eo1/XvDzag0f1WPL5TVTVyAMZLhcY/poPhsZ4wVMgD1glUhn+uFmBLSlFyLst/0HeklKEjsFOCAtQ32XW7yUPXPmzAj89yf/0yTf5aO/vCC93vsq+Ow/eZurM5QKL3g2Bs6NqV6KLoxW+W/2CyvOb9hbg7KVHAIDwIEcsmdJe499rb8vT+Jo6NTU1rJuR5lj65cUXX8TGjRsBALm5ubhz5w6ee85yS9pZPJiqybyGR7u/Z7bto7rC76Nl4NqyLx4rdwE8psSDH+iPu//8DwCgKv03VF/IUMlkzuFyYdWkNQsAuEp3ZRxra7X7WJKzs7PKl2VdXR1rWyAQsL7QDeXp6Yn33lN0zyYkJGDp0qXMeaKiophACgBmz57NBFPXr19HQ0MD645ck/Xr16t0F4aFheHgwYOIi4tjxnBt3LgRCQkJWsetmJPwyEncX2l8iwcLj4sO58xzR2QId3d3leccHByMLq+5r7sJEyawAqmDBw8y4/Ma8Xg89O3bF7/88gv69OmDjIwMSCQSzJ49mwmKDPGvf/0LNjY22LVrF9566y3Wa35+foiIiMDYsWNx6tQpuLioZn7m8XhYtmwZEhIS4OqqfjiBlZUVoqOjcerUKfTp0wfnz58HIA9O1AVTXC5X7Xuo3IVgY2Nj9Pt85MgRHD9+nNkeOXIk9u7dy2qp4PP5GDNmDLp164aoqChUVFQAkHeTDBw40OBWjZ07d0IoFCI2NhYpKSkq71VAQABeeeUVLFiwACdOnDDq7zIHsUSGymoxEieHondXAeu1UH8H/HtmB7y37ArKhPIbrbOXyrQGU8nf5LECqaSpYejRif2387gcdA13wdq5HfGP5CzkFtdAKgU27yvE2nkRGsv+YHQAbhZUofh+HWrqJFi17RaS/9ERPJ7i/ybzphB7TyjGTcYPbYuIYPVdk1wuB27OqkGWcqucNU/9PsbKzMxktdBGRkaarWxNZV68eNGiwZTFu/nKlAaK81xd8NzKxSqBlDLn/jFweKk7s12+70Cz1u9p06lTJ5UvV+WB5U0vUC8vL+bHRiwW6zU2JjIyEtOmTVP7GpfLxWeffcbUQSKRYNeuXQb/HeSv4fz586yxc8uWLVMJpJQ5ODiwWtjOnTundXyYJkKhEBs2bFAJpJp69dVX1Q7CdnR0xNKlSzUGUsqsra2RmJjIbBcWFiInJ0fLEc1jy5YtzGN7e3ts3LhRY3AUFhaGxYsXM9v5+fnMJBJDCIVCBAcH49ChQ1rfK0dHRwwfPtzg8s2pZ2dXlUCqkb0tD6/3UQxFKLhbi/oG9d21N/KrkHmjgtkeN8hPJZBSZsvnYeYYxdinrLwq5N3WvBSbrQ0Pie+FMsHOjfwq7DhYzLwurBJhzVe5aBzt3K2jC0b199FYniU0HbOpafKSKdq3Z7ekXb161eznMIRFgynRvRLWAspub78BnrPugX8ug/oxj6svZkAmkTRL/Z5G6u56lQeB+/iofijbtGnDPNZnEOG7776r9Q43LCyMNSPphx9+0Fkm+WtSDoycnJwwZ84cncdERUUhLCyM2VZubdFXx44dWS2wza1pF2jTCR7NTSQSscaNvPHGGzpnRL777rusLtqUlBSjzr1q1SrWmLfWqt9L2ie7RCgNOpfJgPsP69Tudzhd8R1ob8vD8L66JxWEBTjCz0sxJOBSllDL3oC/rz2mvePPbO89fg8Z2fJjPt6Rh0dPWtDcXawxf0LrGSfVKD8/n7Xt6+tr9nPY2trCzU3Ru1RQUGD2cxjCot18NRnsSNIptrdex9lGKL5oZbV1qM8vgm2I9lkPRE7dmAsnJ8WXiLouD0dHRf9+dbXuxa1jY2P12qdxOn5WVpbe3Yemco57FU7R6sf+EPNTXmcuLi5O7x/dqKgo3Lx5EwBU0jboo3HJiZYiEAjA4XCYfDePHj1q0fM3dsE36tevn5a95dzd3dG1a1cmNYPyNHZ9OTs7Y9iwYQYfZwm6pvY3TYnQOLC7qT/+VAw479bRBbY2+o0nCgtwxO0SeYCW/WSskzYDenniys0KnLogH4S+5utcxL3sgYvX5AP5uRz5OCkXNeOkLE25B8PFxQXW1s1TRw8PD2YIgT69JrosWbJEZUJG45hfXSwaTNVev6nYsLICz9kJ4sdCQDlbg/IMVg1ZHMQPywAKpvSi7qJWfk7d61ZWisukvr5ea/kcDkel+VUd5ZYHsViMnJwcZpBsc+La2AAtELQR4OHDh6y7xZCQECY/UWPQoZyZRfmxcoCvLaeWJpoGyxsjLy8Pe/fuxfnz55GdnY3Hjx+jurpaJVGg8raumW3mlp2dzdoODw/X67jw8HAmmMrKyjL4vN27d2+2H0pzc3fRXs+mOZ3q1HTzCatEKClTfAf6ethCWCVvJVL386T8nJ2tovzGliVdZo4JxJ+F1bhdUofyChG+O6r4LPxtiB86hWifkGApyjPgmrPVUnm8oT43+rrY29sbXV+LBlOScqWpsmKx0bmhpBW6o3wip27mFY/H0/v1prPImnJ1ddWrhalpF0Tj3QV5ejx48IC1vWrVKqxatcrgcoy5NswxoaG0tBQJCQmsZKD6krTw0IOm75G+g9iV815VVFRAKpUalFizpSaOmIpvzTVLV5iwkv39t+f4Xew5bniwX1WjO/UCIB9v9eF7oUhYfQ0NIkVk9kK4C94eYP6uM3MRKc2YVv79MDflG32RGWdpG8OywVSleYIgc051f9qp+0JRfk7X67roG9U33a9xVhF5epgrQNbVGqqOrhQCuty9exfR0dEqY598fX0REhICZ2dnlR+J//3vfyad0xRN87Xp+zlU7sIH5FnaDXnvTH2fWwrHTKOD9Q2CdBGJ9M9FFuBrh9B2Drieq/i97PtiG3C5rWuclDLl6685W2mVyzZlRrM5WDSY4iq1YFi1EcB5gO6xNurYBPnr3om0CF0tV42a3kW0VFdBTeY1CA+fNE9hXC58FiWYp6ynkK0tOwfXiBEjEBAQoGFvzfQds6DM1Otp2rRprEAqPj4eixYtYnVPK5PJZODxeBZbI6xpa7C+n8Omgaqh4xb/Kl185mLTJMln764CeLkbPmzAyUH/n94ffrrPCqQA4PM9BegU4sTktGptlGd2NmdiZuWbcHXjfVuSZYMppZl7PBdneM5sudk3pHno28LU9APWUh+EhqLbEB4wfHaYWjwKprRpGgSNGTPG4tPj9XHr1i1WK9P8+fOZXGuaVFZWWnSx1aafH6FQqFfOHeXPq5WVlUoATNiaBkGxPdzxsoZ0C+aQlVuJ7T8q1szjW3NRL5KiqkaCf2+9hY//EQ4rnsUzHKlQvmlqaGhAWVmZ2vx4ppBKpbh3T5FR3pgbNXMy+n+hadePTGb4Ego2fopp+KKSB61i5WdimtraWiazsjZNp7GqS8lA/tp8fX1Zy5cUFhZasDb6a0woC8hbapRzSGminHXcEpp+fvStT+Mae+rKIKoELtawtlL89pU8MrwLWl8VVSL8e9stNOa+7NLeGWvmhIP3pHvvRn4Vtu0v1lKC5TTNK9Ucn/27d++yxiY2Ry4rQxjdMsVt0icvrVGfk0Mbuy6K2VvSqmrU5+TBtn2wsVXSTSmC/6vkplIeYAfo33xvSZcuXdKamBFgT8MWCASsdQCbEz84EIKxI8xTWCvL7WJO5rjubGxs0KNHD2aplbS0NMyePdss9WtOt2/fZh4HBgayZhZqkp6ebvT5lN9rYz/fXbuyV4G4cOECBg8erPUYqVTK+hy+8ILqkiOEzdqKi/b+jrieK29Z/+PPCgx/zfxBqEwmw0df5+JhuTzdhbODFRZMDIbAxQYThrXF1hR5a9X+1PuIDHXGS10MX81DecyVpoWfjdWtWzfW9rVr18x+fTVN0tm9e3cNe7YMo4MpnqszYGUFPPnwNxQUwaF7F4PKsOvcEVxnJ0gr5Bdm+d4D8Elsvi9b5fX2JOXak6a1Fk0HeDadIdUa7d+/X2swJRKJWIkYe/fWL7+YOdhFhMEuQv24F6Jgrutu6NChTDB1+PBhFBQUWLw5XhflZTCaLqujjkwmY2UfN5Tye23s++zt7Y3AwEAmWWJKSorOdTTT09NZrcgvv/yyUec2N7FYrLIcT2xsLN5++20L1YjtxUhXJpi6cO0xSsrq1a6dZ4p9J+7h4nXFb9Tc+CBmLcERfb2RcUPIJP5M3pmLjYs7G1wHezvFBAphlXlv0tu2bQsfHx+mG+7SpUv4+9//btZzKN8I2NnZoXPnziaXmZ2djW3btrGemzBhgl5pe4zv5rOygm2YollNeaFifXH5NnAbqbh7Eh46gapff9f7eJlEgoai27p3fMLGTzGVtKH4DkSlD/U+1lKcnJxYGcibrgbfGu3cuRPFxZqbn7dv38760TD3h4yYzlzX3eTJk5kZYxKJBPHx8QZNYc7Pz9croDGnxsWXAXn3hK5s5hs2bDBpKQvl7omcnBzcuXPHqHKUE5Vev35d68oCMpkMy5YpFonncrkYO3asUec1t8bF2JX/mdLyZ24D+3jCji//6ZRKgY935EIs0X+Yy/2HdWjQMpvv2q1KfH1A8f35RqwXojorWp44HA7mjQ9m1tKrqpFg5ZYciMSGDbXx9VCMj7tTWoeHjxu07G24AQMGMI/Pnj1r1rIB4MyZM8zjV1991SxJn/Py8pCcnMz6p+9qBiaNXHN5/TXmce3VbJSs3QRpjWHTIAVjR8La50lOFJkMd+Yn4fGPRyGTar4wxGWP8Oi7FOSNmIhH3+q/BILd850UGzIZ7v1rLSTC1j8lv0+fPszj7du3G73sQ0upr6/Hm2++qfYu+9y5c6wlRUJDQzF06NCWrB7RkzmuOxcXF6xcuZLZPnv2LPr166d16QepVIpTp05h9OjRCAkJgVDYsq3Iffv2ZW1PmjQJVVWqaVxkMhm++OILzJo1y6TzKb/PMpkMEyZMQFlZmcHlTJ48mdXKNXHiRLXZ48ViMRISEljZ6ceOHdssS348jRzsrBD/hmJYwtWcSiz+9AYrmWdTUqkMmTeFWLXtFiYuuYLqWvXDTIRVIqzamsOMkwrys8ekN9up7OfqZI354xVDYv4srGa6/vTVKYS9fM7anXmoqDJfmiHl7/UrV64YdU1rUl9fz1oAfciQIWYr21gmzeZzGToA5d8fQEOBPIou3/M/lP9wGNYe7qzxSe7xb8N1aJzaMniODvBd9SGKps6HrLYOsgYR7q/6FGU798KxdxRsAtuB5+AASVU1RLfvovaPLHnmdC3Blia2IYGw7xaJmkt/AABqLlzGrUFjwW8fBJ6rCzhKeWNcRwyC44uW7YNtlJCQgP379wOQfxGOGDECbdu2RYcOHWBnZ8dMBnB1dcXXX39tyarC2dkZMpkMly5dQseOHREfH4/OnTujvr4eZ86cwZ49e5hBgxwOB59//vkzN73aWDk5OazARNnFixeZx7dv38b48ePV7jd06FC9Z9SZ67qbOXMmfv31Vyb55ZkzZxAaGoq4uDj06dMHPj4+kMlkKCkpwe+//44zZ87otQZkcwkNDcXw4cOZ4PHs2bMIDw/H+PHjERkZCalUitzcXOzbtw+ZmZkA5IHMtm3bjErW2blzZ8TExDDBzcmTJ+Hr64vnn38eHh4erDFVU6dOZd3xK/Px8UFycjKzJmFFRQV69+6N4cOHIzY2Fk5OTsjPz8d3333Hypju6emJtWvXGlzvZ9mwWG9k51XhzO/yAOGPnEpMXHIF3SNc0CnECQIXG8hkMpRXiJBTVI2rOZUor9AeqMhkMqzZnouyJ9nR+TZcLJoUopKOoVHXcBe81d8H+07Iu9L+d7oEkaHOes8uDHzOHpHtnZjlcS5nCzF2UQaC/Ozh4mgNHk8xpmrQK57o3lH3ot/KBg4cCFdXVzx+/BgymQwHDhzAhAkTDCpDkxMnTjBZ1q2trXUuaN4STAqmuHwb+CUnofiDRRDde/LlJxYrHj8hrdSe5t0uvD38t6zF7X8shbhE3pohunMP5XvMnwTPZ+k8FM9czASAMpEIdcrL2jzh0Kt1BFIAEB0djdWrV2PhwoXMjMfi4mKVrjR9sx43Jzc3N6xatQpjxozBw4cPkZycrHHfTZs2qbQCEM1KS0uxY8cOnfsJhUKN+/n5+ekdTJnzutu9eze8vb2xbt06APLg7NChQzh06JBedWlpW7ZswfXr15n1AW/fvo0VK1ao3TcmJgbr169XGWthiJ07d6J///64ceMGAPl08gsXLqjsp2tix7vvvosHDx5g8eLFAORdZvv27cO+ffvU7u/t7Y1Tp06xunSJfhZMCIbA2Rr7T8nXhJNIZTh/9THOX32s40j1/nvsLi5lK1php73tj7bedlqOAMYPbYs//qzAzQL5b2zyzjwE+dnDx0O/FBfz4oOx+LMbKL4v70oXiWVMWcq6RxieuobP52P06NHYtGkTAGDfvn1mC6aUr+fBgwcblYtOncblrpSFhobqdazJCSps/HwR+O0XaDN1PGw7hLIGeRvCNjQIQXu2wGP6RFi10f7GcOxs4di7J3yWL4DnrCkGncfaywMBOzbAe/EsOLwcBSsvD3DsWn9ulfnz5yMjIwPTp0/HCy+8ADc3t2ZN02+K0aNH4/Dhwxrz3ISGhiI1NRVTphj2f0danrmuOy6Xi08++QS//fYb4uLidJYRHh6OefPm4dq1axa5SRAIBLhw4QImTZqkMrOxkbu7O5YvX46ffvqJlQLCGG3btsXly5exZcsWDBo0CG3btjU6o/OiRYtw+vRplRlVyvh8Pt5//31cvXpV73X8CBuXy8GUt/yxbn4Euke4QDobSCcAAAMMSURBVNcqPO287TCynw82/7MzM96p0R9/VuCbg4rxv690E2BAL8+mRajg8ThYNCkE9rbyz1NNnQQrt+o/fspDwMeGRZ0xa1wgojq5wsPNBrZ88+WtSkhQ5OE7fvy40eMBlVVUVLDGA5pzhnDTsaGjRo1Cx44d9TqWI2ulyZ3q8wpRl/UnxI+FkFZVg2tvB6s2AvAD/cEPDQRHwxccaXmJiYlM95O/vz8zHqZx7EtWVhbKysrg7e2Nbt26ISoqypLVJa1ARUUF0tPTUVhYiAcPHoDD4cDV1RXt27dHly5dWlXOo9LSUpw5cwZ5eXmoqamBj48PgoKCEBsb2+q7qAsKCpCeno779++jqqoKnp6eCAoKQkxMDGuRWGK66loxrt+qRMmjBgirROAAcLC3gp+nLYL87JnZeM+aIUOGMC3QSUlJWLJkiUnlbdq0CdOmTQMgT8Hw++/6T1rTpV27dkzLO4fDQVZWFjp06KDXsa02mCJ/HZqCKUIIIc+2jIwMJseUp6cnCgsLjc60L5VKERYWxsywO3r0KOLi1I/HNlRubi5rZu24cePwzTff6H1868tDTwghhJCnQteuXTFy5EgA8lber776yuiyUlJSmECqd+/eZgukAODUKUV6Jx6Px0odog8KpgghhBDSbD766COmNWrFihWorTUshRIgn0zR2EXI4XDw6aefmrWOqampzOPx48cjONiw1VgomCKEEEJIswkICMA///lPODg4QCgU4ssvvzS4jD179qCoqAgODg744IMPzL48TePgc2tra6PGddGYKWIyGjNFCCHkr0okEjFZ2l1cXIxa54+mxBFCCCHkmWVtbY3XXntN945aUDBFTObj44MuXeSLXNOSFIQQQp411M1HCCGEEGICGoBOCCGEEGICCqYIIYQQQkxAwRQhhBBCiAkomCKEEEIIMQEFU4QQQgghJqBgihBCCCHEBBRMEUIIIYSYgIIpQgghhBATUDBFCCGEEGICCqYIIYQQQkxAwRQhhBBCiAkomCKEEEIIMQEFU4QQQgghJvg/9+yscc2fM8AAAAAASUVORK5CYII=;" vertex="1" parent="1">
          <mxGeometry x="299.6" y="162.78" width="280.79" height="34.45" as="geometry" />
        </mxCell>
        <mxCell id="-YUloIGHrFb9EOFcItWy-8" value="" style="rounded=0;whiteSpace=wrap;html=1;fontFamily=UGent Panno Text;fontSize=22;" vertex="1" parent="1">
          <mxGeometry x="279.99" y="200" width="320" height="40" as="geometry" />
        </mxCell>
        <mxCell id="-YUloIGHrFb9EOFcItWy-9" value="" style="shape=image;verticalLabelPosition=bottom;labelBackgroundColor=default;verticalAlign=top;aspect=fixed;imageAspect=0;image=data:image/png,iVBORw0KGgoAAAANSUhEUgAAANwAAAA5CAYAAABd00WwAAAOXklEQVR4nO2de3QU1R3Hvzu7m81usslmSXYJSUCeQR7BGgkaQwVLpLxsEcVKeWhFQKjKQQPUYEvwcCgR6qEENdWmVsAeoSIFCVUMRKUCCoR3eAQICZD3O/ve2ds/ApOd3dlXEnY3cD/n5Jy58/vd3/3N7vzuvfO7dzYiQggBhULxC0ygHaBQ7iVowFEofoQGHIXiR2jAUSh+hAYcheJHaMBRKH6EBhyF4kdowFEofkQSaAco7jGcOY/Wg0cAACKpFNEvzgiwR5TOQAMuyDEWX0LdP/4FABDJQ2nAdXPu6YAznC6G+UYFAECijkJYys8C7NHdiU6nw86dO7lyeno6NBpNAD0KHPd0wDV+kY+mPfsAAIoHk2jA3SFqa2sxc+ZMrlxYWHjPBhxNmlAofoQGHIXiR2jAUSh+hAYcheJHfE6a6H4qgu7HIgCAYsRQhA5JRPVfP0TrwSMgJhNkA/oi+qVZCE8dCQBo+uoA6jdvh7m0HCKpFIqHkqB5dR5CEnq5bcd8sxK6Q0ehP34K5qtlsFRUw6bXQyQLgTgyAiEJcQh75CFEPDEGUm2MW1s2vQG1t1Lr9hjPX2pv70YFqjflubShfCwV8mGD3bZjDyEEukNH0XrwCPRFp8HWNYBtboFIKoFEGwP5/YOgHJuG8J8/DJHE99yV6Vo5Gj//Erojx2GprAaxspBqYxCeOhLqOc9CGtPDZ5tdwc6dO3H48GHeuaamJl45NzcXe/fuFayvVCqRmZnpdL6goAD79rUluNLS0pCSkoI33ngDu3fvhsFgQFJSErKysjBhwgQAwKeffors7GwUFxdDJpNh7NixWL9+PQYMGCDY7tdff439+/cDANRqNZYuXQqWZbF161bk5eXhzJkzaGhogEajQXJyMmbNmoXp06dDJBL59PmIfH3ju/ajLaj9cAsAIHJyOvQnz8JSfpOvxDCIf3cVLNcrUPXOJicbYrUKfbd+AIla5SSzGU0oezkDxnMXvbuAECnUM59G9EuzIGKEB2xrXQNKJj7nlT1XaJe/gqipk7zS1Z88i6p178F08bJHXYk2Br1WLYPigWGC8obtu1G1ru0zFMlDkVi4E40796IyOwdgWcE6jEKBhL+uhnz4/V7525UsWLAAubm5Ha6v1WpRWVnpdD4rKwsrV64EADz//PM4ePAgSkpKeDoMwyA/Px+XL1/GokWLnGxoNBqcPn1aMEO6YsUKrF69GgDQp08fnDhxAk8//TQKCgpc+jpmzBhs27YNMTHuO3yej15rCtC0twCW8puQxsVC0tPuImw2VGVvQvXGjwAA0vhYSOxGIba+EQ3bdwnaJFarYLAxYQpIY7WQ9NRAJJW265stqMv7FypWrQOx2TpzOV1CU34ByhYucwo2RiGHNFYLsVoF2HUM1qoaGM+XOJpxSXPBd6hcs4ELNiZMAZFMxtOx6fW4nrESbKuuE1cSvGzevBklJSXo168fevfuzZ232WxYuHAhMjIyAAD9+/dHQkICJ6+urkZOTo5H+4QQzJkzhws2sViM+Ph4p0AtLCzE+PHj0dLS4rXvnVuHY23oufxVqKZOBADUbd6Ompy/AwAstxaU49athHL0wwCA6k15qP9kGwCg9fvDiJk/26VpkTwUyjGPQvl4GuRDB0PSI4qTESsLw6mzqPngnzCcPAsAaN67H/KhgxH1zJNOtsRRkRiQ7zylrPrL+2j55jsAgHz4/Yhb+0eX/jBhCtefwy10R0+iYtU64PakQcxANXUiop6aDFn/+zg9m94A3U8nUL/135z/3kAsVlT+eSMgkSD6hd9ANXUiJD3UANp2pFS+swnGs+cBAGxDExq270L0C50b2X0lOzsbWVlZvHPl5eUYOXIkV96xYwdSU1MF6zMuZin2sCyL3NxczJs3j2tz2bJlAIArV64AAHbt2oUpU6YAAJYvX461a9dy51etWuXWfllZGcrKysAwDDIzM7F48WKo1W2f84ULF7BkyRLk5+cDAIqKirBixQps2LDBo98AAOIjNR9uJsUp40lxynhy8ZfPEpvNxslYk4mcHz2Fk1994VVeXUttPScrfmQisZnNTvZZnZ7UfLiZWJtbPPpis1jI1Rde42yW/Gq2T9dyM2sdV/faggyf6jrCGgzk4oTfcPbOj55CWg8f9VivcffXpGHHHpfy+m272j+zW3/NBd8L6lpbdeTSpBmc3pUZCzp8PV1JaWkpAcD9FRYW+mxj5cqVXH2NRsO774xGIwkNDeXkKSkpvLqVlZWcTCKREJPJ5GQ/MzOT5yMAkpOTI+gLy7IkPT2d0xOLxeTy5cteXUenppSyfvfxHhqZkBCExLcnQ2QD+vL0JT2iwISHtRVYFta6BiebjEKO6LkzIVaGe2xfJJEg+nftPbilogrmshu+XkaX0PTlPrB216N5ZS7CRiV7rBc5OR2Rv57gdTvhaaOgfDxNUCYOU0BlZ8t0uRQ2o8lr292FYcOG8e47mUzGS4YkJSXx9LVaLSIjIwEAVqtV8BnRkaSkJCxcuFBQxjAMNm7cyPnAsiy2bNnile+dCjihpIdYFdkuvzXd4csjuGNrvXPA+Yp8+BBe2Xz9pgvNO0vjf/7LHUs00VBNm+x1XV8yXZGT0t3K5UlD2wuEwHLT883V3dBqtU7n7BMXsbGxTvLo6GjuuKqqymMbc+fOdfu9JCYmYtSoUVz5888/92gT6GTACT3XMGFy7lh8ezSzl8vb5cTQ+d5XHKkE7D4Yttn7B9iugm3VwXTpCleOeGKMy4xpZwn1sDQhcVgOsOn0d8SPQBIREeF0TqlUcse3RzN7wsPbZ0w6nedk0tixY33SOXfuHMxms8c6nUqaCK0ficR25yRiAXn7OZvFvYPmGxVo+eY7GM5egLm0DGyLDsRoBHFcybArE5Pni+5qjOdLeD7Ih925dLxjQDnCOGYsjcY75kugkNplqYXOCckldveqyeS+oxeJRBg0aJBHPxITE7ljq9WKS5cuYejQoW5qdDZLyQgMueL2nl2wl7eTgxVO41vrG9syiPu+9dklYhNem7qTsI38hV1prPOUpysQyWSep5++rcN2S4QymWK7jtyT3Gq1urWvUqkQEhLi0Q/HZYKGBs+PSJ18PUfg2+XdEELfvvs7wlJTh7KXM5wW0yUxPSCN7wVxmIK3jgUArd8d8tLfO4OtpZVX9mYJoUMIdXD3IEKdjv05T3JPKBTefX+Oes3NzR7rBN37cFXZObxgi5yUDvWc6ZD1SRDUJ4TgwiMTeVM6fyMK4U9hiNUSIE8oXYGnEfA2Fgv/exaayjoSVAFnLr/JG63Us56B5vcvuq1j0+sDGmwAwEQoeWW20XNPRwlevBmpADjtMBFK1jgSVG8L6H48zh2LpFL08GKXhOVG4NPeIXH8NLTRLmNJ6X4YDAZUV1d71CstLeWVhZYjHAmqgLNW13LH0l7atuc1D+hPnOl4g3YJHOJiI7A3hPTtDSbCLu186GjHfboLkThks72dsgWSY8eOedQ5frx9gFCr1bx9m64IqoAjpD1rScyen4MIIWiyW3D2FfvkBtvQ5EbTPSKRCOGpKVxZd+gozGXXO2zvbsNx3aympiZAnnjPF1984VZusVjw1VdfceW0NOHdP44EVcBJte1pVktFFcyOr/040LB9F0wlVzvcnv02NHP5DVjsRlhfUc94qr1ACCre/gtsXiyEEosFpqtlHW63O6BUKnk7PQ4cOBBAb7zjk08+QXl5uUt5Xl4er+OYPdv1Rnx7girgwkbyfzWrYvW7sOkNTnqEEDTs2IPqdzv+3hUAyO3fQbsVJGxTxxIeoYkDeNuuDKfO4frit2CpdP0sYCi+iGvzM6A7ctylzt3C6NGjueO8vDzs2LEjgN54xmQyYerUqYKj8Q8//IAlS5Zw5YEDB+LJJ53fUhEiqLKUIb3jED72UbQe+B8AwFB0GleefQmRk9PbNkLbSNvuk4LvuffNVL+eiMbd/3W5iO6O0AF9oUhOgv7YKQCA/sfjKJn0W8gG9YNYFcnbFaOaNgnhDz/k1p526SIYL5Rwo67+2ElcmT4X4akpkD8wFOIoFYjBCEtlNXQ/FnGv0kQ8McZn37sbr732GjdNs1qtmDZtGhISEjB48GDI5XJunUylUuHjjz8OpKuIiIgAIQTHjh3DkCFDMGfOHAwfPhwmkwnffvstPvvsM7C3nvlFIhHee+89r5YEgCALOACI/cNiXLtyDeZrbc9A1upa1OU5v8sGAIrkJGheX9AWcB1t708ZKH/1TZhL26YPxGKB8ewFJ72wVPfBBgBMaCh6/20dbmau4RInxGRGy4GDaDlwsMM+3g089thjWLt2LZYvX85tzSsvL3eatgltTPY3UVFRWLNmDWbMmIHa2lqsX7/epe7777+PcePGeW07qKaUQNtm5D7/2IDIJ8cDYue9mG06EYieNxsJG9eA8WILjjuk2hjc988c9HxzMcIeTYFEGwORPLTD9sRhYYh/923ErX0LssT+bnVD+sRD8/rLUD01scPtdSeWLl2KoqIiLFq0CA8++CCioqJ4W66Cieeeew579uxBXFycoHzgwIEoKCjA/PnzfbLr82+a+BNrfSP0RadguVEJm9EESbQaIXE9oUge0aEf3gkE1tp66E+cgbWuHmxjMxiZDBJND4QOSYTsPs9pZIp/cPxNk9trbDabDfv378e5c+dQV1eHnj17Ijk5GSkpKe7MuSSo71qJWoWIX/w80G50Ckm0GhHjuvc13MswDINx48b5NG10a69LrFAoFK+gAUeh+BEacBSKH6EBR6H4ERpwFIofCeosJYXiL2JjYzFixAgAQK9e7v/vRWcI6nU4CuVug04pKRQ/QgOOQvEjNOAoFD9CA45C8SM04CgUP0IDjkLxIzTgKBQ/QgOOQvEjNOAoFD9CA45C8SP/B/rlUKNME6xFAAAAAElFTkSuQmCC;" vertex="1" parent="1">
          <mxGeometry x="384.99" y="205.75" width="110" height="28.5" as="geometry" />
        </mxCell>
        <mxCell id="-YUloIGHrFb9EOFcItWy-10" value="" style="rounded=0;whiteSpace=wrap;html=1;fontFamily=UGent Panno Text;fontSize=22;" vertex="1" parent="1">
          <mxGeometry x="80" y="320" width="320" height="40" as="geometry" />
        </mxCell>
        <mxCell id="-YUloIGHrFb9EOFcItWy-11" value="" style="rounded=0;whiteSpace=wrap;html=1;fontFamily=UGent Panno Text;fontSize=22;" vertex="1" parent="1">
          <mxGeometry x="480" y="320" width="320" height="40" as="geometry" />
        </mxCell>
        <mxCell id="-YUloIGHrFb9EOFcItWy-23" style="rounded=0;orthogonalLoop=1;jettySize=auto;html=1;exitX=0.25;exitY=1;exitDx=0;exitDy=0;entryX=0.5;entryY=0;entryDx=0;entryDy=0;fontFamily=UGent Panno Text;fontSize=22;fontColor=default;" edge="1" parent="1" source="-YUloIGHrFb9EOFcItWy-13" target="-YUloIGHrFb9EOFcItWy-21">
          <mxGeometry relative="1" as="geometry" />
        </mxCell>
        <mxCell id="-YUloIGHrFb9EOFcItWy-13" value="" style="rounded=0;whiteSpace=wrap;html=1;fontFamily=UGent Panno Text;fontSize=22;" vertex="1" parent="1">
          <mxGeometry x="480" y="360" width="320" height="40" as="geometry" />
        </mxCell>
        <mxCell id="-YUloIGHrFb9EOFcItWy-15" value="" style="endArrow=classic;html=1;rounded=0;fontFamily=UGent Panno Text;fontSize=22;fontColor=default;exitX=0.25;exitY=1;exitDx=0;exitDy=0;entryX=0.5;entryY=0;entryDx=0;entryDy=0;" edge="1" parent="1" source="-YUloIGHrFb9EOFcItWy-8" target="-YUloIGHrFb9EOFcItWy-10">
          <mxGeometry width="50" height="50" relative="1" as="geometry">
            <mxPoint x="390" y="310" as="sourcePoint" />
            <mxPoint x="440" y="260" as="targetPoint" />
          </mxGeometry>
        </mxCell>
        <mxCell id="-YUloIGHrFb9EOFcItWy-16" value="" style="endArrow=classic;html=1;rounded=0;fontFamily=UGent Panno Text;fontSize=22;fontColor=default;exitX=0.75;exitY=1;exitDx=0;exitDy=0;entryX=0.5;entryY=0;entryDx=0;entryDy=0;" edge="1" parent="1" source="-YUloIGHrFb9EOFcItWy-8" target="-YUloIGHrFb9EOFcItWy-11">
          <mxGeometry width="50" height="50" relative="1" as="geometry">
            <mxPoint x="499.99" y="270" as="sourcePoint" />
            <mxPoint x="379.99" y="350" as="targetPoint" />
          </mxGeometry>
        </mxCell>
        <mxCell id="-YUloIGHrFb9EOFcItWy-17" value="" style="shape=image;verticalLabelPosition=bottom;labelBackgroundColor=default;verticalAlign=top;aspect=fixed;imageAspect=0;image=data:image/png,iVBORw0KGgoAAAANSUhEUgAAADYAAAAvCAYAAAConDmOAAABEUlEQVRoge2YMQqDMBSG/1ZHNwdXwdUbmMHdI+Q4XsNj6ODm4l10FUIWMR1aBNFO7Wt54X2QIQnyv488JHpzzjl4yP3fBVAhYtwQMW6IGDdEjBsi9inWWiiloJRCXdfkeSF5wott2zCOIwAgTVPyPG9b8WcnFoYhtNYAgKIoyPNu8tnCDLJWnKYJXddd7mVZhrIsqaKfOCKGYXAALofWmip2h+zE4jhGVVX7fF1X9H1PFXeCTCzPc7Rtu8+NMYiiiCruhLcvDxHjhohxQ8S4IWLc8FaM5EplrcWyLIc1Y8xhf57n03NJknyvCIqbddM0b2/270YQBF+twdtWlF8D3BAxbogYN0SMGyLGDRHjhrdiD0lRq885VHzfAAAAAElFTkSuQmCC;" vertex="1" parent="1">
          <mxGeometry x="568.97" y="265.01" width="31.02" height="27" as="geometry" />
        </mxCell>
        <mxCell id="-YUloIGHrFb9EOFcItWy-18" value="" style="shape=image;verticalLabelPosition=bottom;labelBackgroundColor=default;verticalAlign=top;aspect=fixed;imageAspect=0;image=data:image/png,iVBORw0KGgoAAAANSUhEUgAAAvMAAABkCAYAAAAL+b8FAAAgAElEQVR4nO3dd3gU1foH8O+WbHoPIYVQhYsSkN5CpIOGEkApCoqFIghKEZCOgAK/C6KIhqKCisBFQGoQgdC5UkNVSOgIhJCeTc/u/v7gJmQzs8nuZjfZCd/P8/g85szMmQMJs2/OnPO+Mp1OpwMREREREUmOvKIHQERERERE5mEwT0REREQkUQzmiYiIiIgkisE8EREREZFEMZgnIiIiIpIoBvNERERERBLFYJ6IiIiISKIYzBMRERERSRSDeSIiIiIiiWIwT0REREQkUQzmiYiIiIgkisE8EREREZFEMZgnIiIiIpIoBvNERERERBLFYJ6IiIiISKIYzBMRERERSRSDeSIiIiIiiWIwT0REREQkUQzmiYiIiIgkisE8EREREZFEMZgnIiIiIpIoBvNERERERBLFYJ6IiIiISKIYzBMRERERSRSDeSIiIiIiiWIwT0REREQkUQzmiYiIiIgkSmnqBZqMDOiyc026RuZgD4Wzk6m3IiIiIiKiEpgczD/++nuk/BZp0jWeA/ug6oT3Tb0VERHRM2vy5Mk4cuSIXtunn36K7t27V9CIiKRLrVajS5cuem0KhQLHjx+voBFZjsnBPBFVDhqNBpcuXUJ0dDSio6Px4MEDJCcnIyMjA25ubvD09ERgYCBCQkIQEhICPz+/ih4y0TMlJiYGJ0+e1GtLSEiooNEQSZtGoxH8e1IoFBU0GstiME/0DMnPz0dkZCS2bt2KXbt2ITExsdRrli5dCgDo2LEjJkyYgB49ekAmk1l7qERERGQEk4N5hbsb7PyrGjyuSVdDq84o06Aqi/zEJCT9skWvTe7mCp+3B1XQiCpWXFwcFi9erNfm5eWFadOmVdCInh3x8fFYsWIFVqxYgYcPH5rVx8GDB3Hw4EGEhIRg3bp1qFmzpoVHSUREpsqLT0DurbvQpKZB7uQIu0A/2NeqUdHDonJkcjBfZdTbqDLqbYPHE9ZsQMKKH8s0qMpCk5ouCObt/Ks+s8F8YmIilixZotdWo0YNBvPlYPXq1Zg9e7ZF+jp+/DgaNWqEzZs3o1u3bhbpk4iIjKfT6ZAedRSJP/4HOdduCI4rq1aBR78e8BrUB3IHhwoYIZUnpqYkokIqlQr+/v5wc3Mr8bz09HT06dOnUmwcIiKSEk1GJv6ZMAsPpn0uGsgDQP6jx0iIWIubA0cgO/ZmOY+QyhvXzBM9o2QyGV566SV06dIFHTt2RHBwMNzd3QuPp6Sk4PDhw/jmm2+wb98+wfVZWVkIDw9HbGwsPD09y3PoRETPJG12Du598Amy/44x6vz8uHjcGT4BNVYtgUO9OlYenW1TqVQYOnSoXptcXjnmtBnMEz1jfH198d5772HEiBElrnv38PBAeHg4wsPDsXHjRrz77rvIysrSOycxMRGzZ8/GsmXLrD1sIqJnXtyirwWBvKpmEFw7hcIuoCq06gxknD6PjOOnCo/rsrLxz8dzUGvDCiicnct7yDbD0dERa9eurehhWAWDeaJnhIeHB6ZOnYqxY8fC0dHRpGsHDRoElUqFV199VXAsIiICc+fOhYeHh6WGSkRExWRfvY60yP16bT7vD4X30IGQFZlh9nq9HzIv/oX7U+ZCk5QC4Mmym6R1m1FlpP7MNFUOleP9AhGVKCwsDDdv3sTkyZNNDuQL9OvXD3369BG0F6S7JCIi60neslPva6/Br8Lnndf1AvkCTo1eQNAX8wDF02PJm3dCl6+x+jip/DGYJ3oGNGnSxCLr2seMGSPavn//ftF2IiKyjIw/zxb+v8zRAT7DhpR4vsPzdeH+cufCr7VpamRd+stq46OKU6mX2eg0GuRcv4WcW3eR/+gxtFnZkDnYQ+npAaWPFxxfbACFy7O7fuxZlJWVhcjISMTExEChUKBmzZro3r273sbPoo4cOYLLly8jLi4Ovr6+aNasGdq0aWOVsT18+BDHjh3D9evXoVar4ejoiOrVq6NZs2Zo0KCBVe5pqnbt2kGhUECj0Z/defDgQQWNiMpbbGwsTp06hbt37yIjIwNeXl7w8/NDaGgogoKCKnp4VmPLz47Hjx/j2LFjiImJQVpaGhwcHBAYGIjGjRujSZMmVi/yptFocPHiRfz111+4d+8e1Go1nJyc4Ovri4CAAISEhBj8eypPWVlZOHPmDC5evIjExETk5eXB09MTderUQYsWLRAQEFDRQzRIl69BfvzT6r9OjRpA7lT6W1bnti2QuvtpAoPcu/fh1KShVcZIFadSBvNZV64hefNOqA+fgDYj0/CJCgWcmjSER98wuHV5yeT7pB/+LxJ/WG/wuDYnR9CW9zgRt4eONfoePsOHwKVdK5PHVhG2b9+OefPmGTxefPMk8CQIbN68udH3mDNnDnr27FniOcX7e/XVVzF16lT8/PPPGD9+vKDqqaurK2bNmoWPP/64sO3QoUMYPXo0/v77b0H/wcHB2LBhA4KDg40a89tvv43Lly/rtS1ZsgTt27cHAJw4cQKzZs3CgQMHDPZRu3ZtjB07FqNHj4ZKpTLqvtZgb2+PKlWqIC4uTq+9+NckLTNnzsSePXv02iZPnowBAwYAALRaLX788UcsXrwYf/1leGavefPmWLRoETp16mTWOBYuXCh4yzN27FiEh4eb1M+NGzcwcuRIvTZPT0/8+uuvJV5na8+O0pw9exazZs3Cnj17oNPpRM/x8/PD+++/jwkTJsDV1dUi9y1w6tQpfPPNN9i2bRvS0tIMnqdUKvHSSy9h5MiRhT9TlpCVlYXQ0FBB+9GjR/WWE968eRPz5s3D5s2boVarDfbXrl07jBs3TnRvUEUrHsso3I37Xio89NMMa9LTLTYmWxQaGioaaxiiUChw8uRJK46ofFSqYD7v4SM8Wvwt1MeM/MZoNMg8cx6ZZ84jedN2+H3yIexrG181TZOaiuyrsaYNMj/fpGs0qYYfkLYmISEBZ8+eLf3EIvLy8ky6pviHqZji/TVv3hzLli3DRx99JHp+eno6Jk2ahOzsbMyYMQMHDx5E9+7dkZeXJ3r+5cuX0bZtW5w/fx61a9cudTxXr14VjCkl5cmmpFmzZmH+/PkGP4gL3Lx5E+PHj8eKFSuwefNmiwUD5rCzsxO0VZb0Xs+qW7duCX5GHz9+DODJG6P+/fsbVVPgzJkz6Ny5MyZOnCio9myMy5cvC36p7du3r8n9qNVqQT9VqxquXF7A1p4dJVmwYAFmzJgBrVZb4nlxcXGYM2cOVq5cifXr16NDhw5lui8A3LlzB2PGjMGuXbuMOj8/Px9RUVGIiorCsmXLsHLlSou8bdRqtaKfH0X/ThYvXoxp06YZ/J4UdezYMRw7dgxvvvkmfvrppzKPz5Lkrs6ATAb877MiPzHJqOvy4/U/MxXuJdcQkbro6GhkZGQYfb5CobDiaIRu376N+/fvix6rW7cufH19zeq30nwCq4+fwq3Bo4wP5IvJunAFd4ZPQNYl4WwKSduFCxf0Zs4MmTNnDs6dO4fBgweX+uBPT0/HiBEjyjSuqVOnYt68eaUG8kVdu3YNbdu2xX//+98y3dtcWq0WDx8+FLTb8utpMt+jR4/Qrl07k4uDLVmypMS3dFJhq8+OuXPnYtq0aaUG8kU9fPgQXbt2xdatW8t078jISDRq1MjoQL6448ePIyQkpFyeYaNHj8akSZOMCuSLunnT9oosyeRy2FV7+pzNuvg38pNTSr0u/eBRva9VNSrvUjgpWL58Odq1ayf6X/G3o6aoFMF8WtRR/DNpjuElNUolVNWrwbHh87B/rhbkbuKvp7TqDNwd8wmy/rpmxdFSefvzzz+Rl5cHmUyGli1bomPHjvDy8hKcp9Fo0KlTp8JgValUolWrVujYsaNo2sUDBw4gJsa4wh3FRUZGYuHChYL2wMBAtGjRAsHBwXBxcRG9Nj09Hb169cKdO3fMundZXL9+Hfn5+YL2Jk2alPtYyLq0Wi369+8vCGzs7OwQGBgIHx+fEtdiz507F9euSftZaovPjoMHD2L27NmCdn9/fzRv3hwNGzY0uJwmPz8fr7/+utnLCjZv3ozevXsbXFJjZ2eHevXqoU2bNmjUqJHo3xUApKamokuXLjh9+rRZ4zDGF198gYiICKv1XxFcQloW/r8uLw/xX60q8Xz1sZNQH/mz8Gu5myscG/zLauOjiiP5ZTY5N27j4ez/AzTCGQqH+nXh/fYgOLdqqrdRRKfTISfmBpI370Tqrn1AkdkNXXYOHsz6P9Ra9w3kDg4l3tu1cyicmjYyeDz37n38M36mXpuyijeqr/i3sX88KDylk7u7f//+Jb7CjYmJQVhYmF5bQEAAjhw5YvQ9zH0F5e/vj/379+OFF14AAOTm5mLUqFH44Ycf9M5LTU0FADRu3Bg7d+5EtWrVAACZmZkYMGAAdu/erXf+nj17UK9ePZPHs2qV/kN4zJgxGDt2rF5feXl52LNnD6ZOnSpYp5yYmIjRo0cLxmNtmzdvFm0v/n0l6Vu7di3OnTsH4Em14Pfeew/Dhw9HixYtCoP4pKQkbN26FTNnzhTsm8jPz8fs2bOxcePGch+7Jdnas+P777/X+3r48OEYP348nn/++cI2jUaDvXv3Yvr06Th//rze+bm5uXj33Xdx4cIFKJXGhwCXL1/GkCFDBJvfAaBZs2aYNm0aunXrpjcJodPpcP78eXzzzTdYs2aN3puEzMxMDB48GOfPn4eTk5PR4zBGbGwspk2bptfm7e2Nnj17omvXrggKCoKPjw9ycnLw+PFjnD59Gr///juOHTtm0XFYmueA3kj+dQfwv+9B2p4oyJR28B0/Qq8YlE6nQ+qufXj07+V613sPfg0yI5eV6PI1UB8/iZStu1Fl9Dtw+NdzlvuDWNHFixcNvu1OS0tD06ZNy3lE5UPSwbw2Owf3ZyyALrfYKzSZDFXGvAvvIf1Fr5PJZHD413Pwnz4ebt074v6kT6HNfLphIu/efTyO+BFVx48Uvb6Awtm5xGpqgnEBkCmVUFWrnEsS3Nzc4OZmeD1edna2oM3Ozg516li/xPTixYsLP4yBJ2WdIyIisHv3bjx69Ehw/rp16wo/jAHAyckJ33//PQIDA/U+zP7880+D62mNoVQqsX37dtFg2M7ODr1790aXLl1Eg4HIyEjs3r0bPXr0MPv+ptBqtaLrSAtm4mxd2oEjyDx3qVzv6RLaCi6tjd/gbUsKAnlnZ2dERkbipZeESQK8vLwwbNgwhIWFoV27drh165be8R07diAjIwPOEq46aavPDrlcjk2bNolu1lQoFAgLC0Pnzp3x1ltvYdOmTXrH//rrLyxfvhzjxo0z6l5ZWVkYNGgQcooldZDJZFi0aBEmTZokep1MJkOTJk3w3Xff4Y033kB4eLjeBtTY2FhMnz4dS5cuNWocxvrss88Kx2pvb4/p06dj4sSJBn9p6NatW+EvPlOmTDFpzXV5UgX6w/vN/khc+/QX5NSde5F+6DicWzWFXVVfaNRqZJ67iLx7+hnGVLWqw3NQ6RvJ8+LikbJtD1J37kV+wpN1+UofL/jPnGjZP4yVlLQXpeAX7spI0sF84o8bkXtTuNTA75MP4dHnFaP6cG7eGAHzPsE/E/VfW6b8FgmfYYOhcBVf6kDS0qtXL0GbSqVCx44dBTOHdevWFd2cVbVqVTRs2FBvpqukzB7G+Oqrr0qd1XZycsL69evRrFkzXL9+Xe/YrFmzyi2Y/+WXX0SXTRizptgWZJ67hJTNO0s/0YKUPl6SDeYLbNmyRTSQLyogIACrV69Gly5d9NqzsrLwxx9/mLWJ1VbY6rNjwYIFpWZdsbe3x9q1a3H16lVcvHhR79j8+fPxwQcfiG5oL+7zzz/HlStXBO0rV67E8OHDjRpvp06dsGHDBsHf58qVKzF79myLVpDesmULAMDFxQW7du0qzBxWmsaNG2Pv3r02PUPvM/It5Ny5B/XBp/tYtOlqpO83/IZb6eOFal/MNbjaQKfRQH38FFJ+i0TGf88UbrItoD5xBrq8PMiM+FmhiiHZNfPa7GwkbxZuwHHv0dXoQL6AS7tWcOkYotemy8lB6q4/yjRGsg3Vq1c3uIa0fv36graSMsUUfy1elnXrDRo0wKhRo4w6183NDfPnzxe0nzt3TjQFnqUlJSVh4kThzEz9+vXxzjvvWP3+VDEGDBiA7t27G3Vu586dRQPZ4ss8pMRWnx21atXChAkTjDrX0dER//63cGlnYmIi9u7dW+r1mZmZ+PbbbwXtQ4cONTqQL9CzZ0/069dPry0rKwtr1qwxqZ/SFCyz+M9//mN0IF9Uu3btLDoeS5LJ5Qj8fDq8Br/2JLtNKRyC66PG2q+hCvATHMt79BiPV/6EG+Fv4f6kT5Fx4rReIO/Y6AX4z/4YdX5by0Dexkk2mE/dvR/aNP18qTJ7FXxGvW1Wf14DhWXq034/aFZfZFuKvvIuTiwLS0nn+/v7632dmpoqePVsrEmTJplUzKV///6iRXnWrVtn1v1NMXz48MJUhUWtXLnSpHW3JC2mLgMRe0tUvMaClNjqs2PixIkm/bvr1q0bGjYUFgoyJv3ijz/+iKQk/TSIDg4O+Pzzz42+f1FiP1O//PKLWX2V5M0336y0e3lkcjl8PxyGWr9EwO2VzsJ0k0olnFo0RsBn01Dju6Wwq+JdeEin0SD96J+4N34mboS/hcQf1iP/8dP0lXJXF3gOCEet9StQY/UXcA/rArmDfXn90chMkv0UTvvjkKDNtVM7vR9aUzg2DobcxRla9dO1ctmxN6DNzuEPssR5exv+mfD09BS0ValSxaTzk5KSBB/UpZHJZKUWvypOLpejR48eWLFihV57VFSUSf2YKiIiQjSd3cSJE0tdfkHS5efnh7Zt25p0jVjA+M8//1hqSOXOFp8dANC7d2+zrrl0SX/PyOHDh0u9bsOGDYK21157zex0tKGhoXB3d9dbv3z+/HlkZWXpFXoqq6lTp1qsL1tlX6cmAuZMgk6rhSY5BfnJqVA4OUHh4wl5seKCefGPkbpjL1K2/Y78xwmCvhxfbACPPmFw7dSOMY8ESTKY1+XlIVskfaRrR2ElOGPJZDI4vPAvZJ4697RRo0X21Vg4Na64Aj1UdiVVPRTbmGfq+eZslmrSpEmJgYIhXbt2FQTzFy9ehFartUrhJkOb9Fq3bo0FCxZY/H7WVOX9ofAeOrBc7yl3tmyWjvJkSmXmAoGBgYK2dAlXnLTFZ0e9evVE39CVpmvXrvjss8/02uLj4/Hw4UODv1Dk5ubi1KlTgvbXXnvN5PsXKEjzuW/fvsI2jUaDs2fPWmx5S5s2bfSy+1R2MrkcSm8vKL31U4HqtFpk/PcMUrbuhvrEab3MfcCTWXj3sM7w6BsG+1rGF8wk882cORPjx48XPSb2C7+xJBnMZ/0VI5opxrFR2f7x2gUIKwTm3v2HwbzE2dsbnmUQO2bq+aaUji5gbvVDsQ+ozMxMXL9+3aw0dyW5desWwsPDBQVXAgMD8dtvvxm1cc6WKFxduKHdBGJrwksjVhtBysF8ZXp2FM3IU1R0dLTBYP706dOiS4FMfWNTXM2aNQVt165ds1gw36lTJ4v0I1V58QlI3bkXKdv2ID/ewCx83zC4dgqF3F4l0gNZi7u7O9zd3S3erySD+ZybtwVtcmcnaLOykZf1NFWYDsVyjRbPPVrsa5nIzKYmTS1oI2kpKegUW3dq6vlieZdLY27gXadOHchkMkEe3Rs3blg0mE9ISED37t0RHx+v1+7i4oLdu3fDz0+4mYoqF3NmiVQqYWBgavVNW2KLz466deuafA3wZAlQ8eUtAHDv3j2D14jtd3Bzc4NardZ7q1D8eVTa1wqRXOfJycmGB2+iFi1aWKwvqdBptcj48yxSftsN9bFTwll4Nxe4v9Llf7Pw1StolGQtkgzmtanCAFubkYmbfc3b/FrivdKkO6tET5S0yVRsaUpJ54sdM+cD2dziVyqVCm5uboIPZEMVGc2hVqvxyiuvIDY2Vq9dqVTit99+w4svvmixe5HtMlSB+Flii8+OqlWFb5CN5ePjI3h2lJR7u/jGV+DJs6akXN7mEruXucqjdomtyE9IQsqO35Gy/Xfkx8ULjjs2Dn4yC9+xnWAWPvfufWSevYC8+ATo8vOh9PaCY6Pn4fB8PZOSM1DFk2Qwr7Fg4FKaosWkqPIx9YFlqQdcWYroODs7Wy2Yz83NRd++fXHmzBnBsZ9++kmQR5wqL7HZU3pKqs+O4koK5hMTEw0eszRLLseyxjIGW6LTapFx8tyTtfDHTwKa4rPwrnDv0QUefcJgX1O4vyLz3EXEL/8B2VeuivZv518VPsOHwC2sC4N6iZBmMJ9efktfDJUFJiqLsmRtELvWEsG8VqvFkCFDsH//fsGxZcuW4fXXXy/zPYiobCz97ChakbW4lJQUs+9lKkt+1pZUiVzq0g8eR/xXq5D3UFh92LFJw//NwocIstkUSPhhPRJWlpySNO/hIzycuwTph44j4NMpkDtZLssQWYckg3m5o7CKmdzFGXb+5r9+NMTO18fifRKZm18aeDJ7XlxJG++MNWrUKPz666+C9lmzZmHs2LFl7r+iZZ6/jJxb5hfqMYfj8/+CQ/3nyvWeVLlZ+tlR0ky/2DF3d3fRDaxlVVKOflNV6toXSoVeIC93c4V7zyfFMu1rlJzlyJhAvij1kT/xz8dzELTsc8iUfFNnyyT5Ey8okADAqWlDVPv3nAoYDZHpzElJV9K1ZX2tPHXqVKxatUrQPmbMGHz66adl6ttWpO07jJTNO8v1nj7vD2UwXwEq8xtVSz87PDw8DJ4vlj63ffv22L59u9ljoLJxadMcCk932NeqAY++YXDp0NbgLHxRmecuCgJ5u2r+8BrUD47B9SGzVyHn9l2kbvsdGSfPPr3u7AUkrPoJVUaz0rctk2Yw7ybM5cusMyQl5r6+1mq1oktqyvJaefHixVi4cKGgffDgwVi2bJnZ/RJVlLIEvLauLFlfxJ47JT07vLy8BG2WzDpDppMplai96TvROKgk8ct/0Pva5aU2CJj3iV6BKPvaNeDWKRRJm7YjfklEYXvS+q3w6NcDdn7mJW4g67N8lRlRlp0lEVtOI5ZLlchWFc8UY6x79+4hPz9f0G5udpzvvvsOkyZNErT37t0ba9eu5eYnKldiGWLMyfhS0qZOqbt+/bpZ16nVakGqWUC80FcBseU0Uq7oW1mYGsjn3r2vt9nVLtBfEMgX5TUgHB6v9Sr8WpeXh9Rdf5g3WCoXFg/m5SJrd8UKPJWFYyNh8Yu8B3HIT7T9GYPK/PrXHM/q38fVq+JZBEoTExMjaJPJZGjYsKHJfW3atAkjRowQtHfs2BGbNm2q3OtOySaJpcPMzMw0uZ+bN29aYjg2yZLPDgBo3LixwWtCQkIEbbdu3cKjR8LNl2S7Ms6c1/vac2C4wUC+gM97g4EikznqoyetMjayDIt/WstdhRtmNBbO1a5wc4V9nZrIuaFfPCrjdDTcX7adym8ykcpqlv7FRkrEMimUZTOXlJ06dQpZWVkmZ6Y4fPiwoK1u3bom5wTfs2cPBg8eLPhlqlWrVtixY4dFNtTaGo/wl+HcrHxz5Ktqs0S6KcR+jsVmk0sTHR1tieHYpAsXLiAlJaXEte5ijhw5Imjz9PREUJDhTZOenp4IDg4WFI/av38/Bg8ebNL9qeIUX7kgNiFanNLLA6oa1ZB7+0lRsdwHcVYZG1mGxYN5pZewamDBD4MlObduLgjmkzdus6lgXu7sJGjTqtXQabWi1WYrO7G1mSkpKdBqtaKv1yuz7OxsREVFoUePHiZdt2fPHkFbq1atTOrjyJEj6Nevn2C5TqNGjbBnz55KWyzIoV4dONR7dorJSJHYcrG///7bpD60Wi0iIyMtNSSbo9FosHfvXgwcONCk63bv3i1oa9u2banXvfzyy4Jg/ssvv2QwLyHaYpNmYisoxMgdnmYO1GVlW3RMz6rk5GRERUWJHvP19UVoaKhZ/Vo8gnKoLyw1nXPjNvIeW7b4hOfAcEChP/zsv2OQdkA4+1BRFC7OgjHqcvOQe/d+BY2oYrm7uwsK0eTk5Bh8/VvZff311yadf/LkSZw7d07Q/sYbbxjdx5kzZ9CjRw9kZ+s/mOvVq4d9+/bB01P4yzhReWnQoIGg7fjx4ya9wdu9ezfi4ir3LKKpG9OvXr2KAwcOCNqHDBlS6rUffvih4Ll95swZ0TS2ZJuUnvpvcXL/eVDqNTqNBrn3HxZ+rfCs3IW4ysvNmzfx2muvif5XlsxxFg/mld6esAv0F7Qnrd9i0fvYVa0Cty7tBe1xn32J3Ltl36CTHXsT2VfN22hUQKZUwr6W8DV7+oGjZepXquzs7EQ/rJ/VD4W9e/fi0KFDRp2r0+kwY8YMQbuvry+6du1qVB9XrlxB9+7dBUViatSogQMHDpi9iZbIUoKDgwVt6enp2Lx5s1HX5+bmYuLEiZYels05ceIEdu3aZfT5M2bMECypc3FxQe/evUu9NigoSPQtwLBhwywyEXPx4kXRSQqyHPvnaul9nfa7+MxwUepjJ6EtUqBTbKKWbIdV1ja49xQGF8kbtyFtn3C9b1n4vD9UsJRFm5GJO8MmIDP6ksn96XQ6ZJy5gHvjZ+L2kNHIjilbMA8ADsH1BW2JP29Cdmzl3aBVErElIYsWLcKFCxcqYDQVb+DAgbh7926p582fP1+0MutHH30kmDUTc/36dXTu3BlJSUl67f7+/oiKirJowRYicwUFBeGFF4TreadMmYKHDx+KXPGURqPBoEGDzM4UJTVvvfWWUX/WZcuWYcsW4WTa6NGj4eQkXAoqZv78+YJlkmlpaWjbtq3oWvzS6HQ6HDx4EGFhYXjxxRcr9R4HW+DUtBFkRYptph84ivSDxw2enxefgEf//kavzbVD6UuyqOJYJV2FR/jLSPr5V2gzs542arV4MGMBUiP3wyW0NcPcM6cAAAjVSURBVJTeXqIVxVS1qkMV4GfUfVQBfvCfORH3P5mn165JTcPdUZPh1rU9vN4aAIe6tQ32ocvPR/a1G0g/eAxpfxxC/qPHxv0hjeTRsxtSt+mvc9ZlZePOe+Pg0ftluIS2gqpGEOQuzpCJBGUyO7tKVXntnXfewerVq/XaMjIy0Lp1awwbNgy9evVC/fr14e7uLppNxd7evlJlWYmPj0ezZs2watUq9OnTR5AKMikpCZMnT8b3338vuLZOnTpGz0IOGTJENAOFn58fJk+ebN7gi4mIiECVKlUs0hc9uwYOHIjZs2frtd2/fx+hoaFYuXIlOnfurHdMp9Ph+PHjGDduHM6efVLsplq1apU+hWJycjJatmyJiIgIDBgwQLDvKCUlBbNmzRJdzufv74+ZM2cafa9atWphzZo1ePXVV/XaExMT0aFDBwwaNAhTpkzBiy8a3mCel5eH6OhobNmyBRs2bMC9e5bfS0fi5A728BrUF4lrNhS23Z/+GaqMGArPQeGFa+N1Oh0yTpxG3IJlyC+yNNqumj/cuncs93GT8awSFSm9veA7biTiPv9ScCzjxGlknDht8Frf8e/Da1Afo+/l2jEEXm8NQNJPm/QP6HRI++MQ0v44BIW3J5waNYDC2xMKN1dos7OhSUlD3oM4ZP8dA12OsMS1pTg2fB5OzRoh8+xF/eHl5CL51x1I/nVHidf7z5oI9x7GLaOQgjZt2qBDhw6C5SXZ2dlYvnw5li9fXuL1a9euxdChQ605xHLRtm1bnDhxAgCQkJCAfv36ISgoCB06dEC1atWQmZmJ2NhY7Nu3D3l5wgxIMpkMERERRmedKb60pkB0dLTFZsWWLFlikX7o2TZq1CgsWbJEUBztxo0b6NKlC6pXr47GjRvDzc0NCQkJuHTpEu7ff7oPSaVSYeHChUatB5ei0NBQHD36ZKlmSkoKXn/9dUycOBGdOnVCtWrVkJ2djRs3buCPP/4wuNdg+fLlJm9079evH6ZMmYJFixbptet0OmzYsAEbNmyAn58fQkJC4OfnBy8vL2RkZCAhIQG3bt3C6dOnBXt1qPx4vzUA6YeOI/fW/94Ea7R4HLEGCT/8AvvnakGmUiH3zj/QJBVL8a1Uwn/mRMhseBLtwYMHom/0ihNLha3RaIzODPXo0SObzfRmte+OR/jLyL1zD0m/WHatvBjfD96F3MnxSalisW9WYjLSDx6z+jgMCZj7CW6/8yELW/3P+vXr0bJly0o/c1aS8ePHQy6X49ixpz+X9+7dw88//2zU9UuXLjV6rTyRlFSpUgXz5s3DRx99JHr87t27JS5N+/bbb0XX3lcWw4cPh6enJ3bseDoR9ODBA6xbt86o6+fOnYt+/fqZde+FCxfC1dUVM2fOFA2M4uLiRJf0UMWTOzmi2uI5uPvBJ8iPe5ruVZeTi+wr18QvUioRMPtjODW27X9POp2uTIXiyrPInFgF9wIlFXArjVXzAfp+OBx+n3wIuYnVyszh887rCPr6c9gFBVikP8fGwXCo95xF+lL6eKHWum/h2rU98IylYBTj7++P8+fPY+DAgc9cSsoCdnZ22L59O1q3bm3SdSqVCqtXrzYY6BBVBh9++KHJP+NKpRIrVqzAe++9Z6VR2Qa5XI4NGzYgLCzMpOsUCgWWLl1q0vIaMdOnT8e+ffvw3HOW+XwMDQ1FkyZNLNIXlUxVLQA11y6Dc0jLUs+1CwpA9W8Wwq1bh3IY2bPD0B4TuVyOqVOnmt2v1SMpj75hqLN1DapOHgPnkJawC/DT24hhSc4tmqD2hpXwmzHB9J3XSiWcmjZCldHvoM5vP6LGysVwqG+ZhxUAKNzdEDh/Kups/xG+H42Aa9f2UNWqDoWXJ2Q2+trGmry9vbFx40bcuXMHS5YswaBBg/DCCy+gatWqJhdSkiovLy8cPnwYn376KVxdS/+FNywsDNHR0Rg2bFg5jI6oYn355Zf46aefjMqy1KlTJ5w+fRojR44sh5FVPCcnJ+zcuRNfffUVvL29Sz2/c+fOOHPmDMaNG2eR+3fu3BlXrlzBDz/8gGbNmpl0rZ2dHdq3b48FCxbg1q1bOHLkCJo2bWqRcVHplJ4eCPpiLqqvXAyPV3tCVTMIcmcnyFR2UPr5wqVDW/jPnoTaG1fb/Iy8FImliAWe7GurX1+YMMVYMp3Yu7JKIi8uHpnnLyP7aizyHj6CNk0NbU4O5A72kDs7Q+ntCfs6NWFfuyYcGtTTK5BAZCmtW7fGyZP6pbC3bduG8PDwwq9TU1OxY8cOHD16FDdu3IBarYaTkxOqV6+OZs2aoWfPnqhd2/BGbqLKKisrCwcOHMDvv/+Oe/fu4fHjx1CpVPDz80PTpk3Rq1cvPP/88xU9zAqTmZmJyMhIREVFITY2FmlpaXB0dERQUBCaNm2KHj16oF69elYdw927d3H06FGcPXsWt2/fRlJSErKysuDk5AR3d3f4+fkhODgYwcHBaNmypdFZdIgqk8zMTHh4eAj2wSkUCsTExJTpM75SB/NEtsCYYJ6IiIgqr3379qFbt26C9uHDh2PVqlVl6vvZXLBMRERERFROxJbYqFSqMu9jARjMExERERFZVVSUsPLuyJEjERQUVOa+GcwTEREREVlJampqYVG7Ao6Ojpg2bZpF+mcwT0RERERkJYcPH4ZWq9Vr++CDD+Dn52eR/hnMExERERFZSfH18i4uLpgyZYrF+rfd+rxERERERBJ39epVvQqvo0aNgo+Pj8X6ZzBPRERERGQle/futWr/XGZDRERERCRRDOaJiIiIiCSKy2yIrKx169bw8PDQa/P19a2g0RAREVFlItPpdLqKHgQREREREZmOy2yIiIiIiCSKwTwRERERkUQxmCciIiIikigG80REREREEsVgnoiIiIhIohjMExERERFJFIN5IiIiIiKJYjBPRERERCRRDOaJiIiIiCSKwTwRERERkUQxmCciIiIikigG80REREREEsVgnoiIiIhIohjMExERERFJFIN5IiIiIiKJ+n+zpU7VGRLy2QAAAABJRU5ErkJggg==;" vertex="1" parent="1">
          <mxGeometry x="521.46" y="324.3" width="237.07" height="31.4" as="geometry" />
        </mxCell>
        <mxCell id="-YUloIGHrFb9EOFcItWy-19" value="" style="shape=image;verticalLabelPosition=bottom;labelBackgroundColor=default;verticalAlign=top;aspect=fixed;imageAspect=0;image=data:image/png,iVBORw0KGgoAAAANSUhEUgAAATUAAABOCAYAAABBjYGyAAAScElEQVR4nO3de1RUZb8H8O9cucMAgg4oGgiiomljgJAmppEXxOyYlvaa77JOuvR4zHC9tHhJl3bxPfq2MjuQZsdXSV3G0dCAU4oKmWkpoOIN8JYKhHKTOwPD+cOluefZM+w9DDhsfp//+M2zn+dZC+bH3s9ty9rb29tBCCESIX/SHSCEEGuipEYIkRRKaoQQSaGkRgiRFEpqhBBJoaRGCJEUSmqEEEmhpEYIkRRKaoQQSaGkRgiRFEpqhBBJoaRGCJEUSmqEEEmhpEYIkRRKaoQQSaGkRgiRFEpqhBBJoaRGCJEU5ZPuABGvra0N58+fR15eHvLy8lBSUoKqqirU19fD1dUV7u7u8PX1RWRkJCIjI9GvX78n3WXSi+mr6nA3Mx/VvxSioagMrTUNgEwGlbsTnIb4wH1cMDxfHAmlk71V2pPROwp6htbWVmRkZGDfvn34/vvvUVFRIfjaqKgovPvuu5g2bRpkMlkX9pKQPzWXVaMocS/u/Csb7S2tZssqXBww4N8nYfDfZ0Hp6tipdgUltbKyMmzYsIET8/DwwPvvv9+pxknHysvLkZycjOTkZJSWlnaqrsjISKSkpGDQoEFW6h0h/MoPnsG5NzY/uCsTwc7XA6P/911owgItbltQUrtw4QJCQkI4sYEDB+LGjRsWN0yE+fDDD5GQkGC1+lxcXJCamooXX3zRanUS8rg7O3NwfsF/AxY+BMrtVNBl/A2eE0M6Lsx3vUVXEZujVquh1Wrh6upqtlxtbS1mzpyJn3/+uZt6RnqTyp8uoWBhEn9Ck8ngFjoY2nnPQftaJFyeHshbh6FZj9zY/0J9YYlFfaCJgh5IJpNh/PjxmDRpEqKiohASEgI3N7dHn1dXVyM7OxtffPEFDh06xFzf2NiI2NhYFBUVwd3dvTu7TiSstb4J5+ZvRnubgfmsz5RRGLb5r3D078uJ1567iQvvfIXqXwo58ba6B3WFn1wHmVzcvRfdqfUg3t7eiI+Px7Vr13Ds2DEkJCQgMjKSk9AAQKPRIDY2Fj/++CN2794NBwcHpq6Kigp88MEH3dV10gtc/8cBNP1+j4n7LngeuvS/MQkNAFxGDkTosQ/Q56VRzGc1v11Fyc6fRPeDkloPoNFosH79ety4cQMfffSRqIH+uXPnIiUlhfezpKQkVFdXW6ubpBdrrWvCjU8zmLjzsP4YvuVts7PucrUST+/+D9hp2aeG4jWpaDewd37mUFKzcVOnTsW1a9ewatUq3jsuIWbNmoWZM2cy8YfLRAjprJKdOWirbWTiQzbMh1zd8SiXSuOEwav/jYk3Xi/H3cx8UX2hpGbjRo8ebZVxr6VLl/LGDx8+3Om6CSndzU48OQZp4TVltOA6fP4yHip3J7buXeImtXrMREFjYyMyMjJQWFgIhUKBQYMGITo6mhlPeignJwcFBQUoKyuDt7c3dDodxo4d2yV9Ky0txfHjx1FcXIy6ujo4ODjAz88POp0Ow4cP75I2xXruueegUCjQ1tbGiZeUWDbDRMhDLffuo+r4FSaunRshqh6FvRreL4fiztdHOfHyg2fQ3maATCHsHkwJAGlpaVi7dq3JQo2N7G1lSUkJxowZI7jDq1evxvTp082WMa7vlVdeQXx8PHbu3IkVK1Ywq+hdXFyQmJiI995771Hs2LFjWLJkCS5dusTUHxISgt27dzNr7kx58803UVBQwIlt3LgRzz//PADgxIkTSExMRFZWlsk6/P39sWzZMixZsgRqtVpQu13Bzs4OXl5eKCsr48SNfyZErMqcS7xLOMTcpf15zSgmqbXVNuJ+7nW4PRsgqA4lANy7dw9nzpwR1bherxd1jZBtPcb1jRkzBps2bcLy5ct5y9fW1iIuLg5NTU1ISEjA0aNHER0dDb1ez1u+oKAAERERyM/Ph7+/f4f9uXz5MtOnhwPriYmJWLduHTpau3zt2jWsWLECycnJSE1NFZxQu4JKpWJicpHT5YQYq/6ZvUuT26ngqntKdF3uzwXzxquOXxac1Gz6L/rs2bOcuzBTVq9ejdzcXMybN89kQnuotrYWb7/9dqf6FR8fj7Vr13aY0B535coVRERE4JdffulU25YyGAy826x8fHyeQG+IlNSe+52JOQ31hVwlfnTLrp8Gam92SKn27E3Bddh0Ujt58iT0ej1kMhlCQ0MRFRUFDw8PplxbWxsmTpz46EurVCoRFhaGqKgoaDQapnxWVhYKCwuZuBAZGRn45JNPmLivry+effZZhISEwNnZmffa2tpaxMTE4OZN4b8gaykuLkZrK7upePRo8Y8IhDyu7uJtJuY0xPJ/lk7B7LV8bZiiBIDZs2djwoQJJgsVFhZi6tSpnJiPjw9ycnIEN+Tt7S247OO0Wi0OHz6MYcOGAQBaWlqwePFifP3115xyNTU1AIBRo0bh4MGD6N+/PwCgoaEBr776KtLT0znlMzMzERQUJLo/W7Zs4fy8dOlSLFu2jFOXXq9HZmYm4uPjcfHiRU75iooKLFmyhOlPV0tNTeWNG/9eCRHDoG9Fcym71tFhkJfFdToM9EIVuGPijTfZRb2mKAHA1dXV7J7BpqYmJqZSqRAQIOwZtzM2bNjwKKEBD/Y4JiUlIT09HX/88QdTPiUl5VFCAwBHR0ds27YNvr6+nJm/kydPmhyrE0KpVCItLY03KahUKsyYMQOTJk3iTagZGRlIT0/HtGnTLG5fDIPBgB07djDxoKCgLpsRtrb7WTloyD3frW06jwuDc/ifk1e20Adb01xSxTtJYO9j+TIku37s42dLeQ0MzXrI7dhxYWM2v6QjJiaGianVakRFRWHPnj2ceGBgIO8Sir59+2LEiBHIz/9zEZ/xHZRYn332WYd3OY6Ojti1axd0Oh2Ki4s5nyUmJnZbUvvmm29w5Qo7mCtkvNJWNOSeR3XqwW5tU9nHg5NQbKEPtqalopY3rvLkH4JpqaxDzckiyO1V0EQEQWHPrgjgG1MDAH1VPez6scNJxmx6TM3Pzw8uLi68nwUHs7Mk5mYWjR81OzOuNXz4cCxevFhQWVdXV6xbt46J5+bm8i47sbbKykqsXLmSiQcHB2PhwoVd3j6Rttaqet4430GPd/6VjewBS3Bm2if47YW1yB60FBVHL7DXuvDvnNFX1Qnqk00ntccfI43xzdqZK6/Vajk/19TUoLm52aJ+xcXFiTpBdvbs2RgwYAATN7Un05reeust3L17l4l/+eWXUCpt/kad2Li2ev7vkMKRewdW/Wsxzi9MQlvDn+Vb/qhBbsx6NN7k/n0qnOxEtWXMppOap6enyc/4tg55eZkenOQrX1lZKbpPMpmsw0XExuRyOe+j5pEjR0S3L0ZSUhL27dvHxFeuXInx48d3adukdzDo23jjMqPlHLe3ZvGOvbXVN+PO9myjaxWi2jJm0/+qTT16AoCTE7tHTGz5+nr+W2dzRo8ebTbZmjJ58mQkJydzYufOnYPBYOiSBbCmJkLCw8Px8ccfW729rub1zgJ4LpjTrW3KnbiPULbQB1vDd3YaAMjk3CeZ5jLTp8E03eHeXJjaDtUuhaRmZ8d/G2rqM7Hl+bZ/dcTSvZxDhw5lYg0NDSguLrZoaYk5169fR2xsLLMQ2dfXF/v37+fdWWDrFC7OULjwDz73pj7YGpMJyMC9K3MK0oIdBHnAeTh32MhkojRxB2fMph8/zX35+MaDxJY33twthKUJKCAggHcc7urVqxbVZ8q9e/cQHR2N8vJyTtzZ2Rnp6en0ujxiVXITiaZdz13o7bf0JSh4JgAc/Pui/1+jjK7l/16aaospJ6jUE2L2YDmeRzZz5fk+sySpWbqIWK1W864FvH//vkX18amrq8OUKVNQVFTEiSuVSuzfvx9PP/201doiBDAzqN/QwvnZ8SlvhB75O9xCBwMAZEoFvGPHICxnNTPbaXrywfST2ONs+vHTHLHvr7TW+y75xubEXPtw58ND1kpqLS0tePnll3H69Gnmsx07dmDSpElWaYeQxyk1/N+HVp4DI93GBGDsqQ9haNZDplSYfHTluxYAlDxnrfGWE1SKPGLp6bOmrrVGUjMYDJg/fz7vgY+bNm3Ca6+91uk2COGjNrHIVn+Pf1EugA53BbTc5f9OqD2EjWdSUhPJ0rVtwIO7KWPmJjeEWrx4Mb799lsmnpiYiGXLlnW6flvQkF+A5uvdexCAw9AhsA8ebFN9sDV2vh6ATMYs12gurbK4Tr69pGovV0FbpABKaqJZsgzE3LWmTu4VKj4+ntlkDzzYaL9mzZpO1W1L7h/K7vYtSn3eWcBJKLbQB1sjVylhp9U82AP6mMYbpuY6O2a8GBcA7Af2Ed4ni1vupSx9+5LBYOB91Ozo5cPmbNiwgfcYpHnz5mHTpk0W10uIGM7D2J089VfYs/uEqr/MHjHvMpzdkWMKJTWRjGcWhbp16xbveWaWzqZ+9dVXiIuLY+IzZszA9u3brTYxQkhHXEb6MbG6i7dh0LN/7x1pLqtGS3kNEzf1Nnc+Fic1Mae+Ssnly5ctuo7vUEqZTIYRI0aIrmvv3r28p/dGRUVh7969tKeTdCtN5BAmZmjW437uddF1VfEcDW6qDVME/fXzzdp1ZsC8J/v111/R2NgoehY0OzubiQUGBpo8JdeUzMxMzJs3j/mnEhYWhgMHDlhl4sEWaWJfgpOue9fZqf25dwe20Adb5DF+KO9kwd2MPGjCAkXVdTcjj4kpXBzg+ozw9x0ISmp84z7V1dVdtm/RljU1NeHIkSOiz0LLzMxkYmFhYaLqyMnJwaxZs5jH2JEjRyIzM1N0guxJ7IMCYB/U9YeS2nofbJG6jyvcI4eg6jj3KaZ09wkErnlVcD1tTS0o3/8rE/eO0UGuFLabABD4+Onm5gaFgltpc3Ozxef893Sff/65qPKnTp1Cbm4uE3/99dcF13H69GlMmzaNOYU4KCgIhw4dssoLjwmxlPb1SCbWUFSKu5nsnZcpJTtyoOc5n42vbnMEJTWVSsW7kZtvbVRv8MMPP+DYsWOCyra3tyMhIYGJe3t7Y/LkyYLquHDhAqKjo1FXxz0kb+DAgcjKyrJ4soEQa/F5YzyUruyQzJX3UmBoNv+GN+DBAZDFH7D5xMG/L7ymjBLVF8HPjnyPSuvXr8fZs2dFNSgVc+bMwe+/s68GM7Zu3Trelf7Lly9n7n75FBcX44UXXmDOftNqtThy5IjZgzEJ6S5KZ3sMepc9Z7Du4m0UvL0F7Qb+kzcAwNDSirOvbeI9nmhw4iuQiRziEjxNtnDhQmzdupUTq6+vR3h4OBYtWoSYmBgEBwfDzc2Nd/bNzs5OUrNy5eXl0Ol02LJlC2bOnMksoaisrMSqVauwbds25tqAgADeI7b5zJ8/n/cFM/369cOqVass67yRpKQkswdsEiLEoPem4/bXR9H0O/fNTyU7ctBSfh/DNi+EYwD3lJj7Z2/g4jtfofoku1TK7dkA+LwxTnQ/BGeZsWPHYsKECcxjV1NTEzZv3ozNmzebvX779u1YsGCB6A7amoiICJw4cQLAg2N+Zs2ahQEDBmDChAno378/GhoaUFRUhEOHDvG+WFkmkyEpKUnwLKXxI+dDeXl5yMsTPl5hzsaNG61SD+ndlE72GJmyFL9NXIv2Vu4JOPf+Lx85gf8JtzH+cAzUAgYDai/cRt15/qcdhYsDRn6zTPRdGiBym9SuXbsQGhqK27eFv1hUalasWAG5XI7jx48/it26dQs7d+4UdP2nn34qeCyNkJ7GY9xQjPifxTj3ly/Y47vb21Hz21XU/Gb+DEG5vQrPpMXBKVBrtpzJ68UU1mq1yM/Px5w5c3rdUo6HVCoV0tLSEB4eLuo6tVqNrVu3dupdo4T0BD7zx+GZtDiTxxKZY+frgdDs1fCMsuyEacCCHQWenp7Ys2cPbt68iY0bN2Lu3LkYNmwY+vbt26ljeXoSDw8PZGdnY82aNWbfi/DQ1KlTkZeXh0WLFnVD7wh58rxjdBh3+Z/o/9YLgk7XULg44Km4GIy79E9oQju3gV/W3lv3OwkQHh6OU6dOcWLfffcdYmNjH/1cU1ODAwcO4KeffsLVq1dRV1cHR0dH+Pn5QafTYfr06fD39+/urhNiM/TV9bibmY+ak0WoLyxFa00DIJdB5e4EpyE+cB8XjD6TRwo+2bYjlNTMEJLUCCG2pXcOjBFCJIuSGiFEUiipEUIkhZIaIURSKKkRQiSFkhohRFIoqRFCJIWSGiFEUiipEUIkRToHnHWB8PBwaDQaToxOmSXEttE2KUKIpNDjJyFEUiipEUIkhZIaIURSKKkRQiTl/wEj5AFirU7gJAAAAABJRU5ErkJggg==;" vertex="1" parent="1">
          <mxGeometry x="592.9599999999999" y="368.13" width="94.08" height="23.75" as="geometry" />
        </mxCell>
        <mxCell id="-YUloIGHrFb9EOFcItWy-21" value="" style="rounded=0;whiteSpace=wrap;html=1;fontFamily=UGent Panno Text;fontSize=22;" vertex="1" parent="1">
          <mxGeometry x="280" y="480" width="320" height="40" as="geometry" />
        </mxCell>
        <mxCell id="-YUloIGHrFb9EOFcItWy-24" value="" style="endArrow=classic;html=1;rounded=0;fontFamily=UGent Panno Text;fontSize=22;fontColor=default;exitX=0.75;exitY=1;exitDx=0;exitDy=0;entryX=1;entryY=0.5;entryDx=0;entryDy=0;" edge="1" parent="1" source="-YUloIGHrFb9EOFcItWy-13" target="-YUloIGHrFb9EOFcItWy-6">
          <mxGeometry width="50" height="50" relative="1" as="geometry">
            <mxPoint x="850" y="490" as="sourcePoint" />
            <mxPoint x="1150" y="360" as="targetPoint" />
            <Array as="points">
              <mxPoint x="720" y="440" />
              <mxPoint x="840" y="440" />
              <mxPoint x="840" y="180" />
            </Array>
          </mxGeometry>
        </mxCell>
        <mxCell id="-YUloIGHrFb9EOFcItWy-25" value="" style="shape=image;verticalLabelPosition=bottom;labelBackgroundColor=default;verticalAlign=top;aspect=fixed;imageAspect=0;image=data:image/png,iVBORw0KGgoAAAANSUhEUgAAAL4AAABUCAYAAAA8q415AAAOyklEQVR4nO2de3RU1b3Hv2fOvF+ZyTshxASTBglCVBDxAdgKomIBa0FvraKWq1SLDRSLCxS87ZWqXVWX1yp3FSmgFJUqXQhYFHkIVBEuBAxCeIe8k5nJTOZxZs6cc+4fAUpyziRnXgmTsz9r5Y/89tl7/7LWNzN7/36/vQ8lCIIAAkFhqPrbAQKhPyDCJygSInyCIiHCJygSInyCIiHCJygSInyCIiHCJygSInyCIiHCJygSInyCIiHCJygSInyCIiHCJygSInyCIiHCJygSInyCIiHCJygSInyCIiHCJygSdX87MBDgfD4ITCiqPpReB9pkTJJHhN7oU+FzXh/8+w7Cf7gabFMLeI8XPBOUfDb3ubnQlw7pS/dipvXNFWj/ZHNUfewzpyFn3pNJ8ojQG30ifJ5h0Lp8Ndo/2QwhwMjr4w8k2SuCkkm68MNtTpx/ZhGCJ88keyoCQTZJFb7AcahfvGzAi55Os0KTlxOxnevwgvf6+tAjQm8kVfgdX+5G4OARkV1lNsF82xjoiq4CZdSDosTBJe2gvGS6llCy5sxC1pxZEdvbVv4Nbe+s6kOPCL2RVOG71m8U2YzXj8CgV5eANpuSOTWB0CNJi+PzTBCBI0dF9tzFlUT0hH4nacJnak4BHN/Fpi0uTKklDGHgkjThc21OkU1bkJ+s6QiEqEie8L1e8WQGfbKmIxCiImnCF4KsxGykNIhwZTBga3V4hkHoXB1C5+oQdraD9/khBIOdNTIX4u76squhzkjvb1f7FLalDczxkwg3tYL3+cEHAqB0WqiMBqgzM6AtHARtYQFUel1S/RA4DsGTZxA8U4twcyv4AANKr4PaboM6Mx2GkeVJDYLELPzW5avg27s/YnvY1S6yeffuw9lHfiVr/NzFlVHV6ghhDv4Dh+D9+gD8B6oQrDkNyHjZi7awAJY7xsF+/5QB+0/ANjajfcMWuLdsQ7i5tfcONA1DeRmMoypgnTQeuuKrEuZLoPo4XOs3wrtzL3ifv0cfjNddC9v0u2G9Y1zC5r9IzMJnG5rBHDsRVR/e4wXjkddHbq0OzwTR8tpydGzfDc7ticofAAjV1sHx7lo43/sI6T+fgczHHgSlHhhfhALHwblmPdpWvAchJLH0jATHIXD4KAKHj8Lx7lpYJ/8Q+S8+G5cvbGMzmv/4Z3h3fyPbB//+Q/DvPwTXh/9A7sK50A1J3D9gyi+6eZ8f7Rs2xyT6yxFCLBwr3kft08+B6xBvzFMNgePQsOQVtL69MjrRSxBuaYurv3fPPpz52Rz5ou9GoKoa52bPQ+DI93H5cTkpL/zeoHRaaPJyoCu7GoaR5dCVDgGdZo34fODgEdTNXwKBjU8s/U3b8tXo+HxnxHZ1ViYMI8thGnMDjDeMhK50CFRWc8L98Hz5FeoWLI28rFGroS0sgOHaa6ArKYbKapF8jPf6UPv0QgSOHk+IXzF/p2fPnY3M2Q9FbHdv3gbHive72MzjbkL2M/8pz7GszJj8ojQamG69EeabR0M/rAy64kJQNC16jm1uRce2r+Bc+3eEWx1d2gJV1XCs/hCZj/8sJh/6m1BdAxzv/11kp9OsyJj1AKyTJkCdKb2fCdU1wH/wO3j++SX8+6tk7ZMiETx1Fo1LXhElMgFAP7QUGbMegGnM9VAZDZfsgiAgWHMKrvUb4f70c4D/d1+BCaLhhVdQ/N5bUOnjC43HLHx1hh2APXK73SayqYzGpCWxNAV5yHjop7BMHC8rGqDJyUL6f9yHtHsnoW7Bi6JiOseqD2C77x7Jv+NKx73pCyAc7mKj020oWvEGNPmRq0iBziSjtiAftnsngW1qgWPVBwjVNUbtA88EUb94mXiZRVHIevoxZDz0U8l+FEVBX1aCvEWVsN55O+oXvNhlv8eer0fr26uQU/lE1D5dTsovdSidFnkvzMeQD/8C2/S7ow6B0RYzCl5+QfQVKwRD8O78VyJd7TN8e78V2TJn/7xX0XdHk5uN3N/+CgUvPx+1D45V6xA6fU5kz104N6Lou2MaVYH83y0U2ds/2Rz3PizlhU+bTUi7Z6Lkckb2GGkW2H8yRWT37tkXj2v9RqhB/AltGjUy5vEuX4rIgWcYuNZ/KrKn3TMRtml3RTWW+dYxMN9+SxebEAzC/enWqMbpTsoLP1GYxo4S2YKnz/aDJ/EhcBx4j/jTkDJEJ954cG/6Aryno+v8Oi0yeziz0BPpM6eJbJ7Ptsc01kWI8C8gFSOON4zXH1A0DUqjEdnZ2vo+88GzdYfIZvnhrdBkZcQ0nqFiOFTdlrDMiVMRLyqQAxH+BVRmk6iWSAix4Bl5h+OvJNQ54oiYc93HfTK3wLJgJEKOlttvi3lMiqKgH1bW1cjxUSdQL2dgpCgjIHAcQrV1YBuaO+tSfH7wwR7uv6HEJt7PxB0662uM142Au1skxrvra9QvXobspx+HJjc7aXMHjtZIJswMI66Ja1ypjXmotg7GiuExjTfghM82tcCzdQc6tu9G8OSZuLOWQrewYCpg/8kUuDf+U2Tv+HwnOr7YBeP118J082iYRl0HXUkxKHXsgYHuSO2LVCYj+AADNtB8ySagW36ge76g2++URGUvJ7GXkcuAEX7Y1Y7WN1fAvenzxA7McYkdrw/QX1MK2333oP3jTeJGQYD/wGH4DxxGKzo3nfqyks6foaUwVJTHlWvh3WIx8j4/Tk+PbWPb41zdNtDRMCCE76+qRt38JeAHQI1NosiZPwd8IADPli97fE4Ihi4VpF1EMygPth9Phu3+KVHnRThPfDVT0RDPpWMpL/zAke9x/plFEW9oo/Q66EqKoS0sAG0xgdLrQKmkv9odqz7okiJPZSi1GvlLn4X55hvR+ueVYBube+90Aba+Ea1vr4Tzgw3IW1wJ8y03yu7blwV+QhzlFCktfIFl0fDiq5KiN4wsR8YjM2EcXQGVVitrPMeajwaM8C9inTQBlh/dBt++g/Bs3QH/gSp5NfkAOKcLdb9Zivz/+i2sE8fL6iN1vFRlNvV44VasaLJjq+cCUlz4rvUbwZ5vENmznnoMGQ/PiGosPhQS1bcMFCiahnnsKJgvJOnYphYwx04g8N0xBKqqEag+Hnkvw/No/P2foL+mVNbaX6ry1Xj9tSh4dWlcf0OiSWnhSyVK0qZOjlr0ABS1P9DkZkOTmw3LhM5SAK7Di44de+Bat0HyukeBCcKxch3ynp/X69i0RFlxPNGXZJGyCaywqx3M0RqRPdZS4lB9U7wuRUns69NEQ1vMsN17J4rWvIXsyiclLwXwbNsFIdx7hEtqSXMlZsBTVvhSmzXtVQXQ5GTFNJ5UtjFRqHTig9vx5heSAaVSIf2BaciWKPkVAoys2iXDiGEiG9vQhLDDlRAfE0XKCp9zig+zRzpcIQff1wficadHVBZxSJCLIwadbOz3TYHKIj6NFXb2Ll7aaoHu6iKR3fftwYT4lihSVviCRPSlx3KEHmAbm5MqfHW6+MBO6Oz5pM0XL5SahlqqoIyXtzwz3SSudHWt2xCvWwklZYUvdTIqdKYWQgyZ1tblq+M6Ytcb+qGlIlvw1Fmw3Y48XikIgoBwm9i3zlN3vWOfORWgu0qL+b4Gnm27EuJfIkhZ4WsG5wNU16oy3ueHd3d0h0c6dv4Lni3bEumaCHWGHRqJy3Kda8XnYuOFDzAIO8T3lkaDf/8hcU0/TUNTIO/CX01OFqx3iOP+Tf/9OkK1dXH5BgDMidNgjp2Ma4yUFb7algZ9WYnI3vL6coTb3bLG8O7Zh4ZFLyXaNUnSpkwU2VzrNsDTw00IsRB2OHFq6iNoXPZGTCILu9rR/MpbIrtpVAVok/zyhcwnH4Gq21sdeZ8f534xD36Jl4X0hiAI8O2vwvnK53H2oV+CqYlP+Ckdx7dNuwtNf+hak802NOHcLyqRt3hexJLVsMOJ1v9dA/c/Pru0xKHTbZ1380jcCJAQX6dOhnPNR13rS3geDYuXwb35C5hvuwnqjHTJSkltcSG0+bmy5xJYFu4NW+DesAX68qGd2dtxY3s8cyvwPLxffYOW196RjJjZZ/xY9vwAoM3PRd7z81G/8Hdd7Jzbg9o5z8I6cTzSH57R4215QjgM5vgpdGzfDc/WHbIzznJIaeGn3XsnnGs/Fn2ysecbUPvEb6ArKYahohyarCwIEMC1OS9lLLuv6XOfewYNi16CkCThqzPSkf3rJ9D00uuiNt/ebyUPiF8ku/JJpD8gPn4nB6b6GJjqY2h57R3Q6XYYhpdBk5sD2pYGSqcB7/UjVFuHQFU1whJXuwOAefzNMN86Juq5LbffgvSHZ8C5+sOuDYIAz9Yd8GzdATrDDuOIctAZdtBWC3iGAdfuAdvQBOb7GggxBix6I6WFT6lpDHp1Cc49/mvJl6sFT56R9eK5rDmPwjJubDJc7IJt6mSEzp2HU+LOm76Ac7rg3fV1VH0MFcORv3RBzHNmP/UYVEYD2iIEEDiHCx3bd8c8fqyk7Br/IrqiwSh86+WYiqAojQY5C55CxqyZSfBMmuy5s5G7cG7EG8PihVLRibmOnaJgu38KBr/x+6hvWehO5qMPYvCbL3UGJBKAoWI49D8Q7++iIaU/8S+iH1qCotX/A8df18H18abeXyJNUTCPH4usXz4K3VWD+8bJy7BNvxuWO8bBs3UHvHv2IXSmFmFXu+yXX/eEJj8HpZ+tg3fvt/Du/gb+g0fARZE1pbQaWCbcAvuD02Hofs41Dkyjr8OQvy2H+7PtaF+/Mbrzsmo1jCOGwXTTDbBOnBD1/UBSUEI8Rc1XIJzX13nL7v8dBtvY0rlhFQSojAZoCvKgH1oK89jRcWV5U41QfSOYozUI1dYjVFsHzu3p3GQLAlRmE2izCdqiQuiHlsAwYhhoiaxtomGbWuA/9B2YYyfANjaD93jBB4NQ6XVQmUxQZ9ihu7oIuiFF0Jf/IOHnngec8AkEOaT8Gp9AiAUifIIiIcInKBIifIIiIcInKBIifIIiIcInKBIifIIiIcInKBIifIIiIcInKBIifIIiIcInKBIifIIiIcInKBIifIIiIcInKJL/B90mU3dQCrv7AAAAAElFTkSuQmCC;" vertex="1" parent="1">
          <mxGeometry x="758.53" y="425" width="54.28" height="24" as="geometry" />
        </mxCell>
        <mxCell id="-YUloIGHrFb9EOFcItWy-27" value="" style="shape=image;verticalLabelPosition=bottom;labelBackgroundColor=default;verticalAlign=top;aspect=fixed;imageAspect=0;image=data:image/png,iVBORw0KGgoAAAANSUhEUgAAAJMAAABHCAYAAAADSnUsAAAJM0lEQVR4nO2deXAT5xnGH2kl67Jky5bxwVHMYW5iCI3TiVNCCE1oOgXayQANkwAJQ4CUchTqDJDSNoQMYTpNIBAmLSkpJZQhbTrQNpMmQAqBCTgTu4k5bHxjsGV8SNaxK2l3+0cKQdqVvVp9skB8vxn/oXf3e79npGf13bJGFEURFAoBtMkWQEkdqJkoxKBmohCDmolCDGomCjGomSjEoGaiEIOaiUIMaiYKMaiZKMSgZqIQg5qJQgxqJgoxqJkoxNCRSBLq6ETnn98Li2ltVjgWziORnnKHQMRMvKtHYiZ9fi41010GbeYoxKBmohCDmolCDGomCjGomSjEoGaiEIPI1MCdhsByYC/WgKupB+92QwyFwFit0A/Mh3FsEfQ52cmWSBSR58FdrgdX34RQWzsEPwuN0QCdPRM6RxZM94wDk26Jux6NknNzPZ+cQcfeA1GvCxyHQH1TeFCng3FEoWIhjiULkF5aovj+sPpZDk1Lfy6JD9mzHVqj4ebrQMs1dOw9gJ5jpyD4/FHzme4Zh6x5c2B9uLTXejv2/QXec1+ExexPzIJ16ndi0h+4chWtr7weFmOsVgzcuiGmPJH4qy6h6/AReD45DcHri34jw8A8aQIy53wftke+q7o+Rd9MvMsF9mJNbJlDoZjK8C53bPlvRRTl67rlOenYfxjtu/8IhEJ9pvNXVqGlsgq2mdNRsHld1Pu4ukb4zlWExaxTH1Cu+/8IflaSh8myx5znBsFrbWjbvgueU58pK8Dz8JVXwFdega5Df0de2UoYhn0r5nrvij5T67adaN/xe0VGupXg1dYEKUocnk/Pov7JZcqNFIG/sgqNS9bA/+WFmMumvJk6D/wV3e8dTbaMfsF97CSurNscvUnT6ZA2ZBBME8bAMKIQWptV9jbB40XT82Xwn78UU/2Kmjnr9Adhnjwx6vVAUwuurN4UnjgnG0PefFWxEMaeqfhepQSaW9C+++3wejJsSC8tgfm+SdDn5oDJtEEMBMF3u+A/Xw3vmXL4K6uIa0k0XG0Drv1yG8ALkmvG0SORvXAeLCWToTWbbsZFUQRXXYuuw0fgOvpvQPimrMhyuPriNhTufwNao1GRBkVmYiwWMJbovX0xEJTENDod0gYVKBKRKDrePnhTmyZNj+yF85H15I+ivjmWknvhWDQfbHUt2nfuhcCy/SlXNQLLoWXjVunnoNEg5/nFyF7whGw5jUYD46gRyN+wGrZHp6Fl3a/CBibB5ha0796H3NVLFelI6Wau5/gpAIDWbMLg17bA8cxPFD1lxqLhGPz6FuQsX5RoiUTo2HcQgbpGSTyvbGVUI0VimVKMgt+USeLdf/sn+B6PohwpbaYbo7mCl17otZmOhrl4PGlFxBFYFl2HpX3CjMdnIHP2zJhypZeWIH1a+GhU5Di4jn6oqHxqmwmAbeZ0pD9wX7JlJAzXPz6C4O4Ji2kMaXAsW6gqX9bc2ZKY+4PjisqmvJmyn56bbAkJxf3hCUnM+nCp6ll8U/F4aCNmw9maWggs12fZlDaTacIYGAqHJFtGwhCDQbAyw3frtAdV59RoNDCOHRUe5AVFE9ApbSbzlOJkS0go/vPVsiNp08QxceXVF+RKYoGmK32WS+mFXuOYomRLSChcXYMkprWYIfhZBP1tN2MiIpZfI5djI15rtNLvGN7d94gupc2UNig/2RISiuCSfsCC14e6Oeo6373WFdHJlyOlm7nIjmSqwbvjWByPkd52Wdwgtc1kMSdbQkJROplIAiW/8J3SzZyGYZItIaFoTdLZfG26Bfp8aQc6XvQDHH3ek9JmumNQ+bv+TIZNEjNPnoBBr26OV5EqUrqZu1MQ/OoWlBmZLSRKRl2JgpopHjQaSUgU+JjTCB6vqurlmrOQ87qqXCRImJnuhn/JcuveoBuICpYdIlG7o9M0caxsrlBHl6p88ULETBpDmiQmNzObash1gENd3THnYS/VqqqfsVlhGD5UEo885NBfEDGT3BBc8HggCtJdf6mE3O7QQENzTDlEQYDn9FnVGiz3T5HEug6+rzpfPBAxE5NuAZjwVGIgiEBTC4n0ty1yJzj8lechBAKKc3g+PQs+jmbJPneW5L1nL1TD/fF/VOdUC5lmTqeDoVD6xvZ8fJJE+tsWuSZG8PnQc+yUovJiMAjna2/FpUGfmwPbI1Ml8dYtv1O0ONsXbE0d2IuXFd1LrANuHD9aEuv40yGwNXWkqrjt0OfmIE1mi0v7zr0IXe/stazI82jZuBXB5vi/vR3PPS3pagheHxqfXQPfF1/GnE8URXjLK9G8ehMaFiwHW93PZsr8wfekovwsGp9Zhbbtu+D97HMEW53gPV4IflbyJ4ZiH1LfDthmSL8VQu3X0bh0rWxHWBRF+Cq+QuPiVfCcOA0A0CmYXe6NtII85G9aK4nzLjealq3H1U2v9PlQi6EQ/FWX4Nz5B9TOegrNK34B7+lzMelQdDxcKU3L18P3+X9Vlc1/cS0yHp+hqqzgZ1H9kHS7adGJ92VHXCQJdXWj7seLo55V0+UNgLFoGLQWM/huN7jLDQi1fzMXpNHrkbdx9dfHlG6BybJj5L/ejUmL84296HznUNTrTLYd5onjwGTbwdisEFgWfLcbwautYC9UQ+Tk+3p5G1Yh84eP9Vk/0eWUgl+XoWHRyqROnPU3OnsmHEufgvO3b8peD7U64Wl1Ri2fu36FbN9LDQNWLIbWbML1Pe/ILtHwHV03T+wkAqKTljpHFgr374J1xlRAZoNVqpI1dzbsMhvxe4VhkFv2U0VPfCw4Fs3H4B0vQz+YzJlFU/F4GItGKLqX+EIvk2HDwJdeQHDls+j56CT85y+Bu1wP3tUDweuDyMU+Q3wnkLvmORhHj4Rzx1vgO3ufuDRPKcaAny2BsWh4QrRYvj0Jw97dA9cHx9F9+EhsPzqi08E8cSws998L24yHZLfwRoNon4ny9elaX3kFPGfKEXK2g+9yQaPXg8m2wzhqBNJLS/r9kEOw1QlfxVdgL9YgeK0NgtsDgeOgNRqgtVigy7bDMHwoDMOGwjiuSPFx8EiomSjEuHs6NpSEQ81EIQY1E4UY1EwUYlAzUYhBzUQhBjUThRjUTBRiUDNRiEHNRCEGNROFGNRMFGJQM1GIQc1EIcb/AGJ4Mhu41oNWAAAAAElFTkSuQmCC;" vertex="1" parent="1">
          <mxGeometry x="474" y="428.5" width="42.44" height="20.5" as="geometry" />
        </mxCell>
        <mxCell id="-YUloIGHrFb9EOFcItWy-30" value="" style="shape=image;verticalLabelPosition=bottom;labelBackgroundColor=default;verticalAlign=top;aspect=fixed;imageAspect=0;image=data:image/png,iVBORw0KGgoAAAANSUhEUgAAAkUAAABMCAYAAABj7sMgAAAdOUlEQVR4nO3dd5wTZf4H8M9k0ssmm22UXZbeO4JSVCzYOCyn2FBPUfndqSCcBTxOr+Bhg0NRUPD0VPA4xXIop54cikoREBDpsLBsZVs2ye6mz2R+f+whLZOdJJO63/frxevFK8/kyXezs3m+mXme78MIgiCAEEIIIaSdUyQ7AEIIIYSQVKBMdgCEENIeCIEABI4Pe4xCp01QNMnBt7jgXLsu5n70IwZD26u7DBERciZKigghREZBnx+uzdvh3r0Xnj0HwNXWg29qgeDzhX0eo1ahz3efJijK5OAdTtQtei3mfgoefZCSIhIXlBQRQogMgm4PGld9BPv7n4B3OJMdDiEkCpQUEUJIjPzllah87M/wHy9PdiiEkBhQUkQIITHwV9fg+NSZCDa3JDsUQkiMKClKE75jZah7aXnItqwrL4H5mssTHBEhROA4VM+dTwmRRIxKBXX3YknHBl1ucLX1cY6IkDNRUpQm+OYWuL7fEbJN2693gqMhhACA8/P18O4/HPYYZX4utH17gc02Q6HVAGBCHsco2ThEmFpUBXnovmqZpGObv9mCqsf/FOeICDkTJUWEEBIl+3trRNs0Pbqi4PGHoB86MIEREUJiQUkRIYREwXesDL4jx0K2KfNz0WXZArAmY4KjIoTEgipaE0JIFDx7Doi2WafcRAkRIWmIkiJCCImCZ694UmQcNyqBkRBC5EJJESGERCFQXRvycUajhqpzxwRHQwiRAyVFhBAShWCLK+TjrMkIhgm9wowQktooKSKEkCjwLaFrEzEaTYIjIYTIhZIiQgiJguALhG6gi0SEpK2USIqCPn+yQ/hZ0OeHwHHJDoOkuVQ6p08SOB5Bf+rFRZKj9bOOT3YY7YIgCCn5mSBFexsTo6pTFPR4IfCh/5hYo0H0eUIwCPfOn9CycSu8B47Af7wCfHMzwAcBVgHWaISqqBN0/ftAP2oYjKNHxq3Kq7/qBFzbdsKzex/8pRXwV9e0luoXhNYDlEqo8nOh7tIZusEDYDh/OHQD+8oag8DzCHq8ko4Nuj3i/fj94EXmN7SJYcAa9NE9N4Ok8jnNu9ynzsvTMQBrCB0b53Ci5ZstcG3dAV9JKQI19RB8vv/9QCxUHfOh7d0ThgtGwHTZhWF/xvZE9L0ORQiKdBKM+u9Rzt+DEAzCe6gE3n2H4D9eAV9ZBQKVJ8C3tCDocreeowDAsmCzjFB1LIC6sBO0A/tCP3QgtH16yhZLe+GvroF7x254Dx6B92AJuLoGBFvcCLrdrQcwDBQ6LRQGPVQdC6Aq7ARNcRF0g/tBO7AvFGp18mJPgTExFTCCIPUT4JTyh+bAvf3HkG29N/wLCp32jMcEjofj43/D9vb74OobJL8Om22G5fprYL1zsiwDt8DxaPrPV7B/uBbefYcifr6qqBOst98Iy6QrwKhUMcfjPXAEx++eHnM/sVB3L5Zcdv9sx26dBn955TmPK/Ny0XPNO7GGBveuPSh/cHbItpw7JiPvgXtifo2TUvmcPnbzffCXibzPa1ee8VigrgG2N/4Bx9ovAYnf7hidFtbbfomce25N6odyKhB7rxOBUavQ57tPY+qDa2hE89cb4dq6E+5de0Qng0uhKuwI8zUTkD15EtgsU0xxRSPcNh8Fjz6I7MmTEhxRaCfHFcenX8Kza0/U/TBqFXSD+sN0+UXIuuwisOb4v+epNiamgrhXtPYeOYbqufOj+qDh7U7Y/r4KjjWfo+iv86Dt1yvqOFo2bkXtgqUInAi9jFaKQEU1ap97GY3/+Agdfz+LyvcHg6e+bZ4u1GPREATRvqLI5WWTKuf02Zq+3ICaZxe3XgWIgODxwvbmP9Dy3fcoXDQPqrwc2WIi8ScEAnCuXYemdRvg3rlH+pWuNgQqT6Bh+TtoXPkBcu+bguzbbgCjSIkZFynDc+Awav7yomhl80gI/gDcO3bDvWM3ahe+ipxf3YK8aXfKEGVoNCaGFtczvPnrTSi7d1bM37z4Rgf8ldVRPTfo9aH6jy+g8pE/xPTLP12gogrlv3kcjf/8WJb+SPpIhXM6FNuK1ah+8tmIE6LT+Y4cQ/lvHgPvbJYtLhJ/XEMjap5dDPeOn2RLiE4XdLtRt/h1lP/6MXAOp+z9pyvHmi9QNnWmLAnROTgO/mNl8veLzBoTbTYbtFptm//2798vuc+4JUWurTtQNXf+qXkMScDZHSib9ls0fb5e/s6DQdQtWob6ZbHfJiLpIRXO6VAcn3yB+lfekKWvQEU1qv/0gix9kczi2b0PZffNQqDeluxQks7x6Zeomf9i69XyNJKJY6LP52vzXyR3FuJy+yxQU4eqOU8DIhNXE4FzOFH+wGzJ2baqqBOU1mywWSYE3W5wdif85VVtzsuwvfkPKPNzkH3DRDnCJikqFc7pULwlpah9folouyLLBKXVAsHnB9dohyBhBYxr0zY0f7MZpovHyBkqSQGsNRusJQusOQusyQAhwCHocoNraESguqbN5wcqqlH526dQvHzhOfPs2gvf8QrUPPNS2wcyTOvk9aLOYM0mMBoNBC4A3tkM3tkMf3ll60TmBKExURr5kyJBQM38l0RXSyk75MM4+jxo+/YCm20Bm20Go2DAO5vBNdrh2XsQnp17Qk7glRwCx6Fq9rw2f/maPj1gveV6GEaPhNJqOac96PbAtf1H2D/4BO5tu0T7qVv4GnT9+0S8WkPdrQu6rlwq6VjfoaM4MW9hyDbztVci++brInrtkxh1ZkyOi6sUOKdFAkPtC0sgBM6sl2MYMxLmiRNgHDMSCr3u1NHBILz7D8H52Xo4Pv4s7LfchtdXtsukqPPzfzjn/RRTMf0J8PZzbycp83NR+Nc/yx1a5BgG+uGDoB8xFNoBvaHr1yfs5F2+uQWen/bDuXYdmr/ZLPoFwHf4KOpfexsFs/4vXpGntNqFS8N+OVJ3L0bOlJtgGDcKSotZ9DhBEBCoqIJn70E0f7sFro3bJJ97kUqXMTEVyJ4UubbthGvrjnMeN4wZibxf/6rNN8ky6UoArRPYGt/9EM3rv4v4EmXdkjfh+XGvaLvCaECH2dNhmnBx2HL8Cr0OpotHw3TxaLRs3o7qp54LmdkLgQBOzH8RXf++OKKJiAqtBtpe3SUdG25JvjLHKrkfErlUOKdD4ept4E67lcFas9Hx97NgHBt6M1JGoYBuYD/oBvaD5dqrUPHwXPAic0R8R47Bs/8QdP37xBxnOtF0LZJ8LKMM/YWCUauS+veo6dMD5qsvQ9aE8VDmWiU/jzUZYRw7Csaxo+A9fBTVTz0Hf2l5yGPtq9fAcv1V0HQrlivstOA9fDRsMmC962bk/eZuSeMAwzBQdymEukshzNdcDr6pGU3rv0Xjux8iUCHffEMgfcbEVCB7tLZ33j/zBbJMKFo8H0WL5kWUNer69Ubnp59A178vhqZnN8nP8+w7BPsq8cleqsKOKH7zRWRdMT6i/YmMY0aieNkCsCGyZwDwHSyJz31aknTJPqelYC1mdFn6nGhCdDZt354oeukvACv+EdD89Sa5wiMJoBs6EEVLnkW3d5bAetsvI0qIzqbt3QPFyxaIb2zLB9EY5nM2U7V8971om2nCxch/cGrUSQCbZUL2DRPR/b3X0fGpR6Dq3CHaMM9AY2JkZE+KTq91oMzLQfHyBTCcPzzq/rR9e6LrW4uhHzZI0vG1C18VXYGhyDKi6OVnoCmW/m3wdJoeXdHxyUdE221vv5fUpeIkPpJ9TkvR+Zm50HTrEnEclhuuEW13bdsZa1gkARRGA7osfR7FyxbAcN5Q2fplzVno9KfHRdtbvt0CIc0mGsfKteUH0bbc+++Q5TUYloV54gTkT79Plv5oTIxM3K5rMSoVihbPl+XyKqNSSfrW07JpG7z7Doq2d376Cag7xZZ9G8eMRNaVl4Rs85dVhr1ESdJbMs5pKbKuvhT64YOjem64uWi+I6VpuzVBe8KajNCPiO733xbdoH6iffN2J7z7D8fldVNVoKY+5OPKvJyoE4t4ojExcnFLinLvuwOa7om932xf/Ylom/Gi0TCcP0KW17HefqNomzMNLxcSaZJxTkuRc89tUT9XU1wEtdjPxPMIyFhLiaQn4/ixom3eI0cTGEnycXZHyMfFbiElG42JkYtLUqQq6gTrHTfFo2tRgboGuL4/dzLsSXm/uVu219L27QlNnx4h28LFQNJXMs5pKbR9e8X8DTXcZGp/5YmY+ibpTz9kgGhboKL9nB9CICC6HD3olraHZSLRmBiduCRFluuvjttGrmJaNm4VvW+qHdBH9m/4+hFDQj7O1dbDL6HeB0kvyTinpTBePDrmPsL9bfAi34xJ+6HqUCDaxjW0n0KOjEoFRqsJ2RaoOgG+KbUqwdOYGB356xSxLMzXTJC927a4tmwXbTNdOk7219MN6ge7SJvvyLGY79OSFJKkc1oKOeqAKMPsdcY7m2Lun6Q3RZYRUChClpHgE1h8MBUoc60IhLp6GgzC8fFnyPnVLYkPSkR7GBOzs7NRUlLS5nFFRdKvpsueFOn69w5Z9CnePGF2+DWMHCb766m7FIq2+UrL22Xhu0yVrHNaCk2v2Jf2M2EqE9NEa8IwDBi1CoL33O1tYtlrLx3phw6EU+SWcsPrK6Hp2U1yWYx4aw9jokKhQI8eoW/bRUv2pEjbr7fcXbaJs9nB20RyVIaBumtkS5WlUGaLVyrl6hpkfz2SPMk4p6VS5sS+gk2h04m2CVx8KuySxAnU1cPz0wH4Skrhr6gCV28D73Ai6PG2zpMJtr1kOlRCBEDStjGZxDj2fDjXrgvZJgQCqPztUzBeMhbZN10L/fBBSStcSGNi9DIiKfJXiU/2U+bmnNoJ+Iz7q8K5/z2t/YzaCiHuywph9n/hbI3hwiVpJlWTIkarAcPGPs+JUYQp2JZeJUbI/wSqa+FY8zmaN2yC/3hF3F6nvdUpMo4fA1VRZwQqqkSPafl6E1q+3gTWaoHhgvNgGDkUuiEDoBYrhBkHNCZGT/akSFWYuF/8SeGyUK6+AaW33J/AaADBk1q7qJPYJOOclkKh1yc7BJJiAidqUf/qW2j6coPoJFs5hRsIMxGjUKDD4w+h4uG5bW7Vwzc60PTZf9H02X8BtFad1/brBW3vHtD07Qlt315xm3tKY2L0ZE+KWJNB7i7bJLZ/U7IEfelzApC2JeOclkKOq0QkczjXrkPNgiUQPKm3PDyTGEYNQ/7D01C36LWInsc7nHBt+eGMqtjKvFzoRwxG1hXjYRh9nmy322hMjJ7sSZHCkPgBJOXua6dZWXMSXjLOaUIiUf/a27D9fVWyw2g3rLdeD1V+Lqr/vCCmJJSrb0DTF1+h6YuvoCzIQ960u5A18fKI9iALhcbE6MUhKRKftBkvQqB9XcIliZWMc5oQqRrf+5fkhEhV1Ama7l2h7loIpcUChU4LRqMBws0rA1Dz9KLWSdnkZ6ZLx6HHkP5oeH0lHJ98AfCxza/iautxYt5COP+9Dp2emQulRXzicltoTIye7EkRo0j8JX1GJX+5JUJOSsY5TYgU3pJS1C3+W9hj2JxsWG//JUyXjIt6sm/NMy8BlBOdQ5ljRYc5M5A77S40ffk1mr74Gt6DR2K6MuLe+RPK738ERUufgypMDbFwaEyMXka8c4xaLdpmvv5q5D9wTwKjAUBzPQghCVD/yhuiW08AgHXKjciddicUWvFaVG0RgsHUux2TYpRWC6y33gDrrTeAb3HBs3sf3Lv3wnugBN6DhxFsiqzIpb+8EtVz56PLq89HNXeQxsToZURSxFqyRNsEfwCsWbydpC6B45MdAiEpy1dafsak3bPlz/o1rLdeH/PrBFtcaTUnJNlYowHGsaPOKOLoK6uAZ/c+uLbsQMuW7ZLmIXl274Pjo38je/K1kcdAY2LUMiIpUubnirYFU2w/GiJd0N2+quUSEommLzeIthnGjpIlIQLa31Ye8aApLoKmuAiWa69C0OdH87pvYFu5Gv7S8rDPs638AJYbJka87yKNidFLTrlNmanC1HrgxKp6kvgR5Cno1t62ECAkEu4du0Xbcu+/Q7bXCaTRZp7pQKFRw/yLCej27qvIn3E/wIoPw1xNHTx79kf8GjQmRi8zkqK8HLAiM/W9R47R/k1xwqhUIR8PimwJECmuPn2qoBKSaL6jx0M+rizIg07GKuzh9tCKp3CThQU+/VdXMSwL65Qb0fm5p4AwS/DdO/dE3DeNidHLiKQIALT9RT4EOA7eA4cTG0yiJanUvmhS5PbI0r+35Jgs/RCSaXiXu3WuTwjqYvGNOaPh3XtQ1v6kUhjF64PJ9RmTCkwXXgDL9VeLtvvLotumpV2PiTHImKTIcMEI0baWb79PYCTxEe5bU9CbnAq2bJYpdEMwCK7REXP/vsNHY+6DkEwULimIpb7N2XiXC67tu2TrLxLhKsnzMny+pBLzpCtF23hnU1R9ZvqYGC8ZkxQZx50v2ub412fg03x+ikInvqSWj3C5p1xYq0W0ra0JhG3xl1fCX1YZUx+EZKpwy7Tl/JLU9PlXEGS6HR4psds/QOvKu0yi6pAv2hZt0cxMHxNPcjgcqKqqCvvPbpc+jypjkiJ1547QDx8csi3ocsPx0b8THJG82OwwCUgcd8EOJ9xkPs/+2OYhOD//KqbnE5LJWLPIVVoAgepaWV5D4DjY318jS1/RUGZboMwLvYrKu/8wgv7MmRfDh1kRFu3Gz5k+Jp40Z84cFBYWhv03ffp0yf1lTFIEAJbJk0TbGpa/A28a345RWsxQ6ENvN+E7WpqUrF/TvVi0rfmr76Lul29qhuPDtVE/n5BMx7AsFCK3r30lpeDssd9esr31z6RfrdUOCD0vJuh2h63RlG68B46Itqk6FUTdbyaPifGSUUmR6ZJx0PTsFrJN8AdQ9cTT4OK0e3DQ422tO1FRHZf+AUAtkoQI/gCaw9QsiRdd/z6ibd79h+GJcoJm/WtvR30fnZD2Qic2kRaI+SqAZ+9BNLyZ/A1m9cNCX+kAgIblKyAkcJEJ53DCF6er8o5PvhBt08awkjDTx8R4yKikiGEY5M/6tWh7oPIEyu6eAd+xMtlek2t0oH75Chy97i7Uv/xGXCc964cNEm2rf/UtBOoa4vbaoag6FUAVZi+l2gVLI77Ebf9wLV0lIkQCw+jzRNtsK1aLLtlvi/un/aiY/juAT35FefPVl4qucvWVlKJ2wdKExcLV21B6y/2ofPSPcO/eJ1u/9g8+hWeXyLJ7hQKGUcOj7jvTx8R4yKikCAAM5w2B5cZfiLYHTtSi7N6ZsK1cjaCEUuuhCByHlk3bUPXEX1Ay6Q7Y3ng3IVc2TOPHirbxziaU3TMDzd9sTui3J9P4MaJt3gOHUTV7nqTls0IggPrlK1D7/CtyhkdIxjJeNFq08J/g8aJi5u/hPVgiuT+B52Ff/SkqZvwuZarJs+YsmC67ULTd8eFaVDw8F95D0n/OWLV89z3Kpz2C4/fMQOP7a8DZoqunJvA8bCtWo/aFJaLHGC+8AMqc7GhDBZDZY2I8ZMQ2H2fLnzkN3kMlovU1gm4P6l9+A40rPoD5uithGDUCusH9oBDZRE8IBuEvr4Jnz364t+1Cy+btojVC4kk3sC80vXuILlXnGhpR9fifoczLhW5If2i6dYHCaGxduSZSG4w1mWC6RDzZaov5uqvQ+O6Hou2uzdtx9KapyL3nNhgvHg1Vft4Z7YGaOjRv2AzHh2vhLz9z/oJ50pVwfvqfqGMjJJOpO3WA+RdXwLkm9K0Xrq4Bx++diezJk5B983VQiyyM4OwOtGzcCvs//wVfSek57aYJF6Nl41ZJ+3XFQ+60O9G8YZPoKjjX9zvg+n4HlHm5UHXMh0KnE/28U5iM6Pz0E7LE5d1/GN79h1H319egHz4YhjEjoRvYF9q+vaDQakSfx7e40Pz1RtH3+2esArnT7pQl1kwdE+MhI5MihVqNwhf+iPIHHg+7NJx3ONH49vtofPt9MGoVVB0LwJqzWjfTYxQIejzg6mwInKiF4EvOstSz5U+/DxXTw/9Rc/UNaP7vt5Cyw426e3FMSZGmuAimyy5E83rxidW8zY7aBUtRu2Bp6/ubbYHA8+BtjaJXkfQjBsN89WWUFBESRu59U9C87lvxKzscB/uqj2Ff9TFUnTpA07Mr2KwsAAI4mx1cva31NpvIhq/KvFx0eOwhlGzcGr8fog3qzh2RP+P+Nq8ic/UN4OrDTyFgrbFddQlJEODesfvUtiusAuriIiit2WDNJrAmE4I+H4ItLviOVyBQWS1pg93ce6dAKzIfKFKZPCbKLSOTIgBQWi0oXrag9RLy/rardwr+QNJXWkhhGDUMOb+6Bba330t2KD/LnzkNri07JF1y551NbV5WVeZa0WneE1FXciWkvVDl56Hzs3NRMetJgA9/2zxQXRPRPmYKvR6FL84Lu/w/USy/nAjfsTI4Pvg02aG0jQ/Cf6wM/hjm6WRddSlypt4uY1CZOya6JYw72dnSk+GMm1N0OtacheLlC5E9+drEvWiYPWzkkvfAPch7cCoQpoBbIqny89Bp3mxZfnZlXg6KljwX8310QtoLw/kj0HHuLFk/D1irBUWvPCPblYpYMQyDDo89iJx7pyQ7lPhiGFin3IiOf3gUTBzGkkwcEzdv3hy2nWVZzJo1S3J/GZ0UAa37cxU8+gCK/7YopqWN4SgL8pBz963o9v7rCfsQybnrZnR7dymyrhgvujojkYzjzkfnZ34PRiN+L70tumGDUPzGi9B0LZIxMkIyn3niBBQvXwhlQV7bB7dBP2IIur75EnQDxEtuJEvetDvR9Z1XRIsSxpMy2wLDmJFg1PH5vFV364Li1/+K/Bn3g1HEb2jOpDGxoqICR4+Gr7U0depUdO/eXXKfGXv77Gy6Qf3Q9a3FcP2wG/bVa+Da8gOEaHcKZhho+/SEftQwGMeMhG7owLhk9W3RdCtGp3lzwLe44N62C+7d++A/Xo7AiVpwdicErxeCP7oS8dEwXTIW3XosQe2iZXBt3i75eaqOBci593aYJ06I64cBIZlMN7Avuq16DY4P1qJx1Ufg7ZHVn9H27QXrnZORdflFcYpQHto+PdHl1efhO1aGls3b4Nq6C1xdPbhGB4JhKkPHSplrRdGieQh6vXBt/xGujdvg/nFPbDsKMAz0I4fBcu2VMF0yFowycUNyJoyJX30VfucDtVqNJ598MqI+GUGQMOMrAwU9Xrh++BHePQfgPVSCwIlaBGrqz5g8xmjUUBgMUFot0HQvhrpHV2i6F0M/ZABYc1YSo099vmNlaPpyA9w7f4K/rBL8aQXCFHo91N26QNuvJ0zjx0I/fHDYvZwIIZEJ+vxwb98F147d8Ozai0BdPXhnM8BxAFqvFig75EFTXATdkAEwjD4P2l7Sv02TU3hnEzz/G0f85VXwV1QhcKIWQZf7VJLBMFAY9FAYDVB1yIe2Xy9o+/WGfuhAqGS4uieHdBwT77rrLqxYsUK0/aGHHsLLL78cUZ/tNikSIwSDEHx+MCplQrP2TCfwfOv7qlFTAkRIkgQ9XvpsSyCB4yH4/WB02qTcTZBDKo+JhYWFqKqqCtmm1WpRWlqKDh3E9+gMJbV+whTAKBRgwuxIT6LDsCwYkb3bCCGJoaDPtoRilCwYZXp/7qXqmHjkyBHRhAhovUoUaUIEtIOJ1oQQQgjJLOvXrxdtMxgMmD17dlT9UlJECCGEkLQSLimaOXMmcnNzo+qX5hQRQgghJG0IgoC8vDzYbLZz2sxmM44fPw6LxRJV33SliBBCCCFpY8+ePSETIgB49NFHo06IAEqKCCGEEJJGxOoT5eTk4OGHH46pb0qKCCGEEJI2xOYTzZkzByZTbHv10ZwiQgghhKQFnueRnZ2N5uYzq5cXFBSgtLQUOl1sJRCoThEhhBBC0oLdbseMGTPOeXzcuHExJ0QAXSkihBBCCAFAc4oIIYQQQgBQUkQIIYQQAoCSIkIIIYQQAJQUEUIIIYQAAP4fndzR1ALYAqMAAAAASUVORK5CYII=;" vertex="1" parent="1">
          <mxGeometry x="363.55" y="490" width="152.89" height="20" as="geometry" />
        </mxCell>
        <mxCell id="-YUloIGHrFb9EOFcItWy-31" value="" style="shape=image;verticalLabelPosition=bottom;labelBackgroundColor=default;verticalAlign=top;aspect=fixed;imageAspect=0;image=data:image/png,iVBORw0KGgoAAAANSUhEUgAAAWkAAAB9CAYAAABgS5J3AAAalUlEQVR4nO3deXRU5d0H8O/sM0km+0Z2SEJYwioIshTEWhSE6lGrtlRqrdXaFu1xqdbz+vrWV8W2Wn3toi1qtVqqogJVUFFBNhGMAQJhyQbZM5NMlslMZr/vH5QehDDJfe6de58bfp9z+o/NnXmYPPnOvc/ye3SCIAgghBDCJb3aDSCEEHJ+FNKEEMIxCmlCCOEYhTQhhHCMQpoQQjhGIU0IIRyjkCaEEI5RSBNCCMcopAkhhGMU0oQQwjEKaUII4RiFNCGEcIxCmhBCOEYhTQghHKOQJoQQjlFIE0IIxyikCSGEYxTShBDCMQppQgjhGIU0IYRwjEKaEEI4ZlS7AVKFwwI8AyGEwgKsFgOsZj30ep3azdIkQRDgD0bg80cQiQiwmPWwWgww0OepKOrT8guHBfgCYfgDERgMOljNBljM2rhH1URIh8IRHG3oR32zF/XNXjS0eNHR5YfXF0YgKJzz8/E2A7LTLcjJsKIkPx6TSu0oLYyHyaiNX0osDfjCONLQj9pGD9o6fWhz+tHW6UdPXxD+YGTQa0xG3b8/Uyuy0y0YlW5BYU4cJhYnICPFovC/YGSgPi0vQRBwsm0ARxv60eLwob3Tj1anDw5XAAO+MELhcz9TnQ6wWQzISrNgVMapz3Z0bhwmldqRmcpPv9YJgnBu66PocQfhDwz+x3w+JqMOqUlmUdcEghFUVPdiZ6ULew52wzMQFnX92SxmPeZOTcHll2RgalkidLoL586k5qQH277sxMHjbtQ1eRAR9RuPLjPVjPISO+ZOTcXM8mSYTdoLDerT2tTZE8COii4cON6HQ7Vu9HulfZ5nykw1Y8rYRCyYmYZp45JUfZoUHdIP//EY9h7qEfUmpQXxeO7B8mH9rC8QxqbtDry1pQ3dfUFR7zNchaNsWLk8D3Ompsbk9XnQ4w5i804HPvmiE80dPkXeM95mwLxpqVgyPxNlRQmKvKccqE9rh9cXxvaKLny6txNVNW6ISy82KYkmLLo4DVcvylblyZGb4Y5IRMDGzzqwdlMLevtDMX2vk20D+PULNZhUase9K4uRlcbPo41U3X1BvPVRK97f7jjv8EWseAbC+HC3Ex/uduKiCUlYsTQX48fYFW0DT6hPy8ftCWH9p+3YsK1d1jvm4ejuC+Ltj9uxcVsHFs/JwA1X5Cga1lyEtMPlx2//VoeqGrei71tV48Ydjx7E3SvGYMGMNEXfW27hsIA3P2rF2s0tg45pKq2iuhcV1b2YPTkZP7tpNNKTxQ0NaB31aXn4AxGs3dyCDVvbMeBX9qbjbMGQgPe2O/Dhbie+f1Uerr18lCLDIKqH9M5KF55+tR5en7LfjqcN+CN44sVauHoDuOayUaq0Qar6Zg+eerUedU1etZtyjj0He3Dw+EH8+LoCXDE3U+3mKIL6tDwqqnvw3NoTaO/0q92UrwmGBLy0vgk7vnLhnpVjUJQTF9P3UzWkP9jlwLOvNygyrjSUF9Y1IhwBrrtcW536g10OPPePEwjLORsoM68vjGdea8C+Qz24/5YSzSx9YkF9WroBXxjPrW3Ap3u71G5KVDWNHty1+jDuu6UY86bFbi5Atb+Wdz9pwzOv8dGZT1vzTiN2VbrUbsawCIKAF99txDOvNXAd0Gfatb8b9z1dDVdvQO2mxAT1aelanT7c/ZvD3Af0af5gBP/7lxqs3dwSs/dQJaQ/+aITL6xrVOOth/Sbv9Wh1anMaghWkYiA1S/V4a2P2tRuimjHT3pw15OH0dHF1yOsVNSnpauo7sGq1Ydwsm1A7aaI9srGZryw7mRMXlvxkK5t8uDZ1+uVftth8wci+P3f6yFyZaKi/vDPE/jsS23caQzG2R3AA88eQY87NsvRlEZ9WrpdlS48/Mfjiq/ckNO7n7Tj7/9qlv11FQ1ptyeER58/zsXqg2iqatz4cLdT7WYM6pWNTdi0w6F2MyRrc/rx0P8dhWcgtkvTYo36tHS7Kl14fE2tZobtonl9UwvWb22X9TUVnThc804jOlzixyMtJj1yMi1ISzbDZjHAZNQhGBLg9YXhcPnR3ulHMCTvL/j191tw2ax0rrbd7qp0Ye3mVllfU6cDxuTGoTDHhvxsGxLjjbBZDdDrdfD5w/AOhNHa6UNTmw81jR5ZVyzUNXvx1Cv1ePiOsbK9ptKoT0vz+YHumAS0zaLH2MIE5GZZMSrdAnu8ERbTqRoogWAEXl8Yzu4A2jv9qGv2oM0p3/DbX9adREl+PMpL5NkjoFhIHzvRL+qbfPJYO+ZNS8WUskQUZNuibnkNhiKobfRgz8EebN3XCQfDH83ZnN0BfLDLiWULsiS/lhycLj9+/5p8j9RTyxLxrTkZmDEhCYkJpmFdEw4LqK53Y3uFCx/vccqybnX3gW68v6MDS+fz8TmLQX1amoYWL1a/JF9Aj8qwYOGMNMydmorReXGi1jD3uIPYd6gH277sQuWRXkmlEyIR4PE1NfjTQ5OQbB/e31Y0imwLL84/9YEdP+mJ+nN6HXD5Jad29ORkWEW9x2nhiIBt+7rw8oYmdHZL69h5WVaseWSKpNeQQyQi4L6nj+BwnfSNETMmJuHWawowOlfa2k6vL4yN29qxdlOr5J2NZpMOzz1QjsIYrzc9H+rTyuvrD+Lnq+WZQJ5YbMeNV+RgZnmyDC0DWh0+vPlRKz7a7ZQU1jPLk/HoT8skt8fwyCOPPCLmgq37utDiEDdT3OMOoqsn+iRRcX4cnlg1DlfMy4Q9nv0GX6/TYUxeHBbPyUB7p1/STHGfJ4Sp45JUr4j1wS4n/vVZh6TXSIgz4Je3lOAH385HSqL0b3eTUY/ykkRcNisd9c1eSX9s4cipu6rFc9TZ7EJ9WlmRiIBH/nxc8uar9BQz7rl5DH50bQFyM9m+AAdjjzdi9uQUzJqUgqMn+pnrrbQ6fBidF4eCbJuk9igS0kNZMj8T//XjUtFVxaIxm/SYNy0V/d4Qjp2IfrcTjQABc6aoV7TG6wvj188fh09klbYzFWTb8OQvxmNisfx1NOJtRiyalY4BXxhHG/qZX8fZHUBhjg2Fo5S/m6Y+rawN2zrw3nZpk9/zp6fisZ+XoTg/XqZWnSs1yYzLL8mAszuA+ma2L5Tq+n4smZcJo4R5ANVnEG66Mgervjs6JpMZOp0Od1xfiPnT2Tvk3qoeRFScdf7n5hb0uNlXQBRk2/Dbe8YzP2oPh0Gvw+3XF+LGK3Ikvc6atxsRULgoVCxQnz6/ji4/Xl7fJOk1fnh1Ph66rRTxtthPqZlNety7shjXfjOb6frO7gDe+FDaZL+qIb1kfiZWLs+P6XvodDrcvWI00pLYHvF7+0OoaWS/a5Gixx3Eu5+yL+dJSzJh9d3jkDTMiUGpfvDtfCyZzz5k0eEK4INd2l5eSH06umdeqxddu/tMd68Yje8slnYzwOK2awtx5bwMpms3bO2QtNRUtZCeMCYBP72hSJH3ircZcdt1hczX7zssblJJLpt2OJiXYel1wIM/KpH1cXs4fvKdQpQUsA9ZvPtpu6pPLlJQn47u8wPdqDzax3z97SoX6brzhiKMLRQ/vOL1hfG+hOEdVULaYtbj3h8Uw2BQ7rSDb0xPZR7AP1LPPtbKKhSOSJosvP5bOSgvSZSxRcNjMurx4K2lMBnZfrdtTr9qX4pSUJ+OThAEvCphN96yBVmqV/QzGfV44NYSpr799sdtCIbYniBUCekbJSxHYqXX67D0G2zfwkMts4qFHRUu5lnl9GQzblqi/CPhabmZVlyziG0MDzi1vVZrqE9Ht7PShYYWtsm3MXlx+PF1BTK3iE1OhhXXf0v831Zvf0j0Ms/TFA/plESTpD9gKS6dmQY9w7/Y7QmhvVPZAjWf7u1kvvaWq/NhNRtkbI14N12Zi6QEtomdA8f7NFUpj/r00F57j61KnEGvwy9vKeZql+T1l49CQpz4v69P9rD9TSv+L7/60mxYLeoESGKCCeNHsy1Da2pXrkN7BkLMY3cZKWYs5OBEDpvVgGUL2Xa2CQKwq7Jb5hbFDvXp6A7VupnXdi+/NEu1TU7nY7MasHyh+C/lvYd64PaIn0BUNKSNBh0Wz2WbIZXLRROSmK5rU/CuY8/BnkGPoB+OaxZlKzouGs2yBVnMY9Pbv9JGlT/q00NjXbETbzNgxdJcmVsjj6XzMyH2cPZQWMAXVeJvPhQN6RkTk2TZyy5FWRHb4vdWGQuwDGUnY5F2vR64bHa6zK1hl5RgwuzJKUzXHqp1a6KUKfXp6DwDIeyoYOvPyxZkKbIWmkVashlTysRPzLM8ISsa0nM5OG6edYeSUkXqBUFAVQ3bUMe0cUmKrYkeroUz2YZeBOFUUPOO+nR0OytdTLVdDHodrlZpnH+45jMcmVV5tFf0NYqGtFwFUKRItpsQbxM/ftjXr8xdXWPbAHPh829cpH5gnG3mxGTmMw21ENLUp6P7ooptRcOsScmqP6EMZeo48cNMrt4gmtrFjc8rFtJ5WVZuPvTsNPHFZXr7lSlOLyWYpjN0mlgzm/TMdXUP1bJvfFAC9enowmEB+xknwHkatjuf3Ewr0pPFbxYTu/xRsZAePzpBqbcaUirDB9vHeUjnZFiQoXK1vvOZxvjlUd/kxYCMhwzIjfp0dIfr3EyHRJiMOubJUKUV54tfeVLfzGlIFxfErlqVWHaGNY5ynkgSzYlWtgX/auwuHK5JpWx30hEBaBT5aKgk6tPRfXVE/PgrAEwqTVR9nf9wjckTH9INLbwOd8hY71Uqe5z4GWPWJXFiRCICmjvYlkVJqZcRa0U5cRBxSMbXiB2/UxL16ehYizhNZVg1oZa8LPHb8sXuvFQspJXeMhuNycT2zw6FY1tG0+FiP9duTB4/d3Vns5j1yM1i+/03SihwH2vUp6Ora2IL6bGMSwrVkJEifpipuy8oqiSvYiGdmszHBAsA5g0WIZkPBj1bo4QdYEU50k5/iLUixl1jTYxPFkqgPn1+rt4Acx30khgW8pdbOkNIAxBVl0eRkLaY9FyNMenFbhX6t1gfOc9aSyHOakACw+OukrIYVh8AQJuTz5CmPh0d69FYqUkm7vvymViGmQCIqk2jSEjbGQvtxIqOn1otX8Na9S47nc9VHWdibSOvuw6pT0fX4WLbKDNKA335THFWti/qrt7h92tFepqVcTPDhYY1kDJTlS3sz4L14NPe/hAiEQF61pnHGKE+HZ3TxVbFUBCAHf+u2yIMcpN/5n8TzvN/DPYzg73Wqf8++HWDv9bgP6vXAxGRQ/tilj8qEtJGTgr+8I71Tpq3reCDYS1bKginTrjmZdPIadSno+vsYQvp6vp+VNfXytwa/og5AECR2wEj46TGhYZ1osUez9ej92BYx+4A9i+vWKI+HV1nt3bqgauBu9UdOlCHHg7WzQWaCGkJbeRx1yH16ei6OZ1L4AV3IU2Gh/UMtDiVCs6LwTrBAoB57ThRj5gQuhCJqQxIIc0R1jDSwqO3lIMI6A9ee/wB+p1FJeJPnUKaI0HGMNLKJBbrhgvWJwyiHvpilQ+FNEeY76Q1EtKsd9M03KE9FNLyoZAmimH9KqGIJhcyCmmOMNdfUKBCnxxY22nWwJg7+TozY8Enci76JDnCXslMGyHNOmxhMlI31RoKafnwv8D2AsJbJTM5hSV8kZhMdCetNaznWv7ungnMu1O1RMy+gZH/aWgI6x2j18/fZo+zSTkFxEx30prD+jvLTDUz13kZqaj3c4R1w4fbo8z5i1JIaaNVA5t1yNcl2dnu/2h99bkopDmSzNixNRHSXvY2piTyVVyJDC2N4WBcgJbuDYZCmiOsld56+/mvk9DLWMtBpwMSL4AxypEmnTGkY32CuRZRSHOENaQdjLV7ldTB2MbEeCMMnNWSJkNjOfsPYC9xOpJRSHOE9bG+vZPtFAwldXSxtZG3OtJkeFgn/5xU4vQcFNIcYT1iyusLcz8uzfpFooWjwci5RueyHYzc3MHv6fBqoZDmSH4W+4nfJ9vYDv5UyolWtvblZ/N9CjoZXHa6FQlx4lflsB5gO5JRSHMkK93CvKGF587tC4TR4mA79Ts/2ypza4hSxuTFib6mqX2AluGdhUKaIwa9DjkZbKFU2+iRuTXyaWj2nvcg0KEU0J20ZpXkx4u+JiIAh+vcMWiNdlFIc6Ywhy2Uqmr57diHJLSNhju0a0pZItN1+w71yNwSbaOQ5szEYjvTde2dfuYVFLFWebSP6brCUTYkSDjAlqhrSlki0/DdnqruGLRGuyikOVNewhbSAPDVkV4ZWyKPQDCCw4x30lI+C6I+q9mAyaXi76bbnH5JT18jDYU0Z0bnxjHX8Nhe0SVza6T7oqpb1KGbZ6KQ1r6Z5clM123e6ZC5JdpFIc0ZvV6HiYzhdOBYH7r7+NoivnUv+xdHeSmFtNbNn54Klg2jn33ZBYeLz+E7pVFIc2ju1BSm6yICsOVzp8ytYefqDWDfYbZJoLGF8chIoY0sWpeWbMbFk8TfTYfCAl5/vyUGLdIeCmkOzZmSAj3jb2b91naEwnysM924rYP5NJb501Nlbg1Ry5XzMpmu2/K5E3VN/C4tVQqFNIcSE0yYPJZt+ZKrN4iP93TK3CLxPAMhvLe9g/n6edMopEeKGROTkc5QcCkiAL97pZ6bmw61UEhz6tKZaczXvrKxWdJJKHJ4/f0W9HvZ2jC2MB6jGDf1EP4Y9DrcsDiH6dqGFi/+tqFZ5hZpC4U0py6dmY5EEeegnam7L4jX31evYze2DWDDVva76GsWZcvYGsKDK+dlICuVrXzpui1tXM21sGhsG0At49ANhTSnzCY9lsxnG8sDgHc+acf+Y8qvmw4EI3jixVqEI2xj0alJJsy/iIY6RhqjQY8VV+UxX//Maw3Yq8FNLidbvXh8TQ1uf/Qgc+kGCmmOLVuQxVzwXhCAJ1+qg7Nb2WVMf1h7Ag0t7MWeli3IgtFA3XIkWjQrnanoEgCEIwIeef44tu1Tf75lOI7Uu/HoC8dx+6NV2F7hYq5dA1BIcy0t2Yyl32C/m+7uC+KBZ44qtnZ6zTuN+EjCY2lSghHLF2bJ2CLCE4Neh3tXFjPfeEQiwJMv1+Hl9U3MT2qxFI4I2F7RhbuePIRf/LYau/bLc+dPIc2571+Vx1SX97QWhw/3PV0d02Lq4bCAP71xAuu2tEl6nZXL8xFvo1odI9mYvDh8dwnbJCJw6gnxjQ9bcd9T1Whq5+OAgFanDy+vb8LNv6rE42tqceyEvMsGKaQ5Z483YsVS9rE8AGju8GHV6sPY8ZX828Y7uvx48Nkj2LiNfaIQAIpybFg8N0OmVhGe3XhFLsYWii9jeqbq+n7c8WgV/vzmCfSpcBBzjzuIzTsduO/pavzw4QN448NWdPXGph1026IBVy3IxCdfdKJGQs1ory+Mx/5ai4smOHHbtQUoymEbGzzz9TZua8faTa3MtTlO0+uAVd8dTQfOXiAMBh0evmMsVq0+BJeEYAtHBGzY2oHNOx1YdHE6li/MZh7zHo6m9gFUHOnF7koXDtW6odSIC4W0BhgNejx4awnufLwKPr+0QKyo7kVFdRWmliVi8ZwMzJiYDPswl/qFwwKONLixvcKFLZ87MSCxLad9b2kuJjCWaCXalJ5sxv/8pAz3PlUt+Us+EBTwwS4nPtjlRG6mFZdMScFFE5IwtjCeefjMH4igocWLumYPDte6sf9Yn6QvFCkopDUiJ9OKn91YhN+9Ui/L6+0/1of9x/qg1wGj8+JQlBOHgmwb7PFGxFn1MBh0GPBF4BkIodXpR1P7AGoaPfAMyLtJZmKxHTdemSvraxJtKC2Mx/23FOOxv9bIdlfa4vBh3Za2/8yP5GVZkZtpRUaqGVmpFsTbjLCY9TCbdBCEU2HsC0Tg9oTgcPnh7A6go8uPVodPsTvloVBIa8g3Z2egptEjaaPI2SLCqfMR1TgjMSvNgoduK6FhjgvY3Gmp+NVtpVj9Yi1CYflTsbnDh+YOtvM1eUEThxpzx/WFWHQx+5ZxXqQkmvDEXeOQmsS2C42MHPOmpeK/7xgLs4m+rAdDIa0xOp0O99xcjNmT2Yqp88Aeb8RjPy9jPnSXjDwzy5Px+KrxSEk0qd0U7lBIa5DBoMN/3T4WyxZob+NHbqYVz94/EWPypC3BIiNPeYkdf3poEqYwVoAcqSikNcqg1+GnNxbhzhsKmU6+UMPksXY8c/9E5GTSHTQZ3OlhsO8tyR1xcxUWE1vc0sShxi1fmI2yogQ89Wo9Gtv42IF1NrNJh5uX5eOay7JH3B8ekZ9er8P3l+Vh4cw0PP/mSVRweMDycCUlGLFoVjqumJOBQsa9CRTSI0BZUQL++Kty/GNTC9ZtaWM+DSUWJpXacfeKMcilu2ciUn62DY+tGofPD3Tj5fVNaORkG/hQLCY9Lp6UjIUz0zBrUrLkgmEU0iOEyajHyuX5WDI/E2991IbNOx2qhvWEMQlYcVUepo9PUq0NZGS4ZEoKZk9ORsWRXry9pQ2VR/vUbtI54qwGTB+fhHnTUzF7UjKsFvZ6O2ejkB5hMlIsuPOGItywOAfvbe/Atn1daOtUplypxazHJVNScOXcTEwpo8kfIh+dTocZE5IxY0IyTrR6sXVvF3btd6m6Bnp0bhymjkvErEnJKC+xx6zErk4QpFQ6JVpwtKEf277sQtXxPtS3eCXVtj1bapIJE4vtmDMlBZdMSZH1DoKQoZxs9WL3gW4crnPjaEM/85FtQ4m3GVCcH4fSgniUlySivMQ+7HIKUlFIX2A8AyEcqe9HTaMH7Z1+tHX60N7pR3df8LzDI3o9kGAzIjvdcup/aRYUjLKhvMSO7HQaayZ8EAQBLQ4fjp3woMXhg8PlR0eXH44uP7rdQQSC5486vR5ISjAh2W5CSqIJo9ItyM2yIifDiqIcm6r9nEKa/Ec4IpyqZeAPIxwRYDUbYLXoYTLSSk2ifYIgIBAU4A+E4Q9GYNDrYDLqYTadquWh0/G58ohCmhBCOEa3SIQQwjEKaUII4RiFNCGEcIxCmhBCOEYhTQghHKOQJoQQjlFIE0IIxyikCSGEYxTShBDCMQppQgjhGIU0IYRwjEKaEEI4RiFNCCEco5AmhBCO/T/Fho1wfx/oywAAAABJRU5ErkJggg==;" vertex="1" parent="1">
          <mxGeometry x="270" y="268.44" width="58.13" height="20.13" as="geometry" />
        </mxCell>
        <mxCell id="-YUloIGHrFb9EOFcItWy-32" value="" style="shape=image;verticalLabelPosition=bottom;labelBackgroundColor=default;verticalAlign=top;aspect=fixed;imageAspect=0;image=data:image/png,iVBORw0KGgoAAAANSUhEUgAABh8AAADVCAYAAABHaOGoAAAgAElEQVR4nO3debhVddn/8c/a85kH4ACHw6yCE4qIA6amj6aVaWaWpOXPckzN1MwsM00ty3rsIU3LLCu1bNKyFFPGEidQESFFmacDZ57PHtfvD3IgGc7wXfu799rv13V5efUgn3XzAPvc3/s+ay3HdV1XAAAAAAAAAAAAhoRsFwAA75Ws36ZMd4+xvGBFuUJDqozlAQAAoDDQlwIAAAwOywcAOaX++3eq65kXjOVVf+5Tqrn088byAAAAUBjoSwEAAAYnYLsAAAAAAAAAAADgLywfAAAAAAAAAACAUSwfAAAAAAAAAACAUSwfAAAAAAAAAACAUSwfAAAAAAAAAACAUSwfAAAAAAAAAACAUSwfAAAAAAAAAACAUSwfAAAAAAAAAACAUSwfAAAAAAAAAACAUSwfAAAAAAAAAACAUSwfAAAAAAAAAACAUSwfAAAAAAAAAACAUSwfAAAAAAAAAACAUSwfAAAAAAAAAACAUSwfAAAAAAAAAACAUSwfAAAAAAAAAACAUSwfAAAAAAAAAACAUSwfAAAAAAAAAACAUSwfAAAAAAAAAACAUSwfAAAAAAAAAACAUSwfAAAAAAAAAACAUSwfAAAAAAAAAACAUSwfAAAAAAAAAACAUSwfAAAAAAAAAACAUSwfAAAAAAAAAACAUSwfAAAAAAAAAACAUSwfAAAAAAAAAACAUSwfAAAAAAAAAACAUSwfAAAAAAAAAACAUSwfAAAAAAAAAACAUSHbBeQyN5NRpqtbbiIpN5GQm0xKoZACkYicSFiBopiccNh2mQUv0xvf/vuUSslNpaR0Wk4ksv33JxZTIBqxXSIAAHtE3+EPbjKpdEeX3FRSbiIpuZITiypQFFMgFpMTCtouEQAASfQegB8wE0OuK/jlg5tOK75q7fZ/Vq9TYu16Jbc2KNXYrHRLm5TJ7PbnB8pLFRpSrdCwIYrU1So6YZyiE8Yquvd4BcvLsvSr8C/XdZXcslWJtRu2/7Nhk1LbGrf/HjW1KNPRub1B2p1AQIFYVIHSEkXqahUeNXL7v0dv/3d04jg5oYL/qwAAyAL6Dn/I9PSq998r1btylRLrNymxfqOS9Q1Kt7Qq09m1+58cCilcM1ThupGKjBqpcF2tYpMmqujAfRWIxbLzCwAAFAx6DyB/MRODHxTkn67eN1er85kX1PPSMvUsW6FMd8+AszLtnUq0dyqxZr26X3h5hx+L7jVexVMPVPGhB6nkiGkcKPsg0xtXz9Ll6n7pVfWseEO9K1bu+RC/x9CMMt09ynT3KLWtUXrp1R1+2IlGVXTgvio+ZIqKpx6g2P6T2QwDAIyh78h/biql7leWq2vRi+p64SXFV63d47Bml1IpJTfXK7m5Xt16z+9hMKjY5L1VfMiBKjt2hooO3NdM8QCAgkPvAeQnZmLwI8d1XXcgPzETTyixfqPRYiJj6jz7Ax5fs05tjz2ljvnPKLlpiyfX2B0nGlXpjOkqO+EYlR5zhAIR/iK/LbmtQR3znlHngmfV8+qKPW9tPeaEwyo58lBVfOQElX7gsIK6zTS5rUHptg6rNWy9/S71LF1uLK/ilBNVddbpxvKyJVRdqdCQattlADmDvqN/8qXvSDY0Kd3aZiwvWFKicO1wY3k9y/6ttr8/pfY5C5Vp7zSW2xfh0bWq+MgJqvjICQqPqMnqtYFcQF+aOwq1L6X36J986T2AXMNMDH434OVD75urtfacLxotZvxvf6rohLHG8tx0Wh1z/6WWPz6mnldeM5Y7WMHKClWedrIqzzhF4eHDbJdjRbqrWx1PLVDrY0+q97XXbZezS4HyUpX/zzGqOOVEFR3g/+9ArL9tllofedx2GZA05LyZGnbxubbL6JNtd/1CLb97xFhe6QeO0KjvfsNYXq5Yf/nX1fPKMmN5FR89USO+9iVjebmOvmPgcrnv2DbrXjU/+CdjeaXHHKm62781qAw3lVL7Pxao+aE/Kf7makOVDUIgoIqPnKCh55+t8EhzixUg19GX5o586ktNovcYuFztPTi39A3nFu8xE0Mh8eVjl9x0Wu1PzlfjLx5UcsNm2+W8T7q1TU2/elhNv/mDyk8+XkMvOEeR2hG2y8qK+Jr1av7tn9U+e57ceNx2OXuUae9U6yOPq/WRx1V8yBQNveAcFR8yxXZZQG5Jp7e/VNUQN5UylpVTUimz/39Kp41lYXDoO/zBzWTU/uQ8Nf7010pu2Wq7nHdlMmr72z/UNnuuKk87WcMu+pyCFeW2qwIAWETvMdDCOLf0CecWzzATQyHy3fKh68WXtfUHP1Fi7QbbpexZJqP2x59W+5PzVPmxkzT0wnN8eztrz4o31HjvA+pa9KLtUgas+6VXtf6Sr/KBCwB4B32HP/Qsf0P1t81SfOUq26XsWiql1j/9TR3zn9HI669S6YzptisCAFhA7wHkH2ZiKGS+WT6kmlq09Y571PHUAtul9F86rdZHH1f7U/M17JLzVHnGR+UEArarMiK+Zp0afvJLdS58znYpxrz9gVt69BEa8bUvKTSU5gkACg19hz9keuNquPt+tTz8qDSwJ5FmXbqpRRuv/KYqP/FR1VxxoQKxqO2SAABZQO8B5B9mYoDki0/7zmde0JrPXJyfX4TfI9PVra0/uEvrzrsi72/fS3d2aev/3qM1Z1/iqw/Z9+r853Na/ekL1Pa3p2yXAgDIIvoOf4iv26B1n79i+7Of82Tx8F6tf/67Nlx+ndLtdl/ICwDwHr0HkF+YiQHvyus7H9xUSttm3auWh/9iuxSjel9/U24yJSeUn789HQsWqf62Hyvd3GK7FM9lOru05eYfqv0f8zXi+i8rXJM7L9MCAJhF3+EfHQuf1eYbvie3p9d2KYPS8+oKrbvwao2e9R2Fa4baLgcAYBi9B5B/mIkBO8rbT/p0Z5c2XXuzuhe/YrsU/Ee6s0tbb79L7bPn2i4l67qeX6K1516uutu/paID9rVdDgDAMPoO/2j5w2Pa+sOf5OXdDjuTWLNe6y64SmN/fofCw4bYLgcAYAi9B5BfmIkxE/PSkiVLdNJJJ2Xtetdee62uueYaI1l5uXxI1m/ThiuuV2Ltetul4D96//2mNn39ViU319suxZp0c6vWX/xVjbj+SlWcfLztcgAAhtB3+EfjL3+rxnt+ZbsM41L127Tx6hs09qc/VKAoZrscAMAg0XsA+YWZGDMxr6VSKTU1NWXtet3d3cay8u6dD8mtDVp/8TV8Ec4hrX+ZrXUXXFXQH7Jvc5NJbfnW99Vw9/1yffIdlQBQyOg7/KPp17/35eLhbfE3VmnzDbfJzWRslwIAGAR6DyC/MBN7FzMx7ExeLR+S27Z/EU5u2Wq7FEhyMxlt/b+fqf47P5KbTNouJ6c03f871d82y3YZAIBBoO/wj9bHnlTDXb+wXYbnOhc+p6Zf/tZ2GQCAAaL3APIHM7FdYyaG98qb5UO6q1sbrrieTWKOyCQS2vS1W9Ty0J9tl5Kz2h59Qlt/9FPbZQAABoC+wz+6Fi9V/XcL5/DTeN9D6n1zte0yAAD9RO8B5A9mYnvGTAxvy4vlg5vJaPP131Vi9TrbpUBSprdXG6+6QZ0LFtkuJee1/PYRNf78AdtlAAD6gb7DP5LbGrTpulukdNp2KdmTTmvLzT+UmyqgXzMA5Dl6DyB/MBPrO2ZikPJk+dBw9/3qWvSi7TKg7R+yG770DXW/+IrtUvJG470PqJltOADkDfoOf3DTaW2+/jZl2jtsl5J18TdWqfm39B4AkC/oPYD8wEys/5iJIeeXD12LX1Hzb/5guwxo+21lG6+5ST1Ll9suJe9sm3Wvup5fYrsMAMAe0Hf4R9OvHi7onqXp/t8p3dlluwwAwB7QewD5gZnYwDETK2wh2wXsTrqtQ1tuvF3iDenWua6rzTd8T90vvGy1jlDNUBVN2U/RCWMVrh2h8KiRCg2tViAWUyAWlROLyk2l5PbGlemNK9PZpWT9NiU31yu5uV69r7+lnuWvy+2NZ7dw19Xmb35P4x64S+GaYdm9NgCgT+g7/CO+doOafmH+xcvBygpFxoxSuK5WwfIyBYpjChQXywkElInHlenpVbqtXcktW5XcuGX7C0Mt/XnKdHap+cE/adhFn7NyfQDAntF7APmBmdggMRMraDm9fNg262dKNTRl7XpOOKzwyOEKjRimQEnxDn953z5Uur0JZeJxpdvaldraoOTWhuz/pbWg8d4H1DnvmexfOBRS6YxDVXbc0SqeNkXh4Xv+kHIiESkSUbC8TKoZquiEsTv8uJtKK/7manU++6La/zFfiTXrvap+B+m2dm267laN/ekP5IRy869eyZGHKlBWarWGjjn/VHLTFmN5sf0nq3jaFGN52VI89QDbJQAFh77DP+q/8yO5yeSgc8KjR6nk8ENUcthUFR98gIIV5f36+enOLvUs+7e6lyxVx9MLty8jsqjld4+o+qyP97tuIBfQl+YO+lLv0HsA+YGZ2ODlw0wM3sjZ3+3uV1eo7W9PeZYfGjZERVP2U9FB+ys2aa93toWO4/Q7K93Wrvjqder995vq/fdK9Sz7d9YPl17qmP+Mmu57MKvXjE4cp6qZp6vsuA8oWFpiNNsJBRXbd2/F9t1bQz//GcVXr1PLHx9T22NPyk0MflCxO72vva5tP75Pw6+8yNPrDFTZsTNUduwMqzXEV601esgrnjZFNZd+3lgeAH+i7/CP9jkLB3U7vFMUU/mHPqjK0z6sov0nDaqWYGmJSo88VKVHHqqay76g7qXL1fLbR9Qx71+Dyu2rTHePWv74mIZ+4eysXA8wib4UfkfvAeQHZmLm5PpMDN7IyeWDm8lo6/d+bDw3dsBklZ90nMqOPkLhkcON5QYrylU89UAVTz3wnf9bYv1Gdf7rBXX+6zl1v7Qsb2+jjK9aq8033p616xUdtL+G/L+zVDpjetauGZ0wViO+epmGfuFsNT/0JzX/7lEplfLsei2/e0Rlxx2l4oP5DiIAyAX0Hf7hplJquOuXA/q5Tjisqk+dqiHnnqVgRZnhyrYrPmh/FR+0v3rfXK1td9yj7iWvenKd92r965Mact5MOYGcf9UbABQMeg8gPzATM4+ZWOHJyeVD+z/mK/7WGiNZweoqVX3qVFWcdLzCtea++O5JZEydqj9Tp+rPfELJrQ1qe+xJtT46W6mGxqzVMFjp9g5tvOYmuT29nl8rNGyIaq64UOUnHuv5tXZZw5Aq1Vx+vio+dpLqb5ulnpeXeXat+u/9WON/8xM5oaBn1wAA9A19h390Pf+SlE73++eVzJiuEddervCIGg+qer/Y3hM0+q7vqfWPj2nbrHs9/S6zVP02db/4skoOn+bZNQAA/UPvAeQ+ZmLMxGBGzi0f3HRajT9/YNA5oRE1GvLZM1XxsZMUiEYMVDZw4eHDNPT8czTkvJnqmP+MGu99IGvPVBuM+ttmGb3NeFcqP3mKai79ggLFRZ5fqy+i40ZrzN3fV8vDj2rb/90rZTLGr5FYvU4tDz+q6rPPMJ4NAOg7+g6f6efiwYmEVfOlC1R15qkeFbSbazuOqs48VdF9Jmrj1d9SpqPTs2u1Pjqb5QMA5Ah6DyA/MBNjJgYzcm750D57rpIbNg/45zuxqIZdfK6qzjwt5zZoTjCo8v85RmXHH62OOf9U472/UWLtBttl7VTHgkXqmPNPT68RKCnWyOuvUtnxH/D0OgPhOI6qzzpd0YnjtOnrtyrTbn4g0HDvb1R24jEK1+z5hUEAAG/QdxSuYGWF6n50s4r23cdqHcUH7a+xP/uh1l30FWXaOzy5RsfCZ5Xu6lKwxOwzgwEA/UfvAeQ+ZmLMxGBObj381XXV/NCfB/zTSw6fpgm//ZmqZ34i574Iv5fjOCo/4RiNf/AeDbv8C3JiUdsl7SDd0al6D54/+V6RMXUa9+s7c/JD9r1Kpk/V2HvvULC60ni229OrbbN+bjwXANBH9B0FKzR8mMb87AfWFw9vi04Yq7rv3yCFPPq+oFRq+yOpAAB20XsAOY+Z2LuYicGEnFo+dL/y2sCeexgMavhXL9PoWbdm9RmHg+WEghpyzpma8PC9Kj3mCNvlvGPbrHuVbmrxLD86aaLG/OwHitTVenYNk6LjRmvMnbcpUG7+5ZMdTy9UnO8EAQAr6DsKU7C6UmPv+YGiY0fbLmUHxVMP1PAvX+RZftczL3iWDQDoG3oPIPcxE9sRMzEMVk4tH1p+/9d+/5xgRbnG3PldVZ1xigcVZUd4RI3qbr9RI795tZyimNVauha/ora/PulZftFB+2vM3d9XqMr81tRL0YnjNPpHt8gJh80Gu66af/17s5kAgD6h77Dfd2SbE42o7vYbc3ZwU/nJU1R08AGeZHcuelGu63qSDQDoG3qPwus9kF+Yie0cMzEMRk4tHxJr+/dCosiYOo29f5aKD5niUUXZVXHKiRr/67sUnbyXleu7mYy2/vBuz/IjE8aq7n+/nbfPGy7af5Jqvnyh8dy22XOU3LLVeC4AYPfoO+z2HTaMvP4qFR0w2XYZu+Q4jkZcd4UUMN+ip5tb1fv6m8ZzAQB9R+9ReL0H8gczsd1jJoaByqnlQ3+ERw7X6LtuU6R2hO1SjIqMGaVxP79DTjSS9Wt3PL1QidXrPMkODRuq0f93i4Kl+fkh+7aqT35MZSceazY0nVHTA380mwkAMIq+I/+VnXisyj/0Qdtl7FF03GiVn+RNnT1LV3iSCwAwj94DyC5mYnvGTAwDkZfLh9DQao2+6zaFa4baLsUTTjgsx4PveNsdN51W470PeBMeCqnuBzf65g32w7/yRQXKS41mtv11ttLtHUYzAQBm0Hfkv+CQKo245jLbZfTZ0M+fLTmO8dzeFW8YzwQAmEfvAWQXM7G+YyaG/sq7T3unKKbRd35XkVEjbZfiK+1PzlNi/UZPsmsu+7xiPrqtMlRZoWFfPM9opptIqn3OQqOZAIDBo+/wh+FfvkjBCvMvyfNKZMwoFU8/2Hhuz4qVxjMBAGbRewDZx0ys75iJob/ybvkw4rorFB0/1nYZvuKm0mr8+YOeZJccPk1VZ53uSbZNlad9WNG9JxjNbH98jtE8AMDg0Xfkv+he483fHp4FlR87yXhmcsMmpTs6jecCAMyh9wCyi5lY/zETQ3/k1fKh4rSTVXHScbbL8J32p+YruWmL8VwnGtWIb3xZjgePDbDNCQQ05P+dZTSz59UVSnjw+wAAGBj6Dn8Ydunn87IXKT12hpxY1HguL50GgNxF7wFkHzOx/mMmhv7Im+VDZGydhl91ie0yfKn10Sc8yR1y3lkKD/fHM+12puz4Dyg8utZoZvvsuUbzAAADQ9/hD9G9J6h0xnTbZQxIIBpR8bSDjOcm1nnzSAEAwODQewB2MBMbGGZi6Ku8WT4M/8qlCnjw3V+FLrF+o3peec14bnjkcFV/5gzjubnECQRUPfMTRjPbnuA2MwDIBfQd/lB1xim2SxiU0iPNL04SGzcbzwQADB69B5B9zMQGjpkY+iovlg+lH5yhksOm2i7Dl1r/MtuT3KEXnKNANOJJdi4pP/FYKRQylpfcsJnbzADAMvoOfwgUF6v85ONtlzEoxYeav/PBi8cKAAAGh94DsIOZ2OAwE0Nf5PzywYmENfyKi2yX4UtuKq22x582nhuqGaryAnlOZbC8TKVHHWY0s/uFl43mAQD6jr7DP8pOOFqBopjtMgYlMrZOjuFfQ2IDdz4AQC6h9wDsYCY2eMzE0Bc5v3yoPO3DCtcOt12GL3U+87zSza3Gc6vP/qQcg5vPXFdh+Lsqu17kgxYAbKHv8I+yDx5lu4RBcwIBxfaZaDQzublerusazQQADBy9B2AHMzEzmIlhT3J7+RAIqGrm6bar8K32pxYYz3SKYqo87WTjubms+PCpUtDcX6WuF19hKAAANtB3+IZTFFPx9INtl2GE6eWDG08o09FpNBMAMED0HoA1zMTMYCaGPcnp5UPZB49SZNRI22X4kptOq+v5JcZzy4/P/0cc9FewpERF+00ylpdp71D8zdXG8gAAfUPf4R8lhx+iQMQfz9kN19Uaz0y3thvPBAD0H70HYAczMXOYiWFPcnr5UH22v98Mb1PP8jeUaTf/XW/lHznBeGY+KJ5u9uVg3S8tM5oHANgz+g7/KJ5m/kXNtoRHjTCemW5n+QAAuYDeA7CDmZhZzMSwOzm7fIiMG62iAybbLsO3uha9aDwzVDNUxdOmGM/NB8VTDzSaF39rjdE8AMDu0Xf4S9GB+9ouwZhIrQfLB+58AADr6D0Ae5iJmcVMDLuTs29AKT/xWNsl+Frns+Y/aEs/cLgcxzGemw+i+0wwmscHLQBkF32HfzjRiGJ7m/26bFNoaLXxzHQbywcAsI3eA7CHmZhZzMS8N378eN1zzz1Zu96hhx5qLCtnlw9lJ/CF2Cup5lbFX3/LeG7Jkeb+YOabUGWFQkOrlWpsNpIXX71ObiYjJ5CzNycBgK/Qd/hHbNJeckI52+L2W6CsVHIcyeCL99JtHcayAAADQ+8B2MFMzDxmYt6rqanRRRddZLuMAcnJ38XoXuMVHTfadhm+1f2KB89OCwZ99XzlgYga/C5LNx5XcuMWY3kAgF2j7/CXiM9+L51AQIGyEqOZmUTCaB4AoH/oPQB7mIl5g5kYdiUnlw8lM6bbLsHXvNjwFh0wWcGSYuO5+SQyps5oXnzVWqN5AICdo+/wl8hYs1+Pc0GwvMxonhtn+QAANtF7APYwE/MGMzHsSk4uH4oPKcwXtGRL78pVxjNj+08ynplvwiNqjObF120wmgcA2Dn6Dn+JjPbf8iEQjRrNc1Mpo3kAgP6h9wDsYSbmDWZi2JXcWz4EAiqasq/tKnyt9w3zH7RF++5jPDPfhIYPNZqXamg0mgcA2An6Dt+J1I20XYJ5YbPvsHCTSaN5AIB+oPcArGIm5g1mYtiVnFs+xPaZqGCJ2efa4l2ppmalm1uM58b4oFV4+DCjeakGMy/qAQDsGn2H/wSHVNkuwTgnaHr5wJ0PAGALvQdgDzMx7zATw67k3PKh6KD9bJfga15seJ1YVGE/fpdhPwWrzQ47Uo1NRvMAAO9H3+EzgYDx9yPkAoc7HwDAN+g9AHuYiXmHmRh2JeeWD9GJ422X4Gvxt9YYz4zU1cpxHOO5+cb0y4VSjWx5AcBr9B3+EqwokxPIufZ20Iz/mlzXbB4AoM/oPQB7mIl5h5kYdiXnTmeR8WNsl+BryS1bjWeGa0cYz8xHgeIio3mpxma5DAcAwFP0Hf4SrKywXQIAALtF7wHYw0zMO8zEsCs5t3yIjhttuwRfS20z/8KW8Cg+aCXJCYflhMPmAtNppdvazeUBAN6HvsNfTB96AAAwjd4DsIeZmHeYiWFXzD5AdpCC1VW+fE5vLkl68EGbWL1ejb94SNphIfmf//GfLaWbec8PvrO5dN/3n7/zY+/ZbrrvZP33z3/vf//+a7s7ydppxm7y3f+udYeftpNaDW9l3Z5eie/iBABP0Hf4jxPKqdYWAIAd0HsAdjET20kGMzF4LKdOaBFe0OI5L7a8Xc8vUdfzS4znQsokErZLAADfou/wHydi8LutAAAwjN4DsIuZWH5hJuYPOfXYpeAQs29Gx44yiYTSrW22y0A/uImk7RIAwLfoO/zH6K3eAAAYRu8B2MNMLP8wE/OHnFo+hPhC7CneFJ9/3DhbXgDwCn2H/zihoO0SAADYJXoPwB5mYvmHmZg/5Nbyobradgm+lm5qsV0C+okPWgDwDn2HHzm2CwAAYJfoPQB7mInlH2Zi/pBbywe+C8BTmd5e2yWgn3i+HQB4h74DAABkE70HYA8zsfzDTMwfcmr5EKwot12Cr7ExzD883w4AvEPfAQAAsoneA7CHmVj+YSbmDzm1fHAivCTQS5l43HYJAADkDPoOAACQTfQegD3MxAA7WD4UEDfOxhAAgLfRdwAAgGyi9wDsYSYG2JFjy4eI7RJ8zWXLCwDAO+g7AABANtF7APYwEwPsyLHlA98F4KUMz7cDAOAd9B0AACCb6D0Ae5iJAXbk1vIhzBdiL7kpbjEDAOBt9B0AACCb6D0Ae5iJAXbk1vIhkFPl+I4TotEBAOBt9B0AACCb6D0Ae5iJAXbwla+AOFE+aAEAAAAAAFBYmIkBdrB8KCCBaNR2CQAAAAAAAEBWMRMD7GD5UECcaMR2CQAAAAAAAEBWMRMD7AjZLgDZ48WWt/iwqRp63kzjudguOnGc7RIAAAAAAADyGjOx/MNMzB9YPhQQJ2J+yxssL1PxIVOM5wIAAAAAAAAmMBMD7OCxSwXEi1vM3ETCeCYAAAAAAABgCjMxwA6WDwUkVFVhPDPTywctAPSF67q2SwAAAACA3fLruYWZGGAHy4cCEqoZajzTjceNZwKAH7nJpO0SAAAAAGC3/HpuYSYG2MHyoYAEYjEFykqNZrpxtrwA0BduKmW7BAAAAADYLb+eW5iJAXawfCgwYcOb3lRrm9E8APArN+HP7yACAAAA4B9+PrcwEwOyj+VDgTF9m1mqocm3zwMEAJP8evsyAAAAAP/w87mFmRiQfSwfCozxZ9yl00o3t5rNBAAfcnt6bZcAAAAAALvl53MLMzEg+1g+FJjw8GHGM1MNTcYzAcBvUq3ttksAAAAAgN3y87mFmRiQfSwfCkxk/BjjmcktW41nAihk/rttNd3ZJfn0xW0AAABAYeLckm+YiQHZx/KhwMT2mWg8s/fN1cYzAeQPJxQymuem0kbzckG6hReRAQAAADZxbtkzv59bmIkB2cfyocCER41UoLjYaGZ85SqjeQDyixMJG83z4wvOUk3NtksAAAAAChrnlj3z+7mFmRiQfSwfCozjOIpOMrvp7X3jLaN5APKLEzLdxPvvNt/kpi22SwAAAAAKGueWPfP7uYWZGJB9LB8KkOnbzFLbGpVq9feteQB2zQkbvn05kTCalwsS6zbaLgEAAJSer5gAABiDSURBVAAoaJxb9qwQzi3MxIDsYvlQgGKT9zKe2b14qfFMAHnCcBOfbu8wmpcLEhs22y4BAAAAKGycW/aoEM4tzMSA7GL5UIBi+08yntm16EXjmShMjuOYDXRds3l4n0AkYjQv3ebDJn7dBtslAACAfqIvBfyFc8ueFcK5hZkYkF0sHwpQdOxohUcON5rZ+exiuTTTMMH0rbAp/z2HM9cEy8uM5mU6OuWm00Yzbcp09yi+Zr3tMgAAQH/RlwK+wrll9wrl3MJMDMgulg8FqmTGdKN56eYWxd9YZTQThckJGT7k+fAlYLkmWFluPDPV3Go805aeFSulTMZ2GQAAoJ/oSwF/4dyye4V0bmEmBmQPy4cCVXrUYcYz2x5/2ngmCo/pW2H9+BKwXBOsMN/EJzfXG8+0pee1f9suAQAADAB9KeAvnFt2r5DOLczEgOxh+VCgiqdNkRMJG81se+JpZWioMUhO2Oyfy0xHl9E8vJ8X30GU3OSjJv6lZbZLAAAAA0BfCvgL55bdK6RzCzMxIHtYPhSoQCym4qlTjGZm2jvVOX+R0UwUHidqtgFItbYZzcP7efEdRIkNm4xn2pDu6lbXkqW2ywAAAANAXwr4C+eWXSu0cwszMSB7WD4UsNKjjzCe2fLHx4xnorCYfglYusU/z+DMVU4oZLyRj7+52mieLV3PLZZ4uSQAAHmJvhTwF84tu1aI5xZmYkB2mH2DFvJK+Ukf1LZZP5ObSBrL7Fm6XF0vvqyS6VONZaKwBKurjOYlt2yT67pyHMdoLnYUrhupdFu7sbyeFW8Yy7Kpc8GztksAAAADRF8K+A/nlp0rxHMLMzHko3nz5qm5uTkr1wqHwzr11FMHncPyoYAFy8tUdvzRap8912huw93380GLAQtVVxrNc+NxpRoaFa4ZZjQXO4qMGqne5eYa73RTi5INTQoPG2IsM9vSHZ3q4LZbAADyFn0p4D+cW96vUM8tzMSQj6677jo9//zzWblWRUWFWlsHf9cmj10qcJUf/7DxzN7lb6hjYeFtzWFGsMrsIU+SEms2GM/EjsJ1I41ndi9+xXhmNrU9/rTceNx2GQAAYIDoSwH/4dzyfoV8bmEmBniP5UOBK556oCJj64znbrvjp8r09BrPhf+FDN/eLkk9y183nokdRepqjWd2PbvYeGY2tf7577ZLAAAAg0BfCvgP55b3K+RzCzMxwHssH6DK08xvepOb67XtzvuM58L/wiNrpGDQaGbPqyuM5uH9vGjYup5bIjedNp6bDR0LFimxlu9sBAAgn9GXAv7DuWVHnFuYiQFeY/kAVZzyIQWKi43ntv7xMXUtXmo8F/7mhEKKGL4VtvvlZcrEE0YzsaPoXhOkoNkvKem2dnU9t8RoZja4mYwa7r7fdhkAAGCQ6EsB/+Hc8i7OLdsxEwO8xfIBClaUqfrsT3iSveXG25VqzM5b2OEfkXFjjOa5vfG8bAbzSSAWVXTCOOO5rY89aTzTa+2z5yqxZr3tMgAAgAH0pYC/cG55F+eW7ZiJAd5i+QBJUtXMTyhYUW48N9XQqA1X36BML8+62x03k1Fiw2bbZeSM6LjRxjPbn5hjPBM7iu23j/HMzoXPKbmtwXiuV9Jt7dr245/bLgMAABhCXwr4D+cWzi3/jZmYXczE/I3lAyRJwZJiVX/uU55kx19/S5tv+L5c1/UkP5+56bTanpijNZ++UM2/e8R2OTkjus9E45kdCxYpuXmr8Vy8q2i/SeZD02k13f+w+VyP1N9+l9LNrbbLAAAAhtCXAv7DuYVzy39jJmYHM7HCwPIB76j65McUGlrtSXbngkXa8u0f5u1LmExz02m1PT5Hqz99obbceLsS6zfaLimnFE89wHxoJqPGXz5kPhfvKDpoP09yW/8yW8ktuX9Ab39qgTqeWmC7DAAAYBB9KeA/nFs4t+wMM7HsYSZWWFg+4B2BWFRDL/isZ/ntjz+tTV+7RZlE4b5gLZNIqPWxJ7X6U+dry023K7lhk+2SclJoSLUiY+qM57b99Un1vPa68VxsFx0/VqHhw8wHp1Kqv22W+VyDela8oS03/9B2GQAAwDD6UsB/OLdwbtkZZmLeYyZWmFg+YAcVp52s4mlTPMvvXPisNl55g9LtHZ5dIxelWlrVeN+DWnXqZ1V/yx1Kbtxiu6ScV3TIgZ7kbr7he0q3Fdafv2wqnTHdk9yu55ao9bF/eJI9WMmtDdp49Y1y44XbRAIA4Gf0pYD/cG7BzjAT8wYzscLG8gE7cBxHI66/Sk5RzLNrdC9+RWvO+aK6ly737Bq5Ir56nbbccodWnfpZNf7sN0q3tNkuKW+UHDbVk9zkpi3aeO23lenu8SS/0JUcdZhn2VtvvzPnvkMwsXGz1l/0FaWbW2yXAgAAPEJfCvgP5xbsDDMxs5iJQWL5gJ2I1I5QzeXne3qN1NYGrb/kGjXe/zvfPfMu0xtX2+NztO7ia7Rm5kVqe+xJuYmk7bLyTulRh3n2Bb/n5WVad8k1Sm5r9CS/kJVMP1hOJOxJthtPaONXvqXE+ty4NbP3zdVad8HVefFcVwAAMHD0pYD/cG7BrjATGxxmYvhvLB+wU5Wf+KiKpx3k7UXSGTXefb/WfvZSdb34srfXyoKeFW+o/ruz9NaHZ2rLTber5+VltkvKa4FYTGXHzvAsP/76W1pz1oVq/ctsuZmMZ9cpNIFYTKUe/r6lW9q07oKr1LP8Dc+u0Retf5mtdedfyXcOAQBQAOhLAf/h3ILdYSbWf8zEsCssH7BTjuNo5DevUqC81PNrxVet1YbLrtPGa25UfM16z69nUnzVWjXe96BWn3Wh1p13hVoffVyZ7m7bZflG+UnHeZqf6epW/Xd+pDVnXai2x59Wpjfu6fUKReXHP+xpfrq1Teu/+FW1PvK4p9fZmVRjszZe+23Vf+dHcvv55yVQWuJRVQAAwGv0pYD/cG7ZOc4tzMT6ipkY+iJkuwDkrvDI4aq77Qatv/w6KQu3gXUufE6dC59TyeHTVHXWx1Vy5KFyHMfz6/ZX77/fVPu8f6pj7jNKbsiN2yj9quSwQxQeOdzz20MT6zZqy00/0Nbb71LpsTNUOmO6iqYeqPCwIZ5e16+Kpx2kcO0IJTfXe3YNtzeu+ttmqWP+M6q58mJFx4327FqSlO7qUvOv/6Dm3z4iN97/YUDJjOlye+PqfulVD6oDAABeoy8F/Idzy/txbnkXM7GdYyaG/mL5gN0qnjZFI752uepv/VHWrtn1/BJ1Pb9E4dGjVP6hD6rsgzMU22di1q7/3xIbN6t78VJ1LX5F3UuWKt3caq2WQuOEgqo+91PaetuPs3K9THeP2p+Yo/Yn5kiSQjVDFR0/VpFxoxUePkzB6kqFqivlRKNyImE54bCcYNCTWoKVFQpVV3qS7TXHcVRx6klqvOdXnl+r67klWnPWhSo/8VhVf+YMxfbd22h+78pVav3LbLU/OU+Zjs6BhTiOhl36eW374d1GawMAANlDX5qffSmwO5xb/gvnlvdhJsZMDIPH8gF7VHnqyYqvWa+Wh/6c1esmN2xS030Pqum+BxUaUaOyo49Q0cEHKLbfPorUjvDkmqnWNsVXrlbvyrcUf2OVupcuV2prgyfXQt9UnvIhNd33kFINTVm/dmpbo1LbGtX1/JKsX3vIeTM17OJzs35dU6o+cYqaf/2H7Nxy6bpq/8d8tf9jviJj6lR2wjEqnnaQig6YpECsfy+HTHd1q+eV19T14svqfuFlxVetHXR5lad/RLG9xg86BwAA2EVfCvgP55Z3cW7ZOWZizMQwOCwf0Cc1l5+v5PpN6vzX81aun6rfppY//FUtf/irJClYUb79A3f0KIVH1Cg0YpjCw2sUqq6SE43IiUUViEblhIJyXVduPCE3HlemN65Md49STc1KbW1QcmuDkvXblKpvUHz1WisHCeyeEw5ryHkztfX7d9ouBf0QrChT1VkfV9MvHsrqdRPrN6rpFw9tv24wuP0zYtQIRWpHKFBepkBRTIFYTG46pUx3jzLdPUq3tSu5cYsSGzYZ/wwIDa3WsMs+bzQTAADYQV8K+A/nlu04t+weMzFg4Fg+oE+cQEC1t16njVfdoO4l9p/9l25rV9ezi9X17OLd/4fBgJTOZKcoeKby9I+offZc9by6wnYp6Ifqz3xCLb//izKdXXYKSKeVWLteibXrZakCDf/qZQqW8MI2AAD8gr4U8B/OLZxb9oSZGDBwAdsFIH8EYjHV/e+3VXzIFNul9B0fsr7gBAIacf2VciJh26WgH4JlpRry2U/ZLsOayo9/RGXHzrBdBgAAMIi+FPAfzi2cW/qCmRgwMCwf0C+BWEx1d3xbJUcdZrsUFJjo2NGq+dIFtstAP1Wfc4aiBfjc0MiEsaq58iLbZQAAAA/QlwL+w7kFfcFMDOg/lg/ot0Asprrvf0sVp5xouxQUmKozT1XVWafbLgP94IRCGnnD1dtv9ywQwYpy1f3gRgViUdulAAAAj9CXAv7CuQV9xUwMNnV1Ze/hbMOGDTOSUzifqjDKCQU18ptXa9hlX5Acx3Y5KCA1X75QZccfbbsM9ENs0l4a8rlP2y4jO0Ihjfr+DYqMGmm7EgAA4DH6UsBfOLegr5iJwYaWlhYtX748a9f72te+ZiSH5QMGZchnz9To/7tFgfJS26WgQDiOo9qbv6bKT55iuxT0w9ALzlHJEdNsl+GtYFCjvvsNFR98gO1KAABAFtCXAv7DuQX9wUwM2bRgwQK5rpuVa02cOFHnnnuukSyWDxi0ksOnafyDd6t4Wh69dAd5zQkFNeKayzT8K5dKAT7G8oETDKr2O19XZMJY26V4IxjQqFu/rrJjjrRdCQAAyCL6UsBfOLegv5iJIVvmzJmTtWvddNNNCoVCRrLojmBEuGaYRt95m2q+dIGcaMR2OXkpVF1lu4S8U3XmxzT2Fz9SdJ+JtktBHwRLSjT6f7+t4BB//VkPFBdp9B03q+y4o2yXAgAALKEvBfyDcwv6i5nY4DET27O5c+dm5TqTJ0/WzJkzjeWxfIAxTiCg6rPP0Pjf/Uwlh/v8NkVDgtVVqv7smRr/+3s19AufsV1OXiradx+Nu3+Waq68SIHiItvlYA/CI4dr7M/vULjOH88WDdUM1Zh7buczDwAA0JcCPsK5Bf3FTKz/mIn1XX19vVasWJGVa918880KGLyb08z9E8B7RGpHaPSsW9Wx4Fk13HmfEus32i4ptwQDKp1xmCpOPUmlMw6TEwrarijvOcGgqs86XRUfPVGtf/q7mh9+ROnmVttlYRcitSM09t47tOHL31D8jVW2yxmwkiMPVe1NX1Wwotx2KQAAIEfQlwL+wbkFA8FMbA+YiQ3IvHnzsnKdgw46SGeccYbRTJYP8EzZsUeq9KjD1PqXJ9T0q4eV2tpguyR7HEfFUw9U2YeOVdlxH1CossJ2Rb4ULCvVkP/3aVXNPF3ts+eqffZcdb+8TMrSC3nQd6HqSo25+3Ztvf0utT+RvecWmuDEohp2yXmq+vRpchzHdjkAACAH0ZcC/sC5BQPFTOw9mIkNWrbe93DLLbcY/7xg+QBPOaGgqs44RZWnnay2J+aq+Te/V2JdgWx9HUdFB0xW2Yc+qPLjj1ZoaLXtigpGIBpR5Wknq/K0k5VqalbH3H+pY96/1PPa63LjCdvl4T+CJcWqvfEalR5zhOq/O0uZ9g7bJe1RyYzpGnHNZQrXDrddCgAAyAP0pUD+49yCgWImxkzMlGy872H69Ok65ZRTjOeyfEBWOKGQKj/2IVV+7EPqWvyKWv7wV3X+8zkpnbFdmlGBkmKVHDFNpR84XCVHHqpQVaXtkgpeaEi1qs48VVVnnio3lVLv62+p+5XX1LN0ueJr1iu5eYvv/hzmm/Ljj1bxlP3VcPcv1fb4HCmTe78f0UkTVXP5+SqZPtV2KQAAIE/RlwL5jXMLBoqZGAZj3bp1WrNmjefXufXWWz3JZfmArCs59GCVHHqwUq1t6pjzT7XPnqueV7Pz0hTjggHFJu+j4kMOVOmR01V00P48ry6HOaGQig6YrKIDJkvnfFKS5KZSSmzcosS6jUpu2qJUS6vSza3b/93SqnR7h9xEUm4yuf3fqZTcRJJb5g0LDa3WyG9ererPfUqN9z6gjqcW2C5JklQ87SBVn/NJlRx5KLcqAwAAY+hLgfzEuQWDxUwM/ZWNRy4dffTROvHEEz3JdlyXTgX2pZpa1PXsYnX86zl1L1mqTHun7ZJ2yolFFZu0l4oPmaLiqQeqaMp+ChTFbJcF+E5i/Sa1/f0ptT0xJ+vPxgwOqVLFyf+jio+eoOjEcVm9NgAAAID8wbkFJjATw+6cffbZeuihhzy9xoIFC3TMMcd4ks3yATnHdV0lVq9T98vL1LP8DcVXrlJ8zbqs344WrChXdOI4RSfvpdjkvRWbtJciY0bJCQSyWgdQyFzXVc9Ly9Sx4Bl1v/Ka4itXm//uvkBA0X0mqPSIQ1X6gcMV238Sf88BAAAA9BnnFpjCTAz/beTIkaqvr/cs/4QTTtBTTz3lWT7LB+SFTCKx/fbjDZuV2LBJiU1blGpoUqqxWanGZmU6O7ffctxHTjSiUHWVglUVClZVKlRdpXDtcEVGj1Kkrlbh0bUKlpZ4+CsCMBDpzi71LF2u3pWrlNy4RYlNW7Y/lqChaY/N/dt/77f/Xa9TZFzd9iZq8t58twYAAAAAYzi3wCRmYoXr9ddf17777uvpNZ577jkdfvjhnuWzfIBvuMmk0p1dcnvjclPp7c9ATaXkhMMKRCJyIuH//BNRIBa1XS4Ag1zXlRuPK9PTK7cnrkxvr+RITnj73/tgWRmNOgAAAACrOLfAK8zE/OknP/mJLr30Us/yP/rRj+pvf/ubZ/kSL5yGjzjhsEJVlbbLAGCB4zhyYjEFYjGpynY1AAAAAPB+nFvgFWZi/uT1y6ZvvvlmT/MliQd1AQAAAAAAAACQIzKZjObNm+dZ/hlnnKGpU6d6lv82HrsEAAAAAAAAAECOePnll3XIIYd4ku04jl577TXtt99+nuS/F3c+AAAAAAAAAACQI+bOnetZ9syZM7OyeJBYPgAAAAAAAAAAkDO8et9DMBjUjTfe6En2zrB8AAAAAAAAAAAgB6RSKS1cuNCT7HPPPVd77723J9k7wzsfAAAAAAAAAADIAYsWLdJRRx1lPDccDuvNN9/U2LFjjWfvCnc+AAAAAAAAAACQA7x638P555+f1cWDxJ0PAAAAAAAAAADkhOOOO07z5883mhmNRrV69WrV1tYazd0T7nwAAAAAAAAAAMCy3t5eLVq0yHjuJZdckvXFg8TyAQAAAAAAAAAA6xYtWqREImE0s7i4WNddd53RzL5i+QAAAAAAAAAAgGVPP/208cwvfelLqqmpMZ7bF7zzAQAAAAAAAAAAy4444gg9//zzxvLKysq0du1aVVdXG8vsD+58AAAAAAAAAADAoo6ODi1evNho5tVXX21t8SCxfAAAAAAAAAAAwKqFCxcqnU4by6uqqtKVV15pLG8gWD4AAAAAAAAAAGDRnDlzjOZde+21Ki8vN5rZX7zzAQAAAAAAAAAAiw4++GAtXbrUSNawYcO0Zs0alZSUGMkbKO58AAAAAAAAAADAksbGRmOLB0n6+te/bn3xILF8AAAAAAAAAADAmvnz5xvLqq2t1cUXX2wsbzBYPgAAAAAAAAAAYInJ9z1cf/31isVixvIGg3c+AAAAAAAAAABgyaRJk7Ry5cpB54wdO1YrV65UJBIxUNXgcecDAAAAAAAAAAAWbNq0ycjiQZK+9a1v5cziQWL5AAAAAAAAAACAFXPnzjWSs9dee+lzn/uckSxTWD4AAAAAAAAAAGCBqfc93HTTTQoGg0ayTOGdDwAAAAAAAAAAWDBmzBht2LBhUBn77befli1bpkAgt+41yK1qAAAAAAAAAAAoAKtWrRr04kGSbr755pxbPEgsHwAAAAAAAAAAyDoT73s4+OCDdfrppxuoxryQ7QIAAAAAAAAAACg0FRUVuuKKKwaVceaZZ8pxHEMVmcU7HwAAAAAAAAAAgFE8dgkAAAAAAAAAABjF8gEAAAAAAAAAABjF8gEAAAAAAAAAABjF8gEAAAAAAAAAABjF8gEAAAAAAAAAABjF8gEAAAAAAAAAABjF8gEAAAAAAAAAABjF8gEAAAAAAAAAABjF8gEAAAAAAAAAABjF8gEAAAAAAAAAABjF8gEAAAAAAAAAABjF8gEAAAAAAAAAABjF8gEAAAAAAAAAABjF8gEAAAAAAAAAABjF8gEAAAAAAAAAABjF8gEAAAAAAAAAABjF8gEAAAAAAAAAABjF8gEAAAAAAAAAABjF8gEAAAAAAAAAABjF8gEAAAAAAAAAABj1/wGk/oyAaiDPowAAAABJRU5ErkJggg==;" vertex="1" parent="1">
          <mxGeometry x="160.69" y="329.21999999999997" width="158.61" height="21.56" as="geometry" />
        </mxCell>
      </root>
    </mxGraphModel>
  </diagram>
</mxfile>
